<?xml version="1.0" encoding="utf-8"?>
<!-- Generator: Adobe Illustrator 25.2.3, SVG Export Plug-In . SVG Version: 6.00 Build 0)  -->
<svg version="1.1" id="Layer_1" xmlns="http://www.w3.org/2000/svg" xmlns:xlink="http://www.w3.org/1999/xlink" x="0px" y="0px"
	 viewBox="0 0 432 432" style="enable-background:new 0 0 432 432;" xml:space="preserve">
<style type="text/css">
	.st0{fill-rule:evenodd;clip-rule:evenodd;}
</style>
<path class="st0" d="M282.32,310.26h-49.44v5.05h49.44V310.26L282.32,310.26z M101.75,294.66l10.85,9.17l2.73,11.34l-3.56-0.08
	c-2.52-5.79-7.95-12.83-13.04-20.45L101.75,294.66L101.75,294.66z M270.97,296.54c-0.99-9.15-0.68-18.36-0.68-18.36h-34.21
	c0,0-0.84,12.02,3.47,18.36H270.97L270.97,296.54z M242.86,231.24c0,0-4.47,8.04-6.45,38.49h-0.03c-0.12,1.95-0.23,4-0.32,6.15h6.81
	h27.33v-6.15v-38.49H242.86L242.86,231.24z M219.82,267.64l7.1-1.56l0.21-13.77l-5.84-22.84h-3.24v18.98h1.77V267.64L219.82,267.64z
	 M215.54,248.45v-37.76l-62.06-72.18l-7.09,98.05l-6.05,0.1L139.5,135.9l-2.61,100.76l-22.64,0.21l4.79-2.61l-0.42-14.81
	c-4.17,0.42-5.22-7.93,2.29-6.88l1.04-16.27l-0.63-3.76l8.76-101.39c3.76-4.8,18.77-16.06,16.9-0.21l29.41,34.21l3.75,0.42
	c46.31,51.74,38.8,48.4,38.8,48.4c27.95,19.61,23.1,50.7,23.1,50.7c44.85-2.92,64.88,3.24,65.3,8.76v36.3h14.19
	c3.21,0,5.84,2.63,5.84,5.84v27.54c0,3.21-2.63,5.84-5.84,5.84h-39.25h-49.44h-9.36H211h-12.1c-2.53,0-4.59-2.07-4.59-4.59v-10.43
	c0-2.53,2.07-4.59,4.59-4.59h6.26v-13.77c0-3.21,2.63-5.84,5.84-5.84h2.77v-21.28H215.54L215.54,248.45z M293.87,269.73H277.6v11.05
	v15.75h0.61l15.66-15.75V269.73L293.87,269.73z M277.81,231.14v35.05h15.86v-33.69L277.81,231.14L277.81,231.14z M158.48,117.96
	l26.08,28.89l5.01,0.73l-15.44-17.11l-0.1-3.76l-25.56-27.95l4.17,18.36L158.48,117.96L158.48,117.96z M131.79,212.04v-47.36
	l-2.19-2.82l-1.25,31.81l-2.71,3.65l-0.73,14.5L131.79,212.04L131.79,212.04z M131.79,234.26l0.1-15.13l-5.22,0.1l-0.21,9.7
	l-4.8,5.11L131.79,234.26L131.79,234.26z M313.43,290.28l-13.19,5.95h23.78v-5.95H313.43L313.43,290.28z M142.22,240.62l-3.55,43.39
	l6.26-43.39l7.09,5.22l-8.76,53.2C106.13,270.24,125.33,239.58,142.22,240.62L142.22,240.62z M133.46,240.41
	c-22.51,10.66-17.83,34.78-2.35,52.41l-33.85-0.4c-11.06-17.14-18.79-36.8,12.62-51.6L133.46,240.41L133.46,240.41z M132.91,294.79
	c3.18,3.34,6.74,6.41,10.57,9.05l3.71,12.05l-3.07-0.07l-14.19-21.04L132.91,294.79L132.91,294.79z M123.92,294.75l10.85,9.17
	l2.89,11.75l-4.61-0.1l-13.56-20.84L123.92,294.75L123.92,294.75z M113.12,294.71l10.85,9.17l2.73,11.55l-4.5-0.1l-13.56-20.64
	L113.12,294.71L113.12,294.71z M282.84,331.21c-0.67,0-1.32,0.17-1.93,0.49c-2.45,1.29-4.23,4.97-4.23,9.31
	c0,5.42,2.76,9.81,6.15,9.81c0.23,0,0.46-0.02,0.69-0.06c3.07-0.55,5.47-4.7,5.47-9.74C288.99,335.6,286.24,331.21,282.84,331.21
	L282.84,331.21z M290.87,345.55c1.41-5.11-0.16-10.01-0.16-10.01l41.2-5.22c0,0-1.04,6.05,1.41,9.81L290.87,345.55L290.87,345.55z
	 M248.89,346.88l-44.43,10.66h-32.54c-16.69-3.76-17.52-34.63,0.83-37.76l60.13-3.18h49.44l55.49,0.52
	c16.57,0.48,15.13,25.95,4.17,27.54l-58.78,12.57l-27.33-1.04C255.88,356.19,250.64,354.29,248.89,346.88L248.89,346.88z
	 M203.73,347.6c-0.46,0.16-0.93,0.25-1.42,0.25c-3.53,0-6.38-4.55-6.38-10.17c0-5.62,2.4-8.85,6.38-10.17
	c1.09-0.36,2.15-0.81,4.92-1.85l12.35-4.62l-18.1,1.67c-5.44,0-9.85,7.03-9.85,15.7c0,8.67,4.41,15.7,9.85,15.7
	c0.83,0,1.63-0.16,2.4-0.47l44.64-8.74c-0.07-0.53-0.12-1.07-0.16-1.65l-17.11-0.63l-21.33,3.85L203.73,347.6L203.73,347.6
	L203.73,347.6z M279.81,323.71c-9.39,5.42-8.55,33.07,4.8,31.5l56.38-11.96c9.93-2.07,9.01-22.17-1.46-23.26
	C339.53,319.99,303.31,318.17,279.81,323.71L279.81,323.71z M327.69,321.04c-0.97,0-1.75,0.96-1.75,2.14c0,1.18,0.78,2.14,1.75,2.14
	c0.97,0,1.75-0.96,1.75-2.14C329.44,322,328.66,321.04,327.69,321.04L327.69,321.04z M294.42,325.01c-1.3,0-2.35,1.28-2.35,2.87
	s1.05,2.87,2.35,2.87c1.3,0,2.35-1.28,2.35-2.87S295.71,325.01,294.42,325.01L294.42,325.01z M310.53,322.87
	c-1.15,0-2.09,1.14-2.09,2.55c0,1.41,0.93,2.55,2.09,2.55c1.15,0,2.09-1.14,2.09-2.55C312.62,324.01,311.68,322.87,310.53,322.87
	L310.53,322.87z M338.64,324.74c-2.82,0-5.11,3.64-5.11,8.14s2.29,8.14,5.11,8.14c2.82,0,5.11-3.64,5.11-8.14
	S341.46,324.74,338.64,324.74L338.64,324.74z"/>
</svg>
