<svg id="Layer_1" data-name="Layer 1" xmlns="http://www.w3.org/2000/svg" viewBox="0 0 175.72 316.03"><path d="M243.3,58c1.87.42,3.76.75,5.6,1.27a30.21,30.21,0,1,1-12.27-1,4.77,4.77,0,0,0,.88-.29Z" transform="translate(-128.14 -57.98)"/><path d="M299.35,374c-1.93-.86-2.45-2.38-2.45-4.41q.06-62.76,0-125.52a40.35,40.35,0,0,0-.8-5.52,1.87,1.87,0,0,1,.1-1.13c1.13-2,2.32-3.92,3.51-5.92a16.92,16.92,0,0,1,3.84,8.73c.07.46.21.92.32,1.36v129.5l-2.58,2.9Z" transform="translate(-128.14 -57.98)"/><path d="M193,374q1-12.33,2.06-24.68,1.22-14.4,2.44-28.84.53-6.24,1-12.5a7.48,7.48,0,0,1,.23-1l7.32.47q-2.85,33.27-5.69,66.56Z" transform="translate(-128.14 -57.98)"/><path d="M220.89,158.28c-2.12-5.84-4.1-11.37-6.17-16.89a13.75,13.75,0,0,0-26.34,1.75,14.29,14.29,0,0,0,.67,8.22c6.22,17.06,12.37,34.16,18.65,51.2a11.11,11.11,0,0,1,.15,6c-1.27,7.75.14,15.19,2,22.69,3.67,14.72,7.22,29.47,10.4,44.29,1.28,6,1.15,12.24-1.61,18a16.64,16.64,0,0,1-19,8.65c-7.34-1.71-13-8.58-12.67-16.2.27-6.44-1.8-12.36-3.15-18.45-2.39-10.72-5-21.39-7.51-32.09a2.92,2.92,0,0,0-1.82-2.33c-8.71-4-13-11.22-13.92-20.36a109.08,109.08,0,0,1,0-16.37c.65-12.75,2.6-25.32,7.07-37.31,3-8.12,6.44-16.13,10.23-23.91,4.33-8.89,11.21-15.24,21-18a26.42,26.42,0,0,1,12.59-.46,16.27,16.27,0,0,1,12.51,10.46c3,7.3,2.63,14.68.2,22C223.2,152.09,222.07,155,220.89,158.28Z" transform="translate(-128.14 -57.98)"/><path d="M285.88,239c-4.55,0-8.66-2.56-10-6.95-.93-3.08-2.58-4.27-5.63-4.94-16.28-3.53-32.51-7.31-48.77-11a10.84,10.84,0,0,1-8.36-7.22q-10.71-29.44-21.38-58.9a10.76,10.76,0,0,1,3.94-12.82,10.5,10.5,0,0,1,13.33,1,12.8,12.8,0,0,1,3,4.65q9.48,25.71,18.72,51.49a3.41,3.41,0,0,0,2.85,2.49c17.05,3.8,34.07,7.7,51.1,11.57a10.42,10.42,0,0,1,8,7c1.33,3.73,2.92,7.42,3.72,11.27C297.8,233.15,292.58,239,285.88,239Z" transform="translate(-128.14 -57.98)"/><path d="M272,231.5c1.29,2.1,2.46,4,3.6,5.89.15.25.31.65.21.86-1.41,3.18-.8,6.56-.93,9.86a3.29,3.29,0,0,1-2.56,3.28c-1.84.49-4-.7-4.11-2.56-.2-4.91-.65-9.9,1.95-14.44C270.73,233.37,271.4,232.42,272,231.5Z" transform="translate(-128.14 -57.98)"/><path d="M183.75,285.81c.19-4.46-.88-8.73-2-13.25-.36-1.46-.73-2.91-1-4.37-1.46-6.52-3-13.15-4.55-19.55q-1.5-6.25-2.95-12.51a.35.35,0,0,1,0-.13,27.56,27.56,0,0,1-6.39-4l-9.25,54.78s-27.24,63-28.88,69.08a14.39,14.39,0,0,0,5.79,15.59c8.41,5.74,19.53,1.47,22.33-8.57,0,0,22.62-50.9,28.19-64.05a33.41,33.41,0,0,0,1.17-3.28A18.52,18.52,0,0,1,183.75,285.81Z" transform="translate(-128.14 -57.98)"/></svg>