<?xml version="1.0" encoding="utf-8"?>
<!-- Generator: Adobe Illustrator 25.2.3, SVG Export Plug-In . SVG Version: 6.00 Build 0)  -->
<svg version="1.1" id="Layer_1" xmlns="http://www.w3.org/2000/svg" xmlns:xlink="http://www.w3.org/1999/xlink" x="0px" y="0px"
	 viewBox="0 0 432 432" style="enable-background:new 0 0 432 432;" xml:space="preserve">
<path id="path3341" d="M201.58,135.65c-50.45,3.63-77.43,33.58-91.28,68.39c-22.1,4.66-37.68,16.22-37.68,29.87
	c0,14.07-4.8,26.08,26.52,30.43c0.76-18.8,16.19-33.78,35.17-33.78c19.47,0,35.17,15.71,35.17,35.17c0,0.09,0,0.19,0,0.28h85.97
	c0-0.09,0-0.19,0-0.28c0-19.47,15.71-35.17,35.17-35.17c18.88,0,34.26,14.84,35.17,33.5c39.52-5.15,34.33-19.11,34.33-34.61
	c0-18.11-29.19-32.97-66.71-35.17C274.5,161.61,250.42,135.65,201.58,135.65L201.58,135.65z M203.81,146.81
	c37.22,0,67.27,32.58,67.27,50.8H136.26C136.26,179.39,166.59,146.81,203.81,146.81z M134.03,237.53
	c-16.35,0-29.59,13.52-29.59,29.87c0,16.35,13.24,29.59,29.59,29.59s29.59-13.24,29.59-29.59
	C163.62,251.05,150.38,237.53,134.03,237.53z M290.62,237.53c-16.35,0-29.59,13.52-29.59,29.87c0,16.35,13.24,29.59,29.59,29.59
	c16.35,0,29.59-13.24,29.59-29.59C320.21,251.05,306.97,237.53,290.62,237.53z"/>
</svg>
