<?xml version="1.0" encoding="utf-8"?>
<!-- Generator: Adobe Illustrator 25.2.3, SVG Export Plug-In . SVG Version: 6.00 Build 0)  -->
<svg version="1.1" id="Layer_1" xmlns="http://www.w3.org/2000/svg" xmlns:xlink="http://www.w3.org/1999/xlink" x="0px" y="0px"
	 viewBox="0 0 432 432" style="enable-background:new 0 0 432 432;" xml:space="preserve">
<style type="text/css">
	.st0{fill-rule:evenodd;clip-rule:evenodd;}
</style>
<g>
	<path class="st0" d="M196.18,94.89c0.8,13.23-9.28,24.62-22.51,25.43c-13.23,0.8-24.62-9.27-25.43-22.51
		c-0.8-13.24,9.27-24.62,22.51-25.43C183.99,71.58,195.38,81.66,196.18,94.89z"/>
	<polygon class="st0" points="204.74,110.96 195.5,81.55 225.98,71.97 235.22,101.37 233.4,101.95 206.56,110.38 	"/>
	<polygon class="st0" points="205.31,112.78 235.79,103.2 237.62,102.62 240.95,101.58 255.73,148.61 253.91,149.19 209.86,163.03 
		208.03,163.61 193.25,116.57 203.49,113.35 	"/>
	<path class="st0" d="M208.61,165.43l47.7-14.99l1.82-0.57l8.18-2.57L285,206.76l-37.02,11.64c0-0.02,0-0.05-0.01-0.07
		c-0.06-0.62-0.17-1.23-0.33-1.82c-0.63-2.4-2-4.63-4.07-6.31l-25.89-21.01L215,187l-6.17-19.63l-0.57-1.82L208.61,165.43z"/>
	<path class="st0" d="M202.29,179.14l2.52,2.04l2.57,2.08l5.97,4.85l2.69,2.18l2.69,2.18l23.64,19.19c1.77,1.44,2.93,3.35,3.45,5.41
		c0.16,0.63,0.26,1.27,0.29,1.91c0.04,0.68,0.01,1.35-0.09,2.03c-0.25,1.76-0.97,3.48-2.18,4.97c-3.55,4.36-9.96,5.02-14.32,1.48
		l-1.12-0.91l-4-3.25l-11.44-9.28l-1.97-1.6l-1.98-1.61l-0.01,0l-2.68-2.18l-19.44-15.78c-1.6-1.13-2.89-2.73-3.64-4.7l-17.15-44.9
		c-2-5.26,0.64-11.16,5.9-13.16c5.26-2,11.15,0.64,13.16,5.9l16.19,42.38L202.29,179.14z"/>
	<path class="st0" d="M200.87,206.66l8.26,6.71l1.96,1.59c0.02,0.74,0.04,1.51,0.06,2.31l23.02,51.06
		c2.69,5.01-1.08,15.51-4.33,19.75l-7.14,10.35l-38.32,55.5c-4.39,6.36-13.11,7.95-19.46,3.56c-6.36-4.39-7.96-13.11-3.57-19.46
		l41-59.39c-9.65-19.41-21.97-41.42-23.88-46.08c-1.62-0.79-3.1-1.84-4.45-3.1c-5.85-5.45-9.24-14.82-11.52-24.16
		c-2.07-8.5-3.22-16.96-4.45-22.41c-2.77-12.32-3.91-21.57-4.32-34.15c-0.44-13.56,6.74-26.33,22.34-26.54
		c12.07-0.16,19.31,8.35,23.14,28.06c1.87,9.61,1.43,13.27,3.52,22.58c0.43,1.9,0.85,3.63,1.25,5.22l-1.02-0.83l-2.77-7.25
		l-13.24-34.65c-1.19-3.12-3.53-5.47-6.37-6.74c-2.83-1.27-6.14-1.46-9.26-0.27c-3.12,1.19-5.47,3.53-6.74,6.37
		c-1.27,2.83-1.46,6.14-0.27,9.26l17.15,44.9c0.43,1.14,1.03,2.18,1.75,3.11c0.74,0.95,1.6,1.78,2.55,2.45L200.87,206.66z"/>
	<path class="st0" d="M235.9,267.49l-22.85-50.67c0-0.1,0-0.19-0.01-0.29l2.9,2.35l39.9,46.78c3.29,3.84,4.13,8.95,2.68,13.43
		l0.01,0l-20.22,61.61c-2.39,7.36-10.3,11.38-17.66,8.99c-7.36-2.39-11.38-10.3-8.99-17.66l8.94-27.23l10.77-15.6
		c1.96-2.55,4.08-7.17,5.06-11.65C237.24,273.87,237.29,270.16,235.9,267.49z"/>
</g>
</svg>
