<?xml version="1.0" encoding="utf-8"?>
<!-- Generator: Adobe Illustrator 25.2.3, SVG Export Plug-In . SVG Version: 6.00 Build 0)  -->
<svg version="1.1" id="Layer_1" xmlns="http://www.w3.org/2000/svg" xmlns:xlink="http://www.w3.org/1999/xlink" x="0px" y="0px"
	 viewBox="0 0 432 432" style="enable-background:new 0 0 432 432;" xml:space="preserve">
<path d="M114.89,202.08c5.95,0,12.81,3.16,20.74,9.52c33.32,26.73,46.52,56.77,57.13,80.91c12.38,28.16,20.55,46.76,52.52,46.76
	c62.33,0,101.02-24.29,101.4-24.53c0.26-0.17,0.54-0.31,0.83-0.43c5.7-2.25,13.81-15.9,12.32-27.23
	c-1.04-7.85-6.71-12.41-16.88-13.57c-21.98-2.5-32.2-7.58-38.97-10.95c-4.54-2.26-6.68-3.25-9.81-3.09
	c-0.85,0.05-3.44,1.35-5.33,2.3c-7.72,3.89-20.65,10.39-37.93,3.8c-19.61-7.48-39.58-29.55-61.06-67.46
	c-49.17-86.77-77.1-102.94-82.44-105.37c-3.37,1.09-12.89,4.77-21.11,13.83c-13.61,15-17.52,37.07-11.62,65.61
	c12.72,61.48,12.72,131.99,12.72,158.53c0,1.12-0.38,2.15-1.03,2.98h12.57c-0.62-0.79-0.99-1.79-1.01-2.87
	c-0.12-6.8-0.88-16.25-1.76-27.18c-1.44-17.9-3.24-40.17-2.63-58.61c0.78-23.38,5.24-36.45,14.04-41.11
	C109.84,202.69,112.28,202.08,114.89,202.08z"/>
</svg>
