<?xml version="1.0" encoding="utf-8"?>
<!-- Generator: Adobe Illustrator 25.2.3, SVG Export Plug-In . SVG Version: 6.00 Build 0)  -->
<svg version="1.1" id="Layer_1" xmlns="http://www.w3.org/2000/svg" xmlns:xlink="http://www.w3.org/1999/xlink" x="0px" y="0px"
	 viewBox="0 0 432 432" style="enable-background:new 0 0 432 432;" xml:space="preserve">
<path d="M72.49,198.44c1.68-25.46,7.68-41.17,16.93-44.5c3.9,1.35,16.07,5.23,32.63,7.38c17.69,2.29,43.76,2.9,69.17-6.73
	c3.8,5.03,13.18,16.57,27.53,28.52c17.35,14.46,45.51,32.19,81.1,34.51c47.19,3.08,57.37,15.37,59.56,20.71
	c-8.5,2.3-32.92,8.13-71.8,11.38c-44.84,3.75-118.32,4.68-214.68-11.95C72.41,231.23,71.39,215.02,72.49,198.44z M353.94,263.13
	c-11.9,2.94-36.42,8.26-66.95,10.93c-43.89,3.84-118.91-5.84-119.67-5.94c-1.15-0.15-2.3,0.2-3.17,0.97
	c-0.87,0.76-1.37,1.87-1.37,3.02c0,1.65-0.66,3.19-1.86,4.32c-1.2,1.14-2.78,1.71-4.42,1.62l-76.88-4.34
	c-3.58-0.2-6.39-3.17-6.39-6.76v-20.97c62.6,10.7,115.59,14.05,157.4,14.05c22.56,0,41.87-0.98,57.67-2.3
	c37.65-3.15,61.73-8.6,71.71-11.22l0.01,8.87C360,259.06,357.51,262.25,353.94,263.13z M187.97,170.03c-3.93,0-7.12,3.19-7.12,7.12
	c0,3.93,3.19,7.12,7.12,7.12c3.93,0,7.12-3.19,7.12-7.12C195.09,173.21,191.9,170.03,187.97,170.03z M209.5,188.64
	c-3.93,0-7.12,3.19-7.12,7.12c0,3.93,3.19,7.12,7.12,7.12c3.93,0,7.12-3.19,7.12-7.12C216.61,191.83,213.43,188.64,209.5,188.64z"/>
</svg>
