<?xml version="1.0" encoding="utf-8"?>
<!-- Generator: Adobe Illustrator 25.2.3, SVG Export Plug-In . SVG Version: 6.00 Build 0)  -->
<svg version="1.1" id="Layer_1" xmlns="http://www.w3.org/2000/svg" xmlns:xlink="http://www.w3.org/1999/xlink" x="0px" y="0px"
	 viewBox="0 0 432 432" style="enable-background:new 0 0 432 432;" xml:space="preserve">
<path d="M157.98,72h22.97c2.19,17.21,16.91,30.56,34.7,30.56c17.79,0,32.51-13.35,34.7-30.56h22.98c0.31,8.17,0.61,27.61-1.95,50.39
	c-2.67,23.7-7.64,43.83-9.65,51.38h-92.16c-2.02-7.66-7.04-28.14-9.66-51.38C157.41,100.09,157.69,80.31,157.98,72z M281.17,357.14
	c-3.1,1.54-5.79,2.86-11.46,2.86c-5.68,0-8.36-1.33-11.46-2.86c-3.58-1.77-7.64-3.78-15.4-3.78c-7.75,0-11.81,2.01-15.39,3.78
	c-3.1,1.54-5.78,2.86-11.46,2.86c-5.68,0-8.36-1.33-11.46-2.86c-3.58-1.77-7.64-3.78-15.39-3.78c-7.75,0-11.81,2.01-15.39,3.78
	c-3.1,1.54-5.78,2.86-11.46,2.86c-5.68,0-8.36-1.33-11.46-2.86c-2.78-1.38-5.86-2.89-10.71-3.5c0.97-10.56,4.61-47.53,11.19-85.65
	c6.52-37.73,15.55-74.38,18.33-85.35h92.74c2.74,10.67,11.5,45.89,18.31,85.35c6.89,39.86,10.3,75.38,11.21,85.65
	C287.03,354.24,283.95,355.76,281.17,357.14z"/>
</svg>
