<?xml version="1.0" encoding="utf-8"?>
<!-- Generator: Adobe Illustrator 25.2.3, SVG Export Plug-In . SVG Version: 6.00 Build 0)  -->
<svg version="1.1" id="Layer_1" xmlns="http://www.w3.org/2000/svg" xmlns:xlink="http://www.w3.org/1999/xlink" x="0px" y="0px"
	 viewBox="0 0 432 432" style="enable-background:new 0 0 432 432;" xml:space="preserve">
<path d="M186,333.17c-7.81,10.42-18.89,16.96-31.21,18.41h0c-19.86,2.34-38.91-9.3-47.39-28.96
	c-12.63-29.26-28.61-71.76-33.05-108.03c-2.73-22.3-3.09-47.85-1.07-75.96c2.18-30.29,24.08-54.23,52.07-56.94
	c0.1-0.01,0.19-0.02,0.29-0.04c6.46-1.02,12.42-1.54,17.88-1.54c14.07,0,24.78,3.4,31.97,10.16c14.63,13.78,13.82,40.88,11.95,60.08
	c-1.76,18.04-2.29,35.84-1.56,52.91c1.15,26.94,4.47,56.79,9.86,88.73C198.2,306.62,194.65,321.63,186,333.17z M170.75,159.5
	c-30.8,1.05-39.05-43.9-39.12-44.35c-0.41-2.39-2.55-4.08-4.98-3.93c-2.42,0.15-4.34,2.09-4.46,4.51
	c-2.01,40.61-34.25,47.45-35.66,47.73c-2.57,0.5-4.26,2.98-3.77,5.56c0.43,2.28,2.43,3.87,4.67,3.87c0.29,0,0.59-0.03,0.89-0.08
	c0.43-0.08,10.56-2.07,20.94-10.08c6.7-5.17,14.43-13.62,18.88-26.88c0.97,2.27,2.07,4.63,3.34,6.98
	c9.51,17.7,23.2,26.75,39.61,26.18c2.63-0.09,4.68-2.29,4.59-4.92C175.58,161.46,173.39,159.4,170.75,159.5z M357.64,214.59
	c-4.44,36.27-20.42,78.77-33.05,108.03c-7.76,17.99-24.36,29.26-42.34,29.26c-1.67,0-3.36-0.1-5.05-0.3
	c-12.31-1.45-23.4-7.99-31.21-18.41c-8.65-11.54-12.2-26.55-9.73-41.18c5.39-31.94,8.71-61.79,9.86-88.73
	c0.73-17.06,0.2-34.86-1.56-52.91c-1.88-19.19-2.68-46.3,11.95-60.08c7.18-6.77,17.9-10.16,31.97-10.16
	c5.46,0,11.42,0.51,17.88,1.54c0.1,0.02,0.19,0.03,0.29,0.04c27.99,2.7,49.89,26.65,52.07,56.94
	C360.73,166.73,360.37,192.29,357.64,214.59z M345.47,163.46c-1.37-0.27-33.65-7.1-35.66-47.73c-0.12-2.42-2.04-4.36-4.46-4.51
	c-2.42-0.16-4.56,1.54-4.98,3.93c-0.08,0.45-8.31,45.42-39.13,44.35c-2.62-0.09-4.83,1.96-4.92,4.59c-0.09,2.63,1.96,4.83,4.59,4.92
	c0.49,0.02,0.97,0.03,1.45,0.03c15.76,0,28.93-9.04,38.16-26.21c1.26-2.35,2.37-4.7,3.34-6.98c4.45,13.25,12.18,21.71,18.88,26.88
	c10.38,8.01,20.51,10,20.94,10.08c0.3,0.06,0.6,0.08,0.89,0.08c2.23,0,4.22-1.58,4.66-3.86
	C349.72,166.45,348.04,163.96,345.47,163.46z"/>
</svg>
