<?xml version="1.0" encoding="utf-8"?>
<!-- Generator: Adobe Illustrator 25.2.3, SVG Export Plug-In . SVG Version: 6.00 Build 0)  -->
<svg version="1.1" id="Layer_1" xmlns="http://www.w3.org/2000/svg" xmlns:xlink="http://www.w3.org/1999/xlink" x="0px" y="0px"
	 viewBox="0 0 432 432" style="enable-background:new 0 0 432 432;" xml:space="preserve">
<path d="M156.64,94.13c9.17,1.86,31.39,5.68,59.6,5.68c28.13,0,50.02-3.79,59.11-5.66l0.42,8.03c-10.37,1.86-33.28,5.33-59.53,5.33
	c-26.65,0-49.89-3.58-60.02-5.42L156.64,94.13z M241.89,337.87l-22.06-192.95c-0.22-1.95-1.87-3.41-3.83-3.41
	c-1.96,0-3.6,1.47-3.83,3.41l-22.06,192.95L144,333.82l11.81-223.96c10.84,1.94,33.73,5.35,60.43,5.35
	c26.31,0,48.91-3.31,59.94-5.27L288,333.82L241.89,337.87z M271.78,139.72c-7.07-0.69-12.05-4.04-14.81-9.96
	c-2.2-4.73-2.2-9.43-2.2-9.5c0.02-2.12-1.67-3.86-3.79-3.9c-2.15-0.04-3.88,1.67-3.91,3.79c0,0.25-0.06,6.26,2.78,12.55
	c2.72,6.02,8.6,13.45,21.18,14.68c0.13,0.01,0.25,0.02,0.38,0.02c1.96,0,3.64-1.49,3.83-3.48
	C275.45,141.81,273.9,139.92,271.78,139.72z M181.34,116.37h-0.05c-2.12,0.02-3.82,1.77-3.81,3.89c0,0.05,0.01,4.75-2.2,9.5
	c-2.76,5.92-7.74,9.27-14.81,9.96c-2.12,0.21-3.67,2.09-3.46,4.21c0.19,1.99,1.87,3.48,3.83,3.48c0.12,0,0.25-0.01,0.38-0.02
	c12.59-1.22,18.47-8.66,21.19-14.68c2.84-6.29,2.78-12.3,2.78-12.55C185.16,118.05,183.44,116.37,181.34,116.37z"/>
</svg>
