<?xml version="1.0" encoding="utf-8"?>
<!-- Generator: Adobe Illustrator 25.2.3, SVG Export Plug-In . SVG Version: 6.00 Build 0)  -->
<svg version="1.1" id="Layer_1" xmlns="http://www.w3.org/2000/svg" xmlns:xlink="http://www.w3.org/1999/xlink" x="0px" y="0px"
	 viewBox="0 0 432 432" style="enable-background:new 0 0 432 432;" xml:space="preserve">
<path d="M103.43,125.06c13.61,2.9,57.49,11.21,113.03,11.21c55.43,0,98.63-8.28,112.12-11.2l3.81,20.08
	c-15.14,2.92-61.68,10.93-115.93,10.93c-55.3,0-102.66-8.34-116.81-11.1L103.43,125.06z M232.85,306.94l-12.63-84.61
	c-0.31-2.09-2.11-3.64-4.23-3.64c-2.12,0-3.91,1.55-4.23,3.64l-12.63,84.61L72,290.82l26.06-137.43
	c14.58,2.84,62.51,11.25,118.4,11.25c54.81,0,101.97-8.09,117.52-11.08L360,290.82L232.85,306.94z M299.9,172.9
	c0.03-2.36-1.85-4.3-4.21-4.33c-0.02,0-0.04,0-0.07,0c-2.33,0-4.24,1.87-4.27,4.21c-0.01,0.44-0.11,10.89,4.87,21.92
	c4.7,10.41,14.88,23.26,36.71,25.38c0.14,0.01,0.28,0.02,0.42,0.02c2.17,0,4.03-1.65,4.25-3.86c0.23-2.35-1.49-4.44-3.84-4.67
	C299.93,208.27,299.89,174.38,299.9,172.9z M135.83,168.56c-2.36,0.04-4.24,1.98-4.21,4.34c0,0.09,0.09,8.97-4.11,18.27
	c-5.48,12.14-15.49,19-29.75,20.39c-2.35,0.23-4.07,2.32-3.84,4.67c0.21,2.21,2.07,3.86,4.25,3.86c0.14,0,0.28-0.01,0.42-0.02
	c21.83-2.12,32.02-14.98,36.72-25.38c4.98-11.02,4.88-21.48,4.87-21.92C140.13,170.41,138.18,168.51,135.83,168.56z"/>
</svg>
