<?xml version="1.0" encoding="utf-8"?>
<!-- Generator: Adobe Illustrator 25.2.3, SVG Export Plug-In . SVG Version: 6.00 Build 0)  -->
<svg version="1.1" id="Layer_1"
  xmlns="http://www.w3.org/2000/svg"
  xmlns:xlink="http://www.w3.org/1999/xlink" x="0px" y="0px" viewBox="0 0 432 432" style="enable-background:new 0 0 432 432;" xml:space="preserve">
  <style type="text/css">
	.st0{fill:#E0E0E0;}
	.st1{fill:#F54F01;}
  </style>
  <g>
    <path class="st0" d="M216.93,184.22c8.96,0,17.22-0.85,23.26-2.4c5.68-1.46,7.54-3.09,7.94-3.69l-7.65-27.37
		c-6.95,3.31-18.41,3.8-24.5,3.8c-7.23,0-14.01-0.68-19.1-1.92c-2.13-0.52-3.87-1.17-5.4-1.9l-7.52,26.88
		C184.45,179.72,195.61,184.22,216.93,184.22z"/>
    <path class="st1" d="M215.96,224.53c25.78,0,40.79-5.35,42.49-9.45l-8.12-29.05c-9.08,5.33-26.73,5.89-33.4,5.89
		c-9.91,0-19.24-0.99-26.28-2.78c-3.69-0.94-6.66-2.1-8.95-3.47l-8.32,29.75C174.47,218.95,189.63,224.53,215.96,224.53z"/>
    <path class="st1" d="M238.35,143.21L223,88.3c-0.88-3.14-3.77-5.34-7.03-5.34c-3.26,0-6.16,2.2-7.04,5.34l-15.45,55.26
		c1.18,0.87,8.82,3.31,22.49,3.31C229.02,146.87,236.55,144.64,238.35,143.21z"/>
    <path class="st1" d="M215.96,309.29c34.95,0,63.4-7.73,64-17.3l-7.34-26.26c-13.24,10.92-48.33,11.6-56.65,11.6
		c-15.5,0-30-1.6-40.82-4.5c-7.06-1.89-12.33-4.29-15.83-7.15l-0.57,2.02c-0.01,0.04-0.02,0.07-0.03,0.1l-6.76,24.18
		C152.56,301.55,181.01,309.29,215.96,309.29z"/>
    <path class="st0" d="M215.96,269.64c31.9,0,53.43-6.85,54.02-13.34l-9.17-32.77c-11.77,8.18-38.51,8.7-44.85,8.7
		c-6.35,0-33.08-0.52-44.85-8.7l-9.17,32.77C162.53,262.79,184.06,269.64,215.96,269.64z"/>
    <path class="st1" d="M287.58,290.68c0.05,0.2,0.02,0.39,0.04,0.59c0.02,0.14,0.08,0.27,0.08,0.42c0,0.09-0.03,0.17-0.03,0.26
		c-0.01,0.18-0.03,0.34-0.07,0.51c-1.09,18.06-39.03,24.52-71.64,24.52c-18.13,0-35.08-1.95-47.72-5.51
		c-15.47-4.34-23.47-10.76-23.94-19.04c-0.03-0.16-0.05-0.31-0.06-0.47c0-0.09-0.03-0.18-0.03-0.27c0-0.15,0.07-0.27,0.08-0.41
		c0.02-0.2-0.01-0.39,0.04-0.59l4.46-15.94l-32.48,18.56l95.6,54.65c2.55,1.45,5.69,1.45,8.22,0l95.53-54.64l-32.57-18.62
		L287.58,290.68z"/>
    <path d="M320.44,287.17l-40.28-23.03L230.4,86.23c-1.81-6.45-7.74-10.96-14.44-10.96c-6.7,0-12.64,4.51-14.44,10.96L151.75,264.2
		l-40.18,22.97c-2.23,1.28-3.56,3.58-3.56,6.14c0,2.57,1.34,4.86,3.56,6.13l96.55,55.18c2.44,1.4,5.19,2.1,7.93,2.1
		c2.74,0,5.48-0.7,7.93-2.1l96.47-55.18c2.23-1.27,3.56-3.56,3.56-6.13C324,290.79,322.64,288.43,320.44,287.17z M208.93,88.3
		c0.88-3.14,3.77-5.34,7.04-5.34c3.26,0,6.16,2.2,7.03,5.34l15.36,54.91c-1.8,1.43-9.33,3.66-22.39,3.66
		c-13.67,0-21.32-2.45-22.49-3.31L208.93,88.3z M191.46,150.75c1.53,0.73,3.27,1.38,5.4,1.9c5.09,1.24,11.87,1.92,19.1,1.92
		c6.09,0,17.55-0.5,24.5-3.8l7.65,27.37c-0.4,0.6-2.26,2.23-7.94,3.69c-6.04,1.55-14.29,2.4-23.26,2.4
		c-21.32,0-32.47-4.5-32.98-6.59L191.46,150.75z M181.7,185.67c2.29,1.37,5.26,2.53,8.95,3.47c7.03,1.8,16.37,2.78,26.28,2.78
		c6.67,0,24.33-0.56,33.4-5.89l8.12,29.05c-1.7,4.11-16.7,9.45-42.49,9.45c-26.33,0-41.49-5.58-42.59-9.11L181.7,185.67z
		 M171.11,223.52c11.77,8.18,38.51,8.7,44.85,8.7c6.34,0,33.08-0.52,44.85-8.7l9.17,32.77c-0.58,6.5-22.11,13.34-54.02,13.34
		c-31.91,0-53.44-6.85-54.02-13.34L171.11,223.52z M158.73,267.81c0.01-0.04,0.02-0.07,0.03-0.1l0.57-2.02
		c3.5,2.87,8.77,5.26,15.83,7.15c10.82,2.9,25.32,4.5,40.82,4.5c8.32,0,43.41-0.68,56.65-11.6l7.34,26.26
		c-0.6,9.57-29.05,17.3-64,17.3c-34.95,0-63.4-7.73-64-17.3L158.73,267.81z M220.15,347.95c-2.53,1.45-5.68,1.45-8.22,0l-95.6-54.65
		l32.48-18.56l-4.46,15.94c-0.06,0.2-0.02,0.39-0.04,0.59c-0.02,0.14-0.08,0.27-0.08,0.41c0,0.09,0.03,0.18,0.03,0.27
		c0.01,0.16,0.03,0.32,0.06,0.47c0.46,8.29,8.46,14.7,23.94,19.04c12.65,3.55,29.59,5.51,47.72,5.51c32.62,0,70.55-6.46,71.64-24.52
		c0.03-0.17,0.06-0.34,0.07-0.51c0-0.09,0.03-0.17,0.03-0.26c0-0.15-0.07-0.28-0.08-0.42c-0.02-0.2,0.01-0.39-0.04-0.59l-4.47-15.99
		l32.57,18.62L220.15,347.95z"/>
  </g>
</svg>
