<?xml version="1.0" encoding="utf-8"?>
<!-- Generator: Adobe Illustrator 25.2.3, SVG Export Plug-In . SVG Version: 6.00 Build 0)  -->
<svg version="1.1" id="Layer_1" xmlns="http://www.w3.org/2000/svg" xmlns:xlink="http://www.w3.org/1999/xlink" x="0px" y="0px"
	 viewBox="0 0 432 432" style="enable-background:new 0 0 432 432;" xml:space="preserve">
<g>
	<path d="M134.17,250.67l7.62,32.37l-4.35,56.77c-0.53,6.88,4.62,12.89,11.51,13.42c0.33,0.02,0.65,0.04,0.97,0.04
		c6.47,0,11.95-4.99,12.45-11.54l4.5-58.7c0.1-1.28,0-2.57-0.3-3.82l-9.29-39.5c-0.01-0.87-0.04-1.8-0.1-2.8
		c-0.35-2.59-0.52-5.25-0.57-7.94l-3.31-0.99c-3.43-1.02-6.04-3.69-6.98-7.14l-10.17-37c-0.73-2.65-0.38-5.43,0.98-7.82
		c1.36-2.39,3.57-4.11,6.22-4.84c0.89-0.25,1.81-0.37,2.73-0.37c4.62,0,8.71,3.11,9.93,7.57l4.58,16.65
		c0.04-0.18,0.07-0.37,0.11-0.55l8.07,11.15c1.51,2.08,3.92,3.31,6.48,3.31c0.12,0,0.25,0,0.37-0.01l36-1.67
		c4.41-0.2,7.83-3.95,7.62-8.36c-0.2-4.41-3.89-7.82-8.36-7.62l-31.68,1.47l-19.61-27.09c-0.91-1.26-2.12-2.17-3.47-2.71
		c-0.94-0.57-1.96-1.02-3.06-1.29c-8.54-2.13-20.91,2.51-25.95,17.15c-6.8,20.17-8.27,33.3-5.68,55.52
		C123.37,244.38,128.42,248.8,134.17,250.67z"/>
	<polygon points="310.11,248.1 314.03,248.1 314.03,242.43 181.69,242.43 181.69,248.1 185.61,248.1 185.61,353.1 310.11,353.1 	"/>
	<path d="M176.69,128.94c-7.49-1.42-16.94-0.3-20.43,0.2c-2.12,2.72-3.64,5.97-4.33,9.6c-2.32,12.21,5.7,23.98,17.91,26.3
		c12.21,2.32,23.98-5.7,26.3-17.91c0.69-3.62,0.46-7.2-0.51-10.52C192.55,134.86,184.17,130.36,176.69,128.94z"/>
	<path d="M156.9,108.92c2.18,1.66,1.76,6.16,0.82,10.18c-0.91,3.88-2.3,7.32-2.3,7.32s0.05-0.01,0.14-0.02
		c1.39-0.23,12.89-2.07,21.68-0.4c8.78,1.67,18.8,7.57,20.03,8.31c0.08,0.05,0.12,0.08,0.12,0.08s-0.04-3.71,0.54-7.65
		c0.6-4.08,1.85-8.42,4.49-9.17c3.27-0.93,11.15-3.05,13.33-7.86c1.19-2.62,0.67-6.05-3.21-10.52c-1.35,0.94-3.96,2.33-7.97,2.72
		c1.26-0.86,3.96-3.26,5.86-4.99c-3.82-3.98-6.89-6.95-9.57-9.21c-1.2,1.23-3.16,2.8-6.18,3.99c0.89-1.07,2.58-3.7,3.89-5.81
		c-4.47-3.35-8-4.61-12.67-5.5c-4.67-0.89-8.41-1-13.8,0.48c0.45,2.45,1.06,5.52,1.49,6.83c-2.38-2.21-3.63-4.39-4.3-5.97
		c-3.32,1.12-7.26,2.76-12.28,5.06c1.13,2.3,2.77,5.53,3.62,6.79c-3.59-1.83-5.51-4.08-6.42-5.45c-5.25,2.74-6.98,5.74-6.84,8.61
		C147.64,102,154.2,106.86,156.9,108.92z"/>
	<path d="M203.8,224.71c0.55,1.02,0.91,2.11,1.09,3.22l4.13-1.98l-3.22-6.71l-4.71,2.26C202.19,222.36,203.11,223.44,203.8,224.71z"
		/>
	<path d="M213.62,229.92c0,0,22.31-8.85,32-29.86l-37.65,18.06L213.62,229.92z"/>
	<path d="M153.78,178.98c-1.17-4.26-5.58-6.76-9.83-5.59c-4.26,1.17-6.77,5.57-5.59,9.83l10.17,37c0.73,2.66,2.78,4.76,5.42,5.55
		l38.5,11.5c0.76,0.23,1.54,0.34,2.29,0.34c3.45,0,6.63-2.24,7.66-5.71c1.26-4.23-1.14-8.69-5.38-9.96l-34.25-10.23L153.78,178.98z"
		/>
	<rect x="205.93" y="237.14" width="67.17" height="2.33"/>
	<path d="M236.59,226.1c-1.78,0-3.23,2.09-3.23,4.67c0,2.58,1.44,4.67,3.23,4.67v0h24.5c2.57,0,4.67-2.1,4.67-4.67
		c0-2.57-2.1-4.67-4.67-4.67L236.59,226.1L236.59,226.1z M234.57,230.76c0-2.04,1.07-3.47,2.03-3.47c0.96,0,2.03,1.42,2.03,3.47
		c0,2.04-1.07,3.47-2.03,3.47C235.63,234.23,234.57,232.81,234.57,230.76z"/>
	<path d="M213.17,233.78c-0.04,0.91,2.12,1.74,4.83,1.86c2.56,0.11,4.67-0.46,4.93-1.29c0.22,0.09,0.43,0.18,0.66,0.26
		c2.56,0.9,4.87,0.93,5.17,0.07c0.09-0.27-0.04-0.59-0.32-0.94c1.81,1.22,3.49,1.72,3.98,1.1c0.56-0.71-0.7-2.65-2.83-4.33
		c-2.13-1.68-4.31-2.46-4.87-1.75c-0.49,0.63,0.43,2.2,2.1,3.71c-0.62-0.35-1.34-0.69-2.14-0.97c-2.56-0.9-4.87-0.93-5.17-0.07
		c-0.11,0.32,0.07,0.71,0.47,1.12c-0.56-0.1-1.18-0.17-1.83-0.2C215.44,232.24,213.21,232.88,213.17,233.78z"/>
</g>
</svg>
