<?xml version="1.0" encoding="utf-8"?>
<!-- Generator: Adobe Illustrator 25.2.3, SVG Export Plug-In . SVG Version: 6.00 Build 0)  -->
<svg version="1.1" id="Layer_1" xmlns="http://www.w3.org/2000/svg" xmlns:xlink="http://www.w3.org/1999/xlink" x="0px" y="0px"
	 viewBox="0 0 432 432" style="enable-background:new 0 0 432 432;" xml:space="preserve">
<g>
	<path d="M251.65,45.77c2.07,0.32,4.15,0.54,6.19,0.98c15.29,3.28,25.8,16.92,25.3,32.76c-0.48,15.09-12.01,27.98-27.17,30.36
		c-17.46,2.75-33.58-8.78-36.77-26.3c-3.1-16.97,8.4-33.66,25.54-37.02c1.83-0.36,3.69-0.53,5.54-0.78
		C250.73,45.77,251.19,45.77,251.65,45.77z"/>
	<path d="M324,377.67c-3.48,1.21-6.97,2.43-10.64,3.7c-1.58-4.22-3.17-8.47-4.83-12.93c3.53-1.31,7.01-2.61,10.61-3.95
		c1.66,4.27,3.26,8.38,4.87,12.49C324,377.21,324,377.44,324,377.67z"/>
	<path d="M184.86,163.2c-1.12,5.06-2.22,10.01-3.32,14.95c-0.41,1.84-0.81,3.67-1.22,5.51c-0.96,4.3-0.19,8.25,2.28,11.9
		c5.9,8.69,11.74,17.41,17.71,26.04c1.18,1.7,1.83,3.48,2.24,5.45c2.4,11.55,4.82,23.1,7.28,34.64c0.18,0.83,0.65,1.71,1.25,2.32
		c5.12,5.22,10.24,10.44,15.48,15.53c1.86,1.8,2.31,3.97,2,6.22c-0.87,6.31-4.17,11.03-9.96,13.82
		c-14.54,7.01-29.09,13.99-43.65,20.95c-9.01,4.31-19.77,0.53-23.98-8.38c-4.29-9.08-0.44-19.7,8.72-23.96
		c9.31-4.33,18.61-8.66,27.94-12.95c1.06-0.49,1.38-0.92,1.02-2.16c-4.11-14.05-8.14-28.12-12.24-42.17
		c-0.19-0.65-0.83-1.37-1.44-1.66c-9.57-4.42-14.1-12.25-15.19-22.36c-0.81-7.49,0.41-14.91,1.19-22.33
		c2.23-21.04,9.59-40.37,19.75-58.75c4.59-8.3,10.83-14.81,19.88-18.22c5.41-2.04,10.97-2.49,16.67-1.29
		c6.89,1.44,11.64,5.51,13.57,12.13c1.83,6.26,2.83,12.76,4.24,19.39c-5.56-0.88-9.98,2.24-15.19,3.22c0.4-1.81,0.75-3.5,1.14-5.19
		c1.94-8.46-2.69-16.27-10.79-18.19c-7.75-1.84-15.66,2.9-17.55,10.65c-1.35,5.54-2.59,11.1-3.71,16.69
		c-0.29,1.45-0.9,1.96-2.28,2.08c-2.34,0.21-4.39,1.19-6.13,2.77c-4.65,4.24-3.34,10.68,2.59,12.8
		C183.63,162.83,184.12,162.97,184.86,163.2z"/>
	<path d="M317.69,360.63c-3.17,1.18-6.26,2.33-9.34,3.47c-0.36,0.13-0.75,0.2-1.29,0.35c-1.44-3.89-2.86-7.72-4.26-11.55
		c-8.73-23.86-17.45-47.72-26.22-71.56c-0.35-0.95-1.03-1.93-1.83-2.54c-5.41-4.11-10.85-8.18-16.38-12.12
		c-1.95-1.39-3.2-3.03-4.01-5.28c-0.85-2.37-1.61-4.55-0.14-6.94c0.28-0.45,0.18-1.23,0.06-1.82c-5.59-26.72-11.2-53.43-16.81-80.14
		c-1.3-6.18-2.6-12.36-3.92-18.65c6.87-3.53,13.61-7.07,20.43-10.42c1.47-0.72,3.26-0.97,4.92-1.06c1.88-0.1,3.52,0.79,4.24,2.62
		c0.72,1.82,0.12,3.52-1.24,4.84c-0.81,0.78-1.78,1.41-2.74,2c-0.96,0.59-2,1.06-3.18,1.67c1.02,2.76,2,5.46,3.01,8.17
		c10.89,29.26,21.78,58.51,32.63,87.78c0.35,0.94,0.4,2.13,0.19,3.12c-1.49,7.02-3.06,14.03-4.69,21.02
		c-0.34,1.45-0.27,2.73,0.24,4.13c9.93,27,19.83,54.01,29.72,81.02C317.3,359.3,317.46,359.9,317.69,360.63z M249.89,156.54
		c-3.53,1.61-6.84,3.11-10.25,4.67c0.9,4.44,1.81,8.83,2.67,13.23c0.52,2.67,1,5.26,2.59,7.66c7.7,11.58,15.24,23.27,22.82,34.93
		c2.52,3.87,5,7.76,7.53,11.62c0.2,0.3,0.65,0.43,0.99,0.65c0.08-0.43,0.2-0.85,0.23-1.28c0.01-0.21-0.13-0.43-0.21-0.64
		c-7.07-19-14.13-37.99-21.2-56.98C253.36,165.81,251.64,161.23,249.89,156.54z M255.57,245.05c1.96,5.27,3.86,10.45,5.82,15.6
		c0.18,0.48,0.69,0.89,1.14,1.22c2.64,1.99,5.3,3.95,7.96,5.92c3.24,2.4,6.49,4.79,9.8,7.24c0.14-0.39,0.23-0.6,0.28-0.81
		c1.59-7.05,3.18-14.1,4.72-21.16c0.13-0.61-0.01-1.35-0.23-1.95c-1.65-4.55-3.34-9.08-5.03-13.61c-0.17-0.46-0.41-0.89-0.61-1.3
		c-2.05,0.4-3.37,1.18-4.33,3.16c-2.51,5.19-8.83,7.53-14.13,5.23C258.94,243.7,257.42,243.99,255.57,245.05z"/>
	<path d="M227.49,246.86c-4.31-0.08-7.53-1.9-9.88-5.36c-8.1-11.94-16.21-23.88-24.31-35.82c-2.6-3.82-5.16-7.66-7.8-11.46
		c-2.14-3.07-2.89-6.37-2.06-10.05c4.1-18.29,8.16-36.58,12.28-54.87c1.15-5.1,5.56-8.71,10.63-8.86
		c5.33-0.16,10.04,2.96,11.38,8.05c0.55,2.06,0.6,4.46,0.15,6.54c-3.47,16.1-7.14,32.15-10.67,48.23c-0.18,0.82,0.04,1.95,0.51,2.65
		c9.56,14.19,19.17,28.35,28.79,42.5c4.98,7.33,1.42,16.58-7.08,18.27C228.76,246.81,228.07,246.81,227.49,246.86z"/>
	<path d="M220.5,302.7c-2.4,8.56-4.73,16.89-7.06,25.22c-4.09,14.65-8.19,29.3-12.28,43.95c-3.46,12.41-17.22,17.69-27.62,10.59
		c-6.17-4.21-9.13-11.94-7.16-19.27c3.47-12.93,7.04-25.83,10.63-38.73c0.17-0.62,0.81-1.11,1.27-1.63c0.14-0.16,0.4-0.21,0.6-0.31
		C192.68,315.95,206.47,309.38,220.5,302.7z"/>
	<path d="M207.06,231.59c2.17,3.2,4.21,6.51,6.56,9.57c2.21,2.89,3.57,6.01,4.05,9.59c0.22,1.63,0.83,3.22,0.96,4.86
		c0.21,2.52,1.49,4.29,3.23,5.97c4.22,4.09,8.35,8.29,12.5,12.46c0.44,0.44,0.73,1.03,1.26,1.79c0.47-0.9,0.71-1.27,0.87-1.67
		c2.48-6.37,4.97-12.74,7.38-19.14c0.3-0.79,0.35-1.77,0.21-2.61c-0.45-2.58-1.05-5.14-1.59-7.7c-0.57-2.72-1.18-5.36-0.56-8.24
		c0.57-2.66-0.06-5.47-1.58-7.71c-1.87-2.76-2.42-5.85-3.08-8.96c-4.57-21.75-9.14-43.5-13.71-65.25c-0.03-0.16-0.1-0.32-0.21-0.69
		c-2.17,0.61-4.32,1.22-6.75,1.91c0.81-3.63,1.54-7.06,2.36-10.47c0.08-0.33,0.61-0.65,0.99-0.78c3.41-1.14,6.78-2.44,10.26-3.25
		c1.72-0.4,3.8-0.27,5.47,0.31c3.02,1.06,3.63,4.33,1.4,6.65c-0.84,0.87-1.99,1.5-3.1,2.03c-1.22,0.59-2.56,0.94-4.06,1.47
		c0.54,2.68,1.07,5.34,1.63,7.99c5.92,28.22,11.84,56.44,17.76,84.67c0.44,2.12,0.8,4.26,1.37,6.35c0.52,1.9,0.32,3.6-0.42,5.43
		c-2.65,6.55-5.18,13.15-7.69,19.75c-0.28,0.74-0.35,1.67-0.2,2.45c5.8,28.48,11.63,56.95,17.46,85.43c0.11,0.55,0.17,1.12,0.29,1.9
		c-3.61,0.77-7.21,1.53-11.04,2.34c-0.63-3.01-1.24-5.94-1.85-8.87c-5.36-26.13-10.71-52.26-16.1-78.38
		c-0.17-0.83-0.65-1.7-1.24-2.31c-5.24-5.34-10.54-10.62-15.8-15.94c-0.5-0.5-1.03-1.14-1.18-1.8c-2.09-9.69-4.11-19.39-6.15-29.08
		C206.84,231.65,206.95,231.62,207.06,231.59z"/>
	<path d="M145.88,308.77c1.15,2.72,2.23,5.27,3.41,8.04c-12.53,6.44-25.28,12.99-38.28,19.68c-0.92-2.45-1.85-4.8-2.63-7.21
		c-0.09-0.27,0.59-0.97,1.04-1.22c7.74-4.14,15.51-8.23,23.27-12.33C137.08,313.42,141.46,311.1,145.88,308.77z"/>
	<path d="M229.64,200.72c-2.49-3.88-5.36-7.58-7.33-11.7c-1.46-3.06-1.76-6.68-2.53-10.06c-0.45-1.97-0.82-3.96-1.22-5.94
		c-0.16-0.02-0.31-0.03-0.47-0.05c-1.57,5.12-3.13,10.24-4.74,15.5c-1.73-2.22-3.44-4.07-2.53-7.41c1.8-6.59,3.09-13.32,4.53-20
		c0.27-1.25,0.74-2.02,2.09-2.23c1.17-0.18,2.3-0.59,3.57-0.93c3.01,14.33,5.99,28.54,8.98,42.74
		C229.87,200.67,229.76,200.7,229.64,200.72z"/>
	<path d="M263.85,383.32c-3.74,0.79-7.29,1.54-11.11,2.35c-0.96-4.55-1.9-9.01-2.87-13.59c3.77-0.79,7.38-1.54,11.14-2.33
		C261.97,374.3,262.9,378.74,263.85,383.32z"/>
	<path d="M185.6,159.92c-2.19-0.25-3.75-1.11-4.43-3c-0.68-1.88,0.11-3.46,1.54-4.73c1.35-1.2,2.92-1.92,5.02-1.97
		C187.01,153.48,186.32,156.61,185.6,159.92z"/>
</g>
</svg>
