<?xml version="1.0" encoding="utf-8"?>
<!-- Generator: Adobe Illustrator 25.2.3, SVG Export Plug-In . SVG Version: 6.00 Build 0)  -->
<svg version="1.1" id="Layer_1" xmlns="http://www.w3.org/2000/svg" xmlns:xlink="http://www.w3.org/1999/xlink" x="0px" y="0px"
	 viewBox="0 0 432 432" style="enable-background:new 0 0 432 432;" xml:space="preserve">
<g>
	<g>
		<ellipse transform="matrix(0.1394 -0.9902 0.9902 0.1394 95.2998 404.1566)" cx="280.17" cy="147.25" rx="22.35" ry="22.35"/>
		<path d="M190.09,178.8l41.65-26.27c10.22-6.49,21.65-3.28,28.02,7.96c1.61,2.84,16.56,44,16.56,44l24.38-0.12
			c5.01,0.12,7.89,2.16,7.9,7.84c0.01,5.81-2.55,8.84-8.24,8.79c0,0-29.28,0.07-31.45,0.07c-5.24,0-14.59-25.32-20.4-36.86
			c-0.87,0.44-41.36,22.94-42.47,26.76c-1.12,3.86,27.72,32.18,27.95,36.43c0.24,4.25-22.57,48.74-22.57,48.74
			c-3.58,6.38-10.02,5.89-14.51,3.26c-4.8-2.81-5.74-8.19-2.36-14.39c0,0,15.01-31.7,15.6-34.16c0.59-2.46-33.51-35.36-33.51-35.36
			C167.11,204.87,169.5,189.95,190.09,178.8z"/>
	</g>
	<g>
		<path d="M150.29,309.62c-23.08,0-41.86-18.78-41.86-41.86s18.78-41.86,41.86-41.86s41.86,18.78,41.86,41.86
			S173.37,309.62,150.29,309.62z M150.29,233.87c-18.69,0-33.89,15.2-33.89,33.89s15.2,33.89,33.89,33.89s33.89-15.2,33.89-33.89
			S168.98,233.87,150.29,233.87z"/>
	</g>
	<g>
		<path d="M282.57,309.62c-23.08,0-41.86-18.78-41.86-41.86s18.78-41.86,41.86-41.86s41.86,18.78,41.86,41.86
			S305.65,309.62,282.57,309.62z M282.57,233.87c-18.69,0-33.89,15.2-33.89,33.89s15.2,33.89,33.89,33.89s33.89-15.2,33.89-33.89
			S301.26,233.87,282.57,233.87z"/>
	</g>
	<g>
		<path d="M306.7,271.75c-2.2,0-3.98-1.78-3.98-3.98c0-11.11-9.04-20.15-20.15-20.15c-2.2,0-3.98-1.78-3.98-3.98
			c0-2.2,1.78-3.98,3.98-3.98c15.5,0,28.12,12.61,28.12,28.12C310.68,269.96,308.9,271.75,306.7,271.75z"/>
	</g>
	<g>
		<path d="M174.42,271.75c-2.2,0-3.98-1.78-3.98-3.98c0-11.11-9.04-20.15-20.15-20.15c-2.2,0-3.98-1.78-3.98-3.98
			c0-2.2,1.78-3.98,3.98-3.98c15.5,0,28.12,12.61,28.12,28.12C178.41,269.96,176.62,271.75,174.42,271.75z"/>
	</g>
</g>
</svg>
