<?xml version="1.0" encoding="utf-8"?>
<!-- Generator: Adobe Illustrator 25.2.3, SVG Export Plug-In . SVG Version: 6.00 Build 0)  -->
<svg version="1.1" id="Layer_1" xmlns="http://www.w3.org/2000/svg" xmlns:xlink="http://www.w3.org/1999/xlink" x="0px" y="0px"
	 viewBox="0 0 432 432" style="enable-background:new 0 0 432 432;" xml:space="preserve">
<g>
	<ellipse transform="matrix(0.7071 -0.7071 0.7071 0.7071 -88.681 286.3034)" cx="301.26" cy="250.2" rx="23.58" ry="23.58"/>
	<g>
		<ellipse transform="matrix(0.5504 -0.8349 0.8349 0.5504 -1.1848 235.3908)" cx="217.96" cy="118.8" rx="29.54" ry="29.54"/>
		<path d="M245.69,276.64c-3.89-5.93-32.17-42.89-32.17-42.89l12.22-48.38l35.54,15.79c0,0,31.08,5.32,33.69,5.67
			c5.54,0.75,12.77,0.39,15.46-9.73c2.83-10.68-10.37-15.25-10.37-15.25l-31.9-6.3l-57.27-23.57c0,0-8.17-4.12-10.93-5.25
			c-9.97-4.11-18.34-2.92-24.37-2.4c-6.59,0.58-43.61,9.81-48.83,14.76c-5.21,4.95-16.87,38.13-16.87,38.13
			c-2.79,6.99,0.14,11.3,7.01,14.35c6.87,3.04,11.26-1.13,13.47-6.12l11.25-25.28l26.07-7.01c0,0-10.94,49.54-11.18,57.85
			c-0.24,8.31-6.33,42.39-9.45,49.82c-3.12,7.42-36.23,39.5-36.37,47.63c-0.14,8.13,6.34,15.79,14.37,14.91
			c8.03-0.87,44.5-47.07,44.5-47.07l19.48-39.54c0,0,26.7,28.13,27.98,33.14c1.28,5.01-7.07,37.36-3.71,46.54
			c2.87,7.83,14.91,10.37,20.45,3.61C240.81,331.46,249.31,282.15,245.69,276.64z"/>
	</g>
	<g>
		<path d="M292.55,342c-2.91,0-5.27-2.36-5.27-5.27v-37.92c0-2.91,2.36-5.27,5.27-5.27c2.91,0,5.27,2.36,5.27,5.27v37.92
			C297.82,339.64,295.46,342,292.55,342z"/>
	</g>
	<g>
		<path d="M313.62,333.57c-2.91,0-5.27-2.36-5.27-5.27v-37.92c0-2.91,2.36-5.27,5.27-5.27c2.91,0,5.27,2.36,5.27,5.27v37.92
			C318.88,331.21,316.53,333.57,313.62,333.57z"/>
	</g>
</g>
</svg>
