<?xml version="1.0" encoding="utf-8"?>
<!-- Generator: Adobe Illustrator 25.2.3, SVG Export Plug-In . SVG Version: 6.00 Build 0)  -->
<svg version="1.1" id="Layer_1" xmlns="http://www.w3.org/2000/svg" xmlns:xlink="http://www.w3.org/1999/xlink" x="0px" y="0px"
	 viewBox="0 0 432 432" style="enable-background:new 0 0 432 432;" xml:space="preserve">
<g>
	<path d="M313.33,166.27c8.71,1.85,17.28-3.71,19.14-12.43c1.85-8.72-3.71-17.3-12.42-19.15c-8.73-1.86-17.3,3.72-19.15,12.44
		C299.04,155.85,304.61,164.42,313.33,166.27z"/>
	<path d="M217.66,226.55c5.41,0,9.81-4.39,9.81-9.81c0-5.42-4.39-9.81-9.81-9.81c-5.42,0-9.81,4.4-9.81,9.81
		C207.84,222.16,212.23,226.55,217.66,226.55z"/>
	<path d="M185.9,211.16c0.68,0,1.35,0.15,1.97,0.42c-0.11-1.55-0.73-3.06-1.91-4.25c0,0,0,0,0,0l0,0l-38.09-37.57
		c-2.98-2.49-6.97-3.61-10.94-2.89l-0.03-0.05l-26.26,5.4l-0.01,0.03c-3.31,0.77-6.25,2.78-8.15,5.69
		c-0.01,0.01-0.02,0.02-0.02,0.03l0,0l-29.09,44.8l0,0l0,0.01c-1.32,1.57-1.75,3.77-0.94,5.65c2.57,5.94,9.36,5.89,12.14,1.62
		c0,0,0,0,0-0.01v0c0,0,26.47-40.89,26.57-41.09c0.17-0.33,0.48-0.58,0.88-0.67c0.72-0.15,1.43,0.31,1.58,1.03
		c0.03,0.15-3.39,67.65-3.39,67.65c0,0.01,0,0.02,0,0.03c0.15,0.72,0.86,1.18,1.58,1.03l8.25-1.75l0.84,11.67l-5.03,19.37
		c-0.92,4.71,2.16,9.26,6.86,10.18c4.71,0.91,9.26-2.16,10.18-6.86l4.31-21.17c0.14-0.67,0.21-1.36,0.21-2.05v-14.83l4.43-0.94
		l8.03,37.78c0.99,4.65,5.43,7.94,10.11,7.09c4.84-0.88,7.96-5.57,6.95-10.35l-8.11-38.14l10.51-2.23c0.72-0.15,1.18-0.86,1.03-1.58
		c0-0.01-0.01-0.02-0.01-0.03l0.02,0c0,0-30.72-60.29-30.75-60.44c-0.15-0.72,0.31-1.43,1.03-1.58c0.63-0.14,1.23,0.22,1.48,0.79
		l15.32,15.05l0,0c0,0,0,0,0,0.01c0.34,0.34,19.08,18.8,19.08,18.8c0,0,0,0,0,0c1.44,1.44,3.37,2.05,5.25,1.9
		c-0.32-0.51-0.56-1.07-0.68-1.68c-0.25-1.28,0.01-2.59,0.73-3.68C182.73,211.98,184.26,211.16,185.9,211.16z"/>
	<path d="M359.67,233.4C359.67,233.4,359.67,233.4,359.67,233.4L359.67,233.4l-16.51-50.8v0l0-0.01c-1.41-4.34-4.83-7.46-8.9-8.67
		l-37.15-8.31c-4.85-1.55-10.36-0.25-13.99,3.78l0,0h0l0,0l-35.74,39.69l0,0c0,0,0,0,0,0c-0.93,1.03-1.48,2.28-1.65,3.56l0.95-0.65
		c0.82-0.55,1.76-0.83,2.73-0.83c1.64,0,3.17,0.81,4.08,2.18c0.73,1.09,0.99,2.39,0.73,3.68c-0.25,1.28-0.99,2.39-2.08,3.12
		l-0.09,0.06c1.92,0.08,3.86-0.63,5.25-2.18c0,0,0,0,0-0.01h0l26.81-29.77l5.97-6.6c0.3-0.41,0.82-0.63,1.35-0.52
		c0.72,0.15,1.18,0.86,1.03,1.58l0.01,0l-22.43,104.47c-1,4.69,2,9.3,6.69,10.3c4.69,1,9.3-2,10.3-6.69l12.71-58.75
		c0.15-0.72,0.86-1.18,1.58-1.03c0.72,0.15,1.18,0.86,1.03,1.58l0.01,25.74c0,1.83,0.11,3.65,0.33,5.47l3.36,26.49
		c0.77,4.73,5.23,7.95,9.96,7.18c4.73-0.77,7.95-5.23,7.18-9.96l-3.46-25.1v-28.19l9.3-43.74c0.15-0.72,0.86-1.18,1.58-1.03
		c0.48,0.1,0.82,0.46,0.97,0.89l15.38,47.17h0l0,0.01c0.45,2.18,2.13,3.93,4.3,4.42C357.2,243.27,361.2,238.11,359.67,233.4z"/>
	<path d="M252.38,214.08c-1.1-1.64-3.31-2.08-4.95-0.98c0,0-22.35,15.08-22.47,15.18h-14.6c-0.12-0.11-22.47-15.18-22.47-15.18
		c-1.64-1.1-3.85-0.66-4.95,0.98c-1.1,1.64-0.66,3.85,0.98,4.95L206,233.9c0.5,0.34,1.06,0.51,1.62,0.57l-0.04,17.24l-9.16-3.55
		c-2.18-0.86-4.62,0.02-5.76,1.99c-0.12,0.2-7.69,13.8-7.69,13.8c-1.26,2.26-0.46,5.11,1.8,6.37c2.25,1.26,5.1,0.46,6.37-1.8
		l5.71-10.16l10.93,4.31c2.1,0.83,4.33,1.26,6.59,1.27l2.3,0.01c2.32,0.01,4.63-0.42,6.79-1.28l10.96-4.34l5.73,10.2
		c1.26,2.25,4.11,3.06,6.37,1.8c2.26-1.26,3.06-4.11,1.8-6.37l-7.67-13.65c-0.69-1.36-2.82-3.19-5.89-2.15l-9.02,3.5l-0.01-17.19
		c0.54-0.06,1.08-0.24,1.56-0.56l22.09-14.87C253.03,217.93,253.47,215.72,252.38,214.08z"/>
	<path d="M96.92,143.8c2.17-0.88,4.42-0.87,6.36-0.15c-0.4,0.73-0.76,1.48-1.05,2.28c-3.04,8.38,1.29,17.64,9.68,20.68
		c8.38,3.03,17.63-1.3,20.67-9.68c3.04-8.38-1.29-17.64-9.67-20.68c-6.4-2.32-13.31-0.33-17.57,4.47
		c-3.42-4.57-9.81-7.33-14.39-3.66c-5.54,4.44-0.43,13.44-0.43,13.44C91.54,145.93,94.94,144.61,96.92,143.8z"/>
</g>
</svg>
