<?xml version="1.0" encoding="utf-8"?>
<!-- Generator: Adobe Illustrator 25.2.3, SVG Export Plug-In . SVG Version: 6.00 Build 0)  -->
<svg version="1.1" id="Layer_1" xmlns="http://www.w3.org/2000/svg" xmlns:xlink="http://www.w3.org/1999/xlink" x="0px" y="0px"
	 viewBox="0 0 432 432" style="enable-background:new 0 0 432 432;" xml:space="preserve">
<g>
	<g>
		<g>
			<g>
				<g>
					<g>
						<path d="M140.9,233.5c13.08-0.24,23.48-11.03,23.23-24.11c-0.24-13.07-11.03-23.47-24.11-23.23
							c-13.06,0.25-23.48,11.04-23.23,24.11C117.02,223.33,127.82,233.73,140.9,233.5z"/>
					</g>
				</g>
			</g>
		</g>
		<g>
			<g>
				<g>
					<g>
						<rect x="110.05" y="235.4" width="211.91" height="18.12"/>
					</g>
				</g>
			</g>
			<g>
				<g>
					<g>
						<g>
							<rect x="315.82" y="190.75" width="8.18" height="121.03"/>
						</g>
					</g>
				</g>
				<g>
					<g>
						<rect x="108" y="154.08" width="8.2" height="157.7"/>
					</g>
				</g>
			</g>
		</g>
	</g>
	<g>
		<g>
			<g>
				<g>
					<path d="M279.71,183l-41.7,41.7l-21.74-21.74l41.7-41.7c5.95-5.96,15.66-5.96,21.62,0C285.62,167.29,285.67,177.04,279.71,183z
						 M238.02,217.57l38.13-38.13c3.99-3.99,3.93-10.55-0.13-14.61c-3.99-3.99-10.49-3.99-14.48,0l-38.13,38.13L238.02,217.57z"/>
				</g>
			</g>
		</g>
		<g>
			<g>
				<polygon points="240.51,220.88 235.5,221.4 232.11,188.49 237.12,187.98 				"/>
			</g>
		</g>
		<g>
			<g>
				<polygon points="253.42,207.97 248.41,208.49 245.02,175.59 250.04,175.07 				"/>
			</g>
		</g>
		<g>
			<g>
				<rect x="259.6" y="162.34" transform="matrix(0.9947 -0.1024 0.1024 0.9947 -16.9387 27.7808)" width="5.04" height="33.08"/>
			</g>
		</g>
	</g>
	<g>
		<path d="M156.2,214.46c0.21-7.84,5.16-12.83,15-12.83h48.58l18.23,20.02c-0.25,7.77-5.72,11.86-13.84,11.86c0,0-49.63,0-49.89,0
			h-0.01C152.52,232.84,156.1,218.6,156.2,214.46z"/>
	</g>
	<g>
		<path d="M249.82,126.13c0,2.18,1.76,3.94,3.94,3.94c2.17,0,3.93-1.76,3.93-3.94c0-2.18-1.76-3.94-3.93-3.94
			C251.58,122.19,249.82,123.95,249.82,126.13z"/>
	</g>
	<g>
		<path d="M296.83,126.13c0,2.18,1.76,3.94,3.94,3.94c2.17,0,3.93-1.76,3.93-3.94c0-2.18-1.76-3.94-3.93-3.94
			C298.59,122.19,296.83,123.95,296.83,126.13z"/>
	</g>
	<g>
		<path d="M251.79,174.94h-3.93v-48.81c0-3.26,2.65-5.91,5.91-5.91h47.01c3.26,0,5.91,2.65,5.91,5.91v32.98h-3.94v-32.98
			c0-1.09-0.88-1.97-1.97-1.97h-47.01c-1.09,0-1.97,0.88-1.97,1.97V174.94z"/>
	</g>
	<g>
		<rect x="295.83" y="155.29" width="17.75" height="24.69"/>
	</g>
</g>
</svg>
