<?xml version="1.0" encoding="utf-8"?>
<!-- Generator: Adobe Illustrator 25.2.3, SVG Export Plug-In . SVG Version: 6.00 Build 0)  -->
<svg version="1.1" id="Layer_1"
  xmlns="http://www.w3.org/2000/svg"
  xmlns:xlink="http://www.w3.org/1999/xlink" x="0px" y="0px" viewBox="0 0 432 432" style="enable-background:new 0 0 432 432;" xml:space="preserve">
  <style type="text/css">
	.st0{fill:#FFFFFF00;}
  </style>
  <g>
    <path class="st0" d="M108,139.01c0-17.22,0-34.44,0-51.68c71.98,0,143.96,0,216,0c0,85.77,0,171.55,0,257.33
		c-41.58,0-83.16,0-124.74,0c0.09-1.18,0.27-2.36,0.27-3.54c0.02-20.44,0.01-40.87,0.01-61.31c0-1.14,0-2.28,0-3.66
		c3.6,0,6.69,0,9.82,0c0.2-1.08,0.35-1.93,0.47-2.58c4.13-0.21,5.46,2.19,6.45,5.65c4.61,16.18,9.47,32.3,14.23,48.44
		c2.78,9.42,11.45,14.45,20.36,11.83c8.9-2.63,13.44-11.53,10.67-20.99c-2.9-9.92-5.84-19.83-8.76-29.75
		c-0.29-1-0.51-2.02-0.82-3.29c1.11,0.27,1.81,0.45,2.51,0.61c5.88,1.36,11.14,0.09,15.42-4.18c1.33-1.33,2.33-1.54,4-0.96
		c11.24,3.83,22.52,7.58,33.79,11.34c1,0.33,2.03,0.56,3.19,0.88c0.86-2.62,1.61-4.93,2.41-7.36c-1.14-0.42-1.97-0.75-2.83-1.04
		c-11.18-3.73-22.36-7.47-33.56-11.14c-1.57-0.51-2.3-1.12-2.28-3c0.06-7.8-4.36-13.58-11.9-15.83c-6.49-1.93-12.97-3.87-19.5-5.62
		c-1.88-0.5-2.93-1.33-3.58-3.19c-1.79-5.21-4.93-9.36-10.64-10.44c-5.36-1.01-10.82-1.49-16.52-2.24c0.21,0.88,0.33,1.38,0.45,1.89
		c1.46,6.48-0.86,12.47-6.12,15.76c-5.37,3.36-11.88,2.83-17.05-1.58c-9.4-8.01-17.78-16.93-23.95-27.71
		c-7.28-12.73-10.45-26.28-7.75-40.91c1.63-8.84,5.06-16.98,9.75-24.61c1.34-2.18,2.45-4.56,4.11-6.46
		c4.63-5.32,12.66-6.1,18.45-2.05c6.06,4.24,7.87,11.93,4.27,18.79c-1.53,2.91-3.41,5.64-5,8.52c-7.36,13.39-4.46,28.62,6.91,40.88
		c0.15-0.49,0.33-0.91,0.4-1.35c2.57-14.97,5.17-29.93,7.67-44.91c1.37-8.21,3.04-16.41,1.85-24.82
		c-0.93-6.55-4.01-11.69-10.72-13.09c-4.46-0.93-9.36-1.2-13.81-0.41c-10.91,1.94-19.18,8.63-25.57,17.28
		c-18.32,24.82-23.12,52.53-16.08,82.29c3.03,12.8,9.34,23.81,20.7,31.29c0.07,0.04-0.02,0.31-0.02,0.38c-8.78,0-17.55,0-26.55,0
		c2.26-42.68-2.47-84.67-9.07-126.62C119.3,136.96,113.65,137.99,108,139.01z M159.08,190.69c0.82,4.94,1.19,10.02,2.54,14.81
		c5.1,18.11,16.89,31.56,31.09,43.16c2.69,2.2,6.07,2.49,9.42,1.68c4.48-1.09,7.42-4.01,8.54-8.42c1.17-4.61-0.17-8.57-3.63-11.97
		c-5.01-4.93-10.13-9.81-14.64-15.18c-4.88-5.81-8.07-12.62-9.08-20.28c-1.2-9.11,1.75-17.12,6.49-24.68
		c1.3-2.08,2.64-4.21,3.5-6.49c2.21-5.86-0.5-12.23-6.03-14.77c-5.69-2.61-12.28-0.42-15.38,5.09c-1.26,2.23-2.59,4.42-3.82,6.66
		C162.89,169.74,159.59,179.71,159.08,190.69z M230.11,88.33c-15.88,0.01-28.37,12.51-28.38,28.4c0,15.84,12.54,28.4,28.38,28.42
		c15.96,0.02,28.53-12.58,28.52-28.57C258.62,100.8,246.03,88.33,230.11,88.33z M274.46,295.55c-0.06,1.05-0.15,1.85-0.15,2.66
		c-0.01,11.63,0.07,23.27-0.06,34.9c-0.03,2.53,1.03,3.23,3.21,3.2c2.1-0.02,2.99-0.83,2.96-3.15c-0.14-8.52-0.05-17.04-0.05-25.56
		c0-1.05,0-2.1,0-3.16c11.71,0,22.92,0,34.36,0c0,1.19,0,2.18,0,3.17c0,8.52-0.01,17.04,0,25.56c0,2.6,0.86,3.37,3.48,3.11
		c0.8-0.08,1.57-0.38,2.36-0.58c0-13.43,0-26.74,0-40.15C305.16,295.55,289.98,295.55,274.46,295.55z M273.99,205.67
		c-0.13-0.03-0.25-0.05-0.38-0.08c-0.14,1.82-0.29,3.63-0.42,5.45c-0.13,1.92-0.4,3.84-0.33,5.75c0.22,6.01-1.1,11.1-7.22,13.81
		c-0.61,0.27-1.12,1.62-1.04,2.4c0.41,4.28,1,8.54,1.55,12.8c0.18,1.37,0.39,2.74,0.59,4.12c0.27-0.03,0.54-0.05,0.8-0.08
		c0-2.92,0.15-5.85-0.03-8.76c-0.33-5.42,0.84-9.78,6.72-11.67c0.73-0.23,1.53-1.81,1.47-2.71
		C275.23,219.69,274.58,212.68,273.99,205.67z M303.82,212.18c-0.18-0.08-0.37-0.17-0.55-0.25c-3.05,4.88-6.04,9.79-9.19,14.6
		c-0.57,0.88-1.8,1.97-2.65,1.91c-6.58-0.47-9.75,2.88-10.91,8.96c-0.3,1.59-1.12,3.08-1.69,4.62c-0.54,1.46-1.06,2.93-1.59,4.39
		c2.01-2.28,3.8-4.65,4.92-7.3c2.13-5.07,5.45-7.63,11.12-6.67c0.7,0.12,1.98-0.4,2.23-0.96
		C298.36,225.08,301.07,218.62,303.82,212.18z M320.88,229.02c-0.19-0.15-0.37-0.3-0.56-0.45c-2.81,2.48-5.81,4.78-8.37,7.5
		c-3.47,3.69-7.2,5.65-12.27,3.66c-0.57-0.23-1.28-0.25-1.9-0.19c-0.49,0.05-1.12,0.23-1.39,0.58c-3.66,4.74-7.26,9.52-10.88,14.29
		c4.1-3.14,7.79-6.66,11.63-10.01c0.73-0.64,2.29-1.16,3.03-0.81c5.43,2.53,9.25,0.94,12.13-4.07c0.86-1.49,2.17-2.71,3.27-4.06
		C317.35,233.32,319.11,231.17,320.88,229.02z"/>
    <path d="M108,139.01c5.65-1.03,11.3-2.05,17.33-3.15c6.6,41.94,11.33,83.94,9.07,126.62c9,0,17.77,0,26.55,0
		c0.01-0.08,0.09-0.34,0.02-0.38c-11.36-7.48-17.68-18.49-20.7-31.29c-7.04-29.76-2.23-57.48,16.08-82.29
		c6.39-8.65,14.65-15.34,25.57-17.28c4.46-0.79,9.35-0.52,13.81,0.41c6.7,1.4,9.79,6.54,10.72,13.09
		c1.19,8.41-0.48,16.61-1.85,24.82c-2.5,14.98-5.1,29.94-7.67,44.91c-0.07,0.44-0.25,0.85-0.4,1.35
		c-11.37-12.26-14.27-27.49-6.91-40.88c1.59-2.89,3.47-5.61,5-8.52c3.6-6.85,1.8-14.54-4.27-18.79c-5.8-4.06-13.82-3.28-18.45,2.05
		c-1.66,1.9-2.77,4.28-4.11,6.46c-4.69,7.63-8.12,15.77-9.75,24.61c-2.7,14.63,0.47,28.18,7.75,40.91
		c6.17,10.79,14.55,19.71,23.95,27.71c5.18,4.41,11.68,4.94,17.05,1.58c5.26-3.29,7.58-9.28,6.12-15.76c-0.11-0.5-0.24-1-0.45-1.89
		c5.7,0.75,11.16,1.23,16.52,2.24c5.71,1.07,8.85,5.23,10.64,10.44c0.64,1.86,1.69,2.69,3.58,3.19c6.53,1.75,13.02,3.69,19.5,5.62
		c7.55,2.25,11.97,8.02,11.9,15.83c-0.01,1.88,0.72,2.49,2.28,3c11.2,3.67,22.38,7.41,33.56,11.14c0.85,0.28,1.69,0.62,2.83,1.04
		c-0.8,2.44-1.55,4.75-2.41,7.36c-1.16-0.32-2.19-0.54-3.19-0.88c-11.27-3.76-22.54-7.5-33.79-11.34c-1.68-0.57-2.67-0.36-4,0.96
		c-4.28,4.27-9.53,5.53-15.42,4.18c-0.7-0.16-1.4-0.34-2.51-0.61c0.31,1.27,0.53,2.29,0.82,3.29c2.91,9.92,5.85,19.83,8.76,29.75
		c2.77,9.46-1.77,18.36-10.67,20.99c-8.91,2.63-17.58-2.41-20.36-11.83c-4.77-16.14-9.62-32.25-14.23-48.44
		c-0.99-3.46-2.32-5.86-6.45-5.65c-0.12,0.65-0.28,1.5-0.47,2.58c-3.13,0-6.22,0-9.82,0c0,1.38,0,2.52,0,3.66
		c0,20.44,0,40.87-0.01,61.31c0,1.18-0.17,2.36-0.27,3.54c-4.76,0-9.53,0-14.29,0c0-9.31,0-18.62,0-27.99c-18.71,0-37.07,0-55.58,0
		c-0.54,3.83-1.02,7.54-1.6,11.24c-0.88,5.59-1.83,11.16-2.74,16.74c-0.18,0-0.37,0-0.55,0c-0.47-0.2-0.92-0.48-1.41-0.59
		c-5.02-1.1-10.05-2.18-15.08-3.26c0-0.18,0-0.37,0-0.55c0.19-0.59,0.45-1.17,0.55-1.77c3.6-23.24,6.61-46.56,8.05-70.05
		c1.19-19.3,1.45-38.62-0.18-57.89c-1.54-18.22-3.72-36.4-5.78-54.58c-0.6-5.32-1.75-10.58-2.65-15.86
		C108,139.75,108,139.38,108,139.01z M130.36,309.83c18.34,0,36.4,0,54.47,0c0-11.23,0-22.27,0-33.62c-1.21,0-2.28,0-3.35,0
		c-13.82,0-27.64,0-41.46,0c-6.26,0-6.26,0-6.85,6.1c-0.04,0.46-0.12,0.91-0.16,1.36C132.12,292.31,131.25,300.95,130.36,309.83z"/>
    <path class="st0" d="M125.04,344.66c0.92-5.58,1.87-11.16,2.74-16.74c0.58-3.7,1.06-7.41,1.6-11.24c18.5,0,36.87,0,55.58,0
		c0,9.37,0,18.68,0,27.99C164.99,344.66,145.02,344.66,125.04,344.66z"/>
    <path class="st0" d="M108,140.11c0.9,5.29,2.04,10.54,2.65,15.86c2.06,18.18,4.23,36.35,5.78,54.58
		c1.63,19.26,1.36,38.59,0.18,57.89c-1.44,23.49-4.45,46.81-8.05,70.05c-0.09,0.6-0.36,1.18-0.55,1.77
		C108,273.55,108,206.83,108,140.11z"/>
    <path class="st0" d="M108,340.81c5.03,1.08,10.06,2.16,15.08,3.26c0.49,0.11,0.94,0.39,1.41,0.59c-5.5,0-11,0-16.49,0
		C108,343.38,108,342.1,108,340.81z"/>
    <path d="M159.08,190.69c0.51-10.98,3.8-20.96,8.98-30.4c1.23-2.24,2.56-4.43,3.82-6.66c3.11-5.51,9.69-7.7,15.38-5.09
		c5.53,2.54,8.24,8.91,6.03,14.77c-0.86,2.28-2.19,4.41-3.5,6.49c-4.74,7.56-7.69,15.57-6.49,24.68c1.01,7.66,4.2,14.47,9.08,20.28
		c4.52,5.37,9.63,10.25,14.64,15.18c3.46,3.4,4.8,7.37,3.63,11.97c-1.12,4.41-4.06,7.33-8.54,8.42c-3.35,0.82-6.72,0.52-9.42-1.68
		c-14.2-11.6-25.98-25.05-31.09-43.16C160.27,200.71,159.9,195.64,159.08,190.69z"/>
    <path d="M230.11,88.33c15.92-0.01,28.52,12.47,28.53,28.25c0.01,15.99-12.56,28.59-28.52,28.57
		c-15.84-0.02-28.39-12.58-28.38-28.42C201.73,100.84,214.23,88.34,230.11,88.33z"/>
    <path d="M274.46,295.55c15.52,0,30.7,0,46.09,0c0,13.41,0,26.72,0,40.15c-0.79,0.2-1.57,0.5-2.36,0.58
		c-2.62,0.27-3.47-0.51-3.48-3.11c-0.01-8.52,0-17.04,0-25.56c0-0.99,0-1.98,0-3.17c-11.44,0-22.65,0-34.36,0c0,1.06,0,2.11,0,3.16
		c0,8.52-0.08,17.04,0.05,25.56c0.04,2.32-0.86,3.13-2.96,3.15c-2.18,0.02-3.24-0.68-3.21-3.2c0.13-11.63,0.06-23.27,0.06-34.9
		C274.31,297.41,274.4,296.6,274.46,295.55z"/>
    <path d="M273.99,205.67c0.59,7.01,1.24,14.01,1.69,21.03c0.06,0.9-0.74,2.47-1.47,2.71c-5.87,1.89-7.05,6.25-6.72,11.67
		c0.18,2.91,0.03,5.84,0.03,8.76c-0.27,0.03-0.54,0.05-0.8,0.08c-0.2-1.37-0.41-2.74-0.59-4.12c-0.54-4.26-1.14-8.52-1.55-12.8
		c-0.07-0.79,0.44-2.13,1.04-2.4c6.13-2.72,7.44-7.81,7.22-13.81c-0.07-1.91,0.2-3.83,0.33-5.75c0.13-1.82,0.28-3.63,0.42-5.45
		C273.73,205.62,273.86,205.65,273.99,205.67z"/>
    <path d="M303.82,212.18c-2.75,6.44-5.46,12.89-8.31,19.28c-0.25,0.56-1.54,1.08-2.23,0.96c-5.67-0.96-8.99,1.6-11.12,6.67
		c-1.12,2.65-2.91,5.02-4.92,7.3c0.53-1.46,1.05-2.93,1.59-4.39c0.57-1.54,1.39-3.03,1.69-4.62c1.16-6.07,4.33-9.43,10.91-8.96
		c0.85,0.06,2.08-1.03,2.65-1.91c3.15-4.81,6.14-9.72,9.19-14.6C303.46,212.01,303.64,212.1,303.82,212.18z"/>
    <path d="M320.88,229.02c-1.77,2.15-3.54,4.3-5.31,6.45c-1.1,1.34-2.42,2.57-3.27,4.06c-2.88,5.01-6.7,6.6-12.13,4.07
		c-0.75-0.35-2.3,0.17-3.03,0.81c-3.84,3.35-7.53,6.86-11.63,10.01c3.62-4.77,7.23-9.55,10.88-14.29c0.27-0.35,0.91-0.53,1.39-0.58
		c0.63-0.06,1.33-0.04,1.9,0.19c5.07,1.99,8.8,0.02,12.27-3.66c2.56-2.72,5.56-5.01,8.37-7.5
		C320.51,228.72,320.7,228.87,320.88,229.02z"/>
    <path class="st0" d="M130.36,309.83c0.9-8.88,1.77-17.52,2.64-26.16c0.05-0.46,0.12-0.91,0.16-1.36c0.59-6.1,0.59-6.1,6.85-6.1
		c13.82,0,27.64,0,41.46,0c1.07,0,2.14,0,3.35,0c0,11.35,0,22.39,0,33.62C166.75,309.83,148.69,309.83,130.36,309.83z"/>
  </g>
</svg>
