<?xml version="1.0" encoding="utf-8"?>
<!-- Generator: Adobe Illustrator 25.2.3, SVG Export Plug-In . SVG Version: 6.00 Build 0)  -->
<svg version="1.1" id="Layer_1" xmlns="http://www.w3.org/2000/svg" xmlns:xlink="http://www.w3.org/1999/xlink" x="0px" y="0px"
	 viewBox="0 0 432 432" style="enable-background:new 0 0 432 432;" xml:space="preserve">
<style type="text/css">
	.st0{fill:#231F20;}
	.st1{fill:#FFFFFF;}
</style>
<g>
	<g>
		<path class="st0" d="M151.19,76.57c0,0-5.22,35.83,4.84,50.94c10.71,16.09,37.98,25.75,44.74,27.14
			c8.96,1.92,14.5-19.93,6.71-21.56c-11.5-2.4-27.82-11.18-33.02-19.19c-4.34-6.68,0.88-39.67,0.88-39.67
			c-0.42-7.59-4.79-12.61-13.37-11.56C153.4,63.74,152.15,69.63,151.19,76.57z"/>
		<path class="st1" d="M201.89,155.52c-0.42,0-0.85-0.05-1.28-0.14c-7.99-1.64-34.65-11.6-45.21-27.45
			c-10.08-15.15-5.18-49.91-4.95-51.46c1.05-7.56,2.55-13.43,11.42-14.53c4.12-0.51,7.45,0.29,9.93,2.37
			c2.56,2.14,4.03,5.56,4.27,9.89c-0.06,0.48-5.14,32.94-1,39.31c5.2,8,21.47,16.55,32.55,18.86c1.79,0.37,3.1,1.67,3.78,3.75
			c1.52,4.64-0.43,12.56-4.08,16.62C205.67,154.57,203.82,155.52,201.89,155.52z M164.18,63.28c-0.68,0-1.38,0.05-2.12,0.14
			c-7.84,0.97-9.14,6.1-10.13,13.25v0.01c-0.05,0.36-5.06,35.72,4.72,50.42c10.3,15.47,36.43,25.21,44.27,26.82
			c2.32,0.49,4.15-0.91,5.3-2.18c3.35-3.72,5.15-10.95,3.78-15.16c-0.51-1.57-1.41-2.49-2.67-2.75
			c-11.37-2.37-28.11-11.21-33.5-19.51c-4.44-6.84,0.56-38.84,0.77-40.2c-0.22-3.75-1.51-6.8-3.75-8.67
			C169.13,64.01,166.89,63.28,164.18,63.28z"/>
	</g>
	<g>
		<g>
			<path class="st1" d="M298.97,128.2c-1.17-6.22,11.75-13.75,13.17-19.29c2.21-8.59-7.53-11.36-7.53-11.36l-190.62-38.6
				c0,0-5.06-0.64-3.89-3.91c1.08-3.01,5.05-1.02,5.05-1.02l191.04,38.4l0.02-0.06c0,0,1.32,0.34,2.95,0.74l4.56,1.05
				c2.66,0.54,8.35,6.67,9.12,12.72c0.77,6.05-2.71,19.83-7.08,22.46C311.39,131.96,300.14,134.42,298.97,128.2z"/>
			<path class="st0" d="M305.41,133.58c-1.64,0-3.18-0.24-4.46-0.81c-1.89-0.85-3.08-2.33-3.45-4.3l0,0
				c-0.81-4.33,3.39-8.58,7.46-12.69c2.57-2.59,5.23-5.28,5.73-7.25c1.81-7.06-6.16-9.45-6.5-9.55L113.69,60.41
				c-0.25-0.03-3.45-0.49-4.74-2.58c-0.42-0.68-0.8-1.8-0.26-3.3c0.4-1.13,1.16-1.94,2.18-2.35c1.87-0.75,4.05,0.1,4.74,0.41
				L305.2,90.7l0.02-0.07l1.36,0.29c0.01,0,1.31,0.34,2.94,0.74l4.54,1.04c3.34,0.67,9.42,7.36,10.26,13.99
				c0.81,6.4-2.8,20.92-7.79,23.92C314,132.13,309.43,133.58,305.41,133.58z M300.44,127.92c0.19,1,0.74,1.68,1.73,2.13
				c3.27,1.47,9.88-0.23,12.82-1.99c3.62-2.18,7.11-15.08,6.36-20.99c-0.71-5.63-6.05-11.07-7.93-11.45l-4.6-1.06
				c-0.94-0.23-1.78-0.44-2.33-0.58l-0.61-0.09L114.66,55.44l-0.18-0.09c-0.51-0.25-1.8-0.67-2.5-0.4
				c-0.16,0.06-0.34,0.18-0.48,0.58c-0.17,0.47-0.06,0.65,0,0.73c0.38,0.63,1.82,1.09,2.68,1.2l190.73,38.62
				c3.96,1.12,10.71,5.28,8.68,13.19c-0.71,2.76-3.52,5.6-6.5,8.61C303.73,121.28,299.92,125.13,300.44,127.92L300.44,127.92z"/>
		</g>
		<polygon class="st0" points="305.39,97.53 306.66,92.41 305.27,92.07 304,97.19 		"/>
		<polygon class="st0" points="302.56,96.85 303.82,91.77 302.43,91.43 301.17,96.51 		"/>
	</g>
	<path class="st0" d="M199.21,84.07c-1.81,17.33,10.76,32.86,28.09,34.68c17.34,1.82,32.87-10.76,34.69-28.09
		c1.82-17.34-10.76-32.86-28.1-34.68C216.56,54.16,201.05,66.74,199.21,84.07z"/>
	<path class="st0" d="M201.73,254.29l64.67-7.67c-4.31-25.39-13.45-22.65-16.4-54.21c-2.34-25.13,2.45-42.62-0.37-57.64
		c-3.37-17.95-51.88-3.94-56.05,7.9C184.49,168.54,201.73,254.29,201.73,254.29z"/>
	<path class="st0" d="M273.06,364.3c2.78,8.97,9.94,10.64,17.42,8.33l0,0c7.5-2.32,12.47-7.74,9.7-16.71
		c0,0-19.89-45.09-24.26-59.81c-4.37-14.73-5.84-38.79-9.83-50.49c-3.99-11.7-11.09-14.37-18.58-12.05l0,0
		c-7.48,2.31-11.31,11.46-8.54,20.43c0,0,7.8,41.44,11.2,51.97C253.58,316.49,273.06,364.3,273.06,364.3z"/>
	<path class="st0" d="M205.43,368.06c0.34,9.39,6.83,12.87,14.66,12.59l0,0c7.83-0.28,14.04-4.23,13.7-13.61l-4.17-115.37
		c-0.34-9.39-6.97-16.76-14.8-16.47l0,0c-7.83,0.28-13.9,8.11-13.56,17.5L205.43,368.06z"/>
	<g>
		<path class="st0" d="M153.83,80.4c0,0,5.18,57.41,19.64,68.38c10.42,7.9,52.55,16.46,59.14,14.43c8.78-2.63,7.41-18.22-0.03-21.04
			c-9.32-3.53-39.15-6.74-46.54-12.79c-7.09-5.79-10.9-56.88-10.9-56.88c0-8.62-4.07-13.17-11.97-11.26
			C154.77,63.27,153.3,73.46,153.83,80.4z"/>
		<path class="st1" d="M229.66,164.24c-12.06,0-47.25-7.74-56.65-14.87c-14.55-11.04-19.72-66.55-19.93-68.91l0-0.01
			c-0.64-8.33,1.63-17.94,9.91-19.94c3.73-0.9,6.76-0.47,8.99,1.29c2.55,2.01,3.9,5.71,3.9,10.69c1.05,14.07,5.01,51.72,10.62,56.3
			c4.47,3.65,17.64,6.29,29.26,8.61c6.95,1.39,13.51,2.7,17.07,4.05c4.54,1.72,6.75,7.56,6.58,12.44c-0.18,5.09-2.65,8.83-6.6,10.02
			C232.12,164.14,231.04,164.24,229.66,164.24z M154.57,80.34c0.07,0.78,5.35,57.23,19.35,67.85c9.91,7.52,52.01,16.29,58.47,14.31
			c3.31-0.99,5.38-4.23,5.54-8.64c0.15-4.35-1.73-9.52-5.61-10.99c-3.45-1.31-9.95-2.61-16.84-3.99
			c-11.79-2.36-25.16-5.03-29.91-8.92c-7.25-5.93-11.01-55.3-11.17-57.4c0-4.57-1.15-7.86-3.34-9.57c-1.86-1.46-4.45-1.81-7.72-1.01
			C155.98,63.75,153.98,72.62,154.57,80.34z"/>
	</g>
</g>
</svg>
