<?xml version="1.0" encoding="utf-8"?>
<!-- Generator: Adobe Illustrator 25.2.3, SVG Export Plug-In . SVG Version: 6.00 Build 0)  -->
<svg fill="red" version="1.1" id="Layer_1"
  xmlns="http://www.w3.org/2000/svg"
  xmlns:xlink="http://www.w3.org/1999/xlink" x="0px" y="0px" viewBox="0 0 432 432" style="enable-background:new 0 0 432 432;" xml:space="preserve">
  <path d="M216.14,345.65c-0.07,0-0.14,0-0.21,0c-0.25-0.28-0.48-0.59-0.77-0.82c-4.14-3.28-8.3-6.54-12.44-9.82
	c-12.01-9.51-24.08-18.93-35.99-28.56c-17.74-14.34-34.16-30.08-49.25-47.19c-8.99-10.2-17.25-20.97-24.43-32.53
	c-6-9.66-11.09-19.78-14.69-30.59c-3.67-11.01-6.05-22.28-6.34-33.92c-0.15-5.94,0.33-11.83,1.67-17.63
	c1.93-8.36,5.27-16.15,9.62-23.51c5.89-9.94,13.6-18.16,23.61-24.01c14.68-8.58,30.58-11.89,47.5-10.34
	c7.25,0.67,14.22,2.54,20.88,5.47c16.02,7.06,27.92,18.54,36.06,33.94c1.55,2.94,2.75,6.06,4.11,9.1c0.16,0.36,0.33,0.72,0.52,1.12
	c0.14-0.15,0.21-0.19,0.23-0.25c0.47-1.07,0.97-2.13,1.41-3.21c3.61-8.83,8.84-16.63,15.22-23.67c8.27-9.12,18.22-15.69,30.01-19.37
	c10.61-3.32,21.47-4.1,32.49-2.94c7.39,0.78,14.5,2.65,21.25,5.72c19.02,8.67,31.97,22.97,39.11,42.54
	c2.35,6.45,3.8,13.13,4.11,20.01c0.01,0.23,0.11,0.47,0.17,0.7c0,3.55,0,7.09,0,10.64c-0.06,0.3-0.15,0.6-0.18,0.91
	c-0.25,2.43-0.37,4.88-0.74,7.29c-1.4,9.25-3.9,18.21-7.28,26.92c-4.74,12.23-11.17,23.55-18.71,34.24
	c-10.23,14.49-21.82,27.84-34.3,40.42c-11.83,11.92-24.36,23.06-37.49,33.52c-14.7,11.71-29.49,23.3-44.24,34.95
	C216.73,345.05,216.45,345.36,216.14,345.65z"/>
</svg>
