<?xml version="1.0" encoding="utf-8"?>
<!-- Generator: Adobe Illustrator 25.2.3, SVG Export Plug-In . SVG Version: 6.00 Build 0)  -->
<svg version="1.1" id="Layer_1" xmlns="http://www.w3.org/2000/svg" xmlns:xlink="http://www.w3.org/1999/xlink" x="0px" y="0px"
	 viewBox="0 0 432 432" style="enable-background:new 0 0 432 432;" xml:space="preserve">
<style type="text/css">
	.st0{fill-rule:evenodd;clip-rule:evenodd;}
</style>
<path class="st0" d="M288.3,79.91l-34.47,72.4l11.08,1.32l-39.15,78.3l21.56-2.34l-33.25,77.29c0,0,28.37-7.23,62.83-9.78
	l-4.17,44.1h33.85l-3.66-44.91c20.54,0.2,41.38,2.95,58.36,10.28L331,230.93l15.66-1.32l-38.43-79.53l12.4,2.85L288.3,79.91z"/>
<path class="st0" d="M93.91,207c4.27,0.51,10.98,1.93,20.13,5.4c5.19,1.93,3.66,3.36,2.85,6.41l-0.1,0.11
	c-0.1,0.5-0.31,1.01-0.51,1.52c-4.17,13.54-7.73,27.39-11.39,41.24c-0.92,2.34-2.24,3.06-4.68,3.26c-3.35,0.3-8.03,0-11.29-0.92
	c-1.22-0.41-2.34-0.92-3.36-1.53c-2.85-1.73-4.57-4.48-5.08-8.14c0-9.98,2.85-18.23,8.54-24.74c-3.76,0.41-5.08-1.13-3.97-4.38
	c1.53-6.21,2.64-10.59,3.25-13.24C89.23,208.42,89.23,206.49,93.91,207L93.91,207z M177.48,224.51L177.48,224.51
	c1.32,0.1,2.24,1.12,2.24,2.44L179,240.6h-4.57l0.61-13.85C175.14,225.43,176.26,224.41,177.48,224.51L177.48,224.51z
	 M178.29,253.53l-4.78,95.52c0,1.22-1.12,2.24-2.34,2.24l0,0c-1.32-0.1-2.24-1.23-2.24-2.44l4.78-94.7L178.29,253.53z
	 M143.62,177.77c8.95,0,16.17,7.13,16.17,16.09c0,8.86-7.22,16.08-16.17,16.08c-8.84,0-16.06-7.23-16.06-16.08
	C127.56,184.9,134.78,177.77,143.62,177.77L143.62,177.77z M107.22,263.2c4.17-16.08,8.03-30.14,11.69-42.05
	c2.64-8.75,10.78-15.07,18.91-8.75c3.56,2.75,8.03,11.3,10.98,15.68c6.3,9.37,9.46,14.05,9.46,14.05c16.06,0,24.1,0,24.1,0
	c2.24,0.51,3.76,2.55,3.76,4.79c0,2.24-1.63,4.18-3.86,4.69c-17.49,2.14-26.33,3.15-26.33,3.15c-3.46,0.1-6.61-1.83-9.56-5.91
	c-4.37-5.5-6.61-8.25-6.61-8.25c-4.37,18.84-6.2,27.59-5.49,26.48c5.69,8.86,10.07,15.48,12.91,19.96
	c5.7,8.65,6.61,10.79,7.52,21.99c0.61,18.23,1.02,29.63,1.12,34.42c0.21,4.18-1.93,7.23-6.61,7.33c-4.27,0.11-6.71-2.64-7.22-6.62
	c-1.63-12.93-2.85-22.71-3.66-29.13c-0.92-7.83,0.1-8.75-4.88-14.66c-3.05-3.57-7.12-7.44-10.27-10.59l0,0
	c-2.74-2.65-5.08-4.79-7.12-6.62C108.85,276.75,105.8,274,107.22,263.2L107.22,263.2z M120.95,291.11
	c-11.9,21.69-22.27,37.37-35.08,57.64c-2.24,3.36-6.2,3.26-9.35,1.01c-3.05-2.14-4.17-5.8-2.34-9.16
	c14.74-26.99,22.67-41.35,30.7-69.86c0.51,6.32,3.76,9.17,9.66,14.47C116.37,286.83,118.51,288.77,120.95,291.11L120.95,291.11z"/>
</svg>
