<?xml version="1.0" encoding="utf-8"?>
<!-- Generator: Adobe Illustrator 25.2.3, SVG Export Plug-In . SVG Version: 6.00 Build 0)  -->
<svg version="1.1" id="Layer_1" xmlns="http://www.w3.org/2000/svg" xmlns:xlink="http://www.w3.org/1999/xlink" x="0px" y="0px"
	 viewBox="0 0 360 288" style="enable-background:new 0 0 360 288;" xml:space="preserve">
<g>
	<g>
		<path d="M309.69,182.91c-0.1-0.25-3.97,1.08-4.07,0.84c-0.1-0.25,1.76-1.33,1.65-1.58c-0.09-0.21-1.68,0.25-2.21,0.23
			c-1.16,0.24-2.6,0.51-2.59,0.67c0.02,0.27,1.74,0.41,1.75,0.68c0.02,0.27-1.25,0.6-1.24,0.86c0.01,0.16,1.74,0.23,3.17,0.32
			C307.6,184.15,309.76,183.07,309.69,182.91z"/>
		<path d="M305.31,178c-0.03-0.27-1.59-2.7-1.63-2.97c0.12,0.24-1.33,3.91-1.21,4.15c0.03,0.05,0.25,0,0.57-0.09
			c0,0-0.01-0.01-0.01-0.01C303.02,178.81,305.35,178.27,305.31,178z"/>
		<path d="M306.47,181.97c-0.02-0.27-0.25-0.53-0.27-0.8c-0.01-0.14-1.22-0.17-2.38-0.2c-0.09,0.09-0.15,0.17-0.13,0.21
			c0.11,0.24,0.69,0.24,0.8,0.49c0.11,0.24,0.29,0.43,0.4,0.68c0.02,0.03,0.08,0.05,0.17,0.05
			C305.84,182.23,306.48,182.08,306.47,181.97z"/>
		<path d="M287.63,204.89c-0.03-0.21-1.13-0.28-1.58-0.44c0,0,0,0.01,0,0.02c0.13,0.23-0.12,0.58,0,0.82
			c0.04,0.09,0.12,0.15,0.21,0.2C286.94,205.26,287.64,205.03,287.63,204.89z"/>
		<path d="M305.61,179.52c-0.07,0.07-0.16,0.16-0.28,0.26c0.23-0.07,0.37-0.14,0.36-0.19C305.69,179.57,305.65,179.55,305.61,179.52
			z"/>
		<path d="M289.19,210.43c-0.16,0.1-0.26,0.17-0.25,0.21c0.01,0.03,0.07,0.05,0.16,0.05c0.23-0.06,0.38-0.11,0.38-0.15
			C289.48,210.51,289.37,210.47,289.19,210.43z"/>
		<path d="M301.77,180.78c0.01,0.13,1.01,0.16,2.05,0.19c0.29-0.3,1.04-0.81,1.5-1.19C304.35,180.09,301.75,180.57,301.77,180.78z"
			/>
		<path d="M288.19,205.94c-0.11-0.25-1.45,0.11-1.56-0.12c-0.07-0.15-0.23-0.23-0.38-0.33c-0.64,0.21-1.25,0.42-1.24,0.55
			c0.03,0.27-1.32,0.68-1.29,0.94c0.03,0.27,3.54,0.15,3.57,0.42c0.01,0.11,0.07,0.23,0.13,0.34c-0.02-0.21,0.03-0.43-0.05-0.62
			C287.28,206.87,288.29,206.18,288.19,205.94z"/>
		<path d="M307.03,177.81c-0.09-0.19-2.78,0.92-3.98,1.28c0.08,0.23,2.14,0.25,2.56,0.44c0.07-0.07,0.11-0.14,0.09-0.17
			C305.59,179.11,307.15,178.05,307.03,177.81z"/>
		<path d="M292.87,208.52c-0.09-0.25-0.51-0.43-0.6-0.68c-0.09-0.25-3.65,0.74-3.74,0.49c-0.08-0.21-0.7-0.19-0.96-0.32
			c0.03,0.06,0.05,0.13,0.06,0.19c0.02,0.27,1.21,0.45,1.23,0.72c0.02,0.27-3.19,0.79-3.18,1.06c0.02,0.23,2.63,0.29,3.51,0.46
			C290.06,209.91,292.94,208.73,292.87,208.52z"/>
		<path d="M286.68,203.79c-0.43,0.2-0.85,0.4-0.83,0.53c0.01,0.05,0.09,0.09,0.2,0.13C286.03,204.36,286.31,204.1,286.68,203.79z"/>
		<path d="M287.47,207.91c0.02,0.04,0.05,0.07,0.1,0.09c-0.04-0.09-0.09-0.17-0.14-0.26C287.44,207.8,287.44,207.86,287.47,207.91z"
			/>
		<path d="M26.98,248.54c0.06,0,0.11-0.07,0.15-0.19c-0.14-0.02-0.28-0.04-0.42-0.05C26.78,248.43,26.86,248.54,26.98,248.54z"/>
		<path d="M26.17,247.42c-0.41,0-1.17-2.06-1.46-1.78c-0.28,0.27,0.52,1.06,0.52,1.45c0,0.39-0.31,0.39-0.31,0.79
			c0,0.21,0.92,0.31,1.79,0.41C26.54,247.96,26.46,247.42,26.17,247.42z"/>
		<path d="M308.01,185.17c0-0.11-0.85-0.18-1.84-0.24c-0.72,0.39-1.25,0.71-1.22,0.79c0.09,0.22,1.85-0.24,2.28-0.16
			C307.64,185.42,308.01,185.28,308.01,185.17z"/>
		<path d="M285.28,203.28c0.04,0.05,0.27-0.01,0.58-0.14c-0.18,0-0.35,0.01-0.53,0.01C285.29,203.21,285.27,203.26,285.28,203.28z"
			/>
		<path d="M288.6,202.06c-0.11-0.17-1.81,0.7-2.74,1.08c0.68-0.01,1.31-0.02,1.56,0.04C288.06,202.66,288.66,202.16,288.6,202.06z"
			/>
		<path d="M284.57,201.97c-0.08,0.11-0.13,0.2-0.09,0.25c0.02,0.02,0.1,0,0.22-0.06c0.02-0.03,0.03-0.06,0.02-0.09
			C284.71,202.03,284.65,202,284.57,201.97z"/>
		<path d="M288.69,199.78c-0.15-0.19-3.14,1.97-4,2.38c-0.13,0.27-0.93,0.64-0.89,0.88c0.02,0.12,0.73,0.12,1.53,0.1
			C285.77,202.52,288.83,199.97,288.69,199.78z"/>
		<path d="M285.65,200.65c0.05,0.26-2.85,0.72-2.8,0.98c0.04,0.22,1.29,0.2,1.71,0.34C284.88,201.56,285.8,200.79,285.65,200.65z"/>
		<path d="M287.54,203.24c0-0.03-0.05-0.04-0.12-0.06c-0.26,0.21-0.52,0.42-0.75,0.61C287.12,203.58,287.56,203.37,287.54,203.24z"
			/>
		<path d="M337.42,254.11c0-0.39-2.08-0.39-2.08-0.79c0-0.39-3.76-0.39-3.76-0.79s0.89-0.39,0.89-0.79c0-0.4,2.32-0.4,2.32-0.79
			s1.5-0.4,1.5-0.79c0-0.4-2.05,0.73-2.42,0.58c-1.5-0.6-2.52-1.81-2.51-2.21c0-0.4,2.56-0.25,2.56-0.76c0-0.22,0.44-0.48,0.44-0.79
			c0-0.24-0.54-0.49-0.55-0.78c0-0.25,0.09-0.51,0.09-0.79c-0.01-0.25,0.31-0.52,0.3-0.8c-0.01-0.25,1.05-0.57,1.04-0.85
			c-0.01-0.26-0.37-0.51-0.38-0.78c-0.02-0.26,1.88-0.67,1.87-0.94c-0.02-0.26-1.38-0.43-1.41-0.7c-0.02-0.26-1.22-0.42-1.24-0.69
			c-0.02-0.26,1.11-0.64,1.08-0.91c-0.03-0.26-0.1-0.53-0.13-0.79c-0.03-0.26-3.8-0.07-3.84-0.33c-0.03-0.26,3.2-0.93,3.16-1.2
			c-0.04-0.26-2.85-0.13-2.89-0.39c-0.04-0.26,3.47-1.04,3.43-1.31c-0.04-0.26-2.92-0.07-2.96-0.33c-0.04-0.26,1.84-0.83,1.79-1.09
			c-0.04-0.26-1.76-0.21-1.81-0.48c-0.05-0.26-1.91-0.15-1.96-0.41c-0.05-0.26,2.13-0.94,2.08-1.2c-0.05-0.26-0.72-0.38-0.77-0.63
			c-0.05-0.26,3.35-1.27,3.29-1.53c-0.06-0.26-3.02,0.15-3.08-0.11c-0.06-0.25,0.52-0.66,0.46-0.92c-0.06-0.26,0.99-0.8,0.93-1.06
			c-0.06-0.25-2.12,0.01-2.19-0.25c-0.07-0.25,1.32-0.91,1.25-1.16c-0.07-0.25-2.01,0.03-2.08-0.23c-0.07-0.25,1.65-1.03,1.57-1.29
			c-0.08-0.25,1.61-1.07,1.53-1.32c-0.08-0.25-3.72,0.64-3.81,0.38c-0.08-0.25,3.3-1.66,3.21-1.91c-0.09-0.25-0.55-0.39-0.64-0.64
			c-0.09-0.25-0.44-0.42-0.54-0.67c-0.09-0.25-3.74,0.83-3.83,0.58c-0.09-0.25-0.06-0.51-0.15-0.76c-0.1-0.25,3.24-1.86,3.14-2.11
			c-0.1-0.24-3.45,0.86-3.55,0.61c-0.01-0.01,0-0.03,0-0.05c-0.27,0.17-0.61,0.35-0.61,0.51c0,0.27-4.84,0.56-4.84,0.83
			c0,0.27,0.5,0.5,0.5,0.77c0,0.27,0.66,0.52,0.65,0.78c-0.01,0.27-0.17,0.51-0.18,0.77c-0.01,0.27,4.38,0.7,4.37,0.97
			c-0.01,0.27-0.3,0.54-0.31,0.81c-0.02,0.27-2.1,0.42-2.12,0.68c-0.02,0.27,2.88,0.76,2.86,1.03c-0.02,0.27-0.28,0.55-0.3,0.81
			c-0.02,0.27-3.66,0.19-3.69,0.45c-0.03,0.27,3.42,0.92,3.39,1.18c-0.03,0.27-4.04,0.05-4.08,0.31c-0.03,0.27-0.99,0.38-1.02,0.64
			c-0.04,0.26,0.29,0.55,0.25,0.81c-0.04,0.26-0.14,0.49-0.18,0.75c-0.04,0.26,2.9,1.04,2.85,1.3c-0.05,0.26,1.34,0.81,1.29,1.07
			c-0.05,0.26-3.88-0.24-3.94,0.02c-0.05,0.26,2.12,1,2.07,1.25c-0.06,0.26,1.01,0.8,0.95,1.05c-0.06,0.26-0.66,0.41-0.73,0.66
			c-0.07,0.26-0.02,0.57-0.09,0.82c-0.07,0.26-3.88-0.53-3.95-0.28c-0.01,0.03,0.02,0.07,0.07,0.12c-0.88-0.19-3.58-0.31-3.59-0.54
			c-0.01-0.26,2.06-0.61,2.05-0.88c-0.01-0.26-3.77-0.35-3.78-0.62c-0.01-0.26,3.81-0.71,3.8-0.98c-0.01-0.26-1.15-0.47-1.16-0.73
			c-0.01-0.26-0.66-0.49-0.68-0.75c-0.02-0.26-1.05-0.46-1.07-0.72c-0.02-0.26-0.18-0.51-0.2-0.78c-0.02-0.26-0.58-0.48-0.6-0.74
			c-0.02-0.26,0.51-0.56,0.5-0.83c-0.02-0.26,0.79-0.58,0.77-0.85c-0.02-0.26,2.18-0.71,2.16-0.98c-0.02-0.26-2.75-0.29-2.78-0.56
			c-0.02-0.26,0.01-0.53-0.02-0.79c-0.02-0.26,0.05-0.53,0.03-0.8c-0.03-0.26,2.73-0.8,2.7-1.07c-0.03-0.26-0.36-0.5-0.38-0.76
			c-0.03-0.26,1.22-0.67,1.19-0.94c-0.03-0.26-1.71-0.35-1.74-0.61c-0.03-0.26-3.33-0.14-3.36-0.41c-0.03-0.26,4.08-1.03,4.05-1.29
			c-0.03-0.26,0.29-0.58,0.26-0.84c-0.03-0.26-3.39-0.09-3.42-0.36c-0.03-0.26,3.73-1.04,3.69-1.3c-0.04-0.26,0.35-0.6,0.31-0.86
			c-0.04-0.26-1.22-0.37-1.26-0.63c-0.04-0.26-3.18-0.06-3.21-0.33c-0.04-0.26,3.35-1.05,3.31-1.31c-0.04-0.26-3.7,0.05-3.74-0.21
			c-0.04-0.26,2.86-1.01,2.82-1.27c-0.04-0.26-0.96-0.38-1.01-0.64c-0.04-0.26-0.24-0.5-0.29-0.76c-0.05-0.26-2.68-0.06-2.73-0.32
			c-0.05-0.26,3.94-1.27,3.89-1.53c-0.05-0.26-0.5-0.45-0.55-0.71c-0.05-0.26-3.64,0.17-3.69-0.1c-0.05-0.26-1.1-0.31-1.15-0.57
			c-0.05-0.26,2.5-1.04,2.44-1.31c-0.05-0.26-1.43-0.24-1.49-0.5c-0.05-0.26,3.2-1.24,3.14-1.5c-0.06-0.26-4.13,0.37-4.19,0.11
			c-0.06-0.26,2.43-1.09,2.37-1.35c-0.06-0.26-1.77-0.13-1.83-0.39c-0.06-0.26-0.97-0.3-1.03-0.56c-0.06-0.26-0.43-0.42-0.5-0.68
			c-0.06-0.26,1.47-0.91,1.41-1.17c-0.07-0.26-0.89-0.31-0.96-0.57c-0.07-0.26,0.17-0.58,0.1-0.84c-0.07-0.26,0.51-0.68,0.43-0.94
			c-0.07-0.26,2.36-1.21,2.28-1.47c-0.07-0.26,0.77-0.79,0.7-1.04c-0.07-0.26-5.2,0.97-5.28,0.71c-0.08-0.26,1.21-0.91,1.13-1.16
			c-0.08-0.26,3.4-1.61,3.32-1.87c-0.08-0.25-2.83,0.33-2.91,0.07c-0.08-0.25,2.87-1.5,2.79-1.75c-0.08-0.25-3.88,0.71-3.97,0.46
			c-0.08-0.25-0.64-0.34-0.73-0.59c-0.09-0.25,0.24-0.64,0.15-0.89c-0.09-0.25-0.91-0.23-1-0.48c-0.09-0.25,4.03-2.04,3.94-2.29
			c-0.09-0.25-1.36-0.08-1.46-0.33c-0.09-0.25,0.97-0.96,0.88-1.21c-0.1-0.25-3.42,0.75-3.51,0.51c-0.01-0.03-0.05-0.04-0.11-0.05
			c-0.52,0.18-1.12,0.35-1.11,0.5c0.01,0.27,0.29,0.53,0.3,0.8c0.01,0.27,1.37,0.51,1.37,0.78c0.01,0.27-1.54,0.58-1.54,0.85
			c0,0.27,1.34,0.53,1.35,0.79c0,0.27-4.58,0.57-4.58,0.83c0,0.27,4.16,0.53,4.16,0.8c0,0.27-1.07,0.54-1.07,0.81
			c0,0.27,1.82,0.57,1.82,0.84c0,0.27-1.11,0.53-1.12,0.79c-0.01,0.27-3.93,0.44-3.93,0.71c-0.01,0.27,5.29,0.7,5.28,0.96
			c-0.01,0.27-0.28,0.54-0.29,0.81c-0.01,0.27-2.05,0.46-2.07,0.73c-0.01,0.27,0.38,0.56,0.37,0.83c-0.01,0.27,0.68,0.58,0.66,0.85
			c-0.01,0.27-0.83,0.5-0.85,0.76c-0.02,0.27-0.99,0.48-1.01,0.75c-0.02,0.27-1.63,0.42-1.65,0.69c-0.02,0.27,1.17,0.62,1.15,0.89
			c-0.02,0.27,0.72,0.59,0.7,0.86c-0.02,0.27,1.56,0.67,1.53,0.94c-0.02,0.27-1.86,0.38-1.88,0.65c-0.02,0.27-2.74,0.28-2.77,0.55
			c-0.03,0.27,4.22,0.94,4.2,1.21c-0.03,0.27-2.65,0.28-2.68,0.54c-0.03,0.27,0.71,0.61,0.69,0.88c-0.03,0.27,0.41,0.59,0.38,0.85
			c-0.03,0.27-3.32,0.16-3.35,0.42c-0.03,0.27,3.21,0.92,3.17,1.18c-0.03,0.27-1.51,0.36-1.54,0.62c-0.03,0.27-0.36,0.49-0.39,0.76
			c-0.03,0.27,4.15,1.09,4.11,1.35c-0.04,0.27-5.67-0.22-5.71,0.05c-0.04,0.27,5.18,1.26,5.14,1.52c-0.04,0.27-3.28,0.08-3.32,0.34
			c-0.04,0.27-1.92,0.26-1.96,0.52c-0.04,0.27,4.85,1.27,4.81,1.54c-0.04,0.27-0.32,0.5-0.36,0.77c-0.04,0.27-0.87,0.41-0.91,0.68
			c-0.04,0.27-0.75,0.43-0.79,0.69c-0.04,0.27-1.14,0.36-1.19,0.62c-0.04,0.27-1.98,0.21-2.03,0.47c-0.05,0.27,4.16,1.26,4.11,1.53
			c-0.05,0.27-2,0.2-2.05,0.46c-0.05,0.27-1.56,0.26-1.61,0.53c-0.05,0.26,0.94,0.72,0.89,0.98c-0.05,0.27,0.71,0.68,0.66,0.94
			c-0.05,0.26-3.44-0.11-3.49,0.15c-0.05,0.27,5.69,1.65,5.64,1.91c-0.05,0.27-5.29-0.49-5.34-0.23c-0.05,0.27,3.21,1.19,3.15,1.45
			c-0.05,0.26,1.22,0.8,1.17,1.06c-0.05,0.26-3.34-0.14-3.39,0.12c-0.05,0.26,3.11,1.21,3.05,1.46c-0.06,0.26-1.91,0.15-1.97,0.41
			c-0.06,0.26,0.48,0.66,0.43,0.92c-0.06,0.26,0.54,0.68,0.49,0.93c-0.06,0.26-3.85-0.31-3.91-0.05c-0.06,0.26-0.11,0.52-0.17,0.78
			c-0.06,0.26,1.24,0.83,1.18,1.09c-0.06,0.26-0.36,0.47-0.42,0.72c-0.06,0.26,0.23,0.61,0.17,0.86c-0.06,0.26,0.57,0.69,0.5,0.95
			c-0.06,0.27,0.75,0.74,0.68,1c-0.07,0.27-1.8,0.11-1.87,0.37c-0.07,0.27,3.15,1.35,3.09,1.61c-0.07,0.26-3.8-0.41-3.86-0.15
			c-0.07,0.27,2.94,1.32,2.87,1.57c-0.07,0.27-4.52-0.62-4.58-0.37c-0.07,0.27,4.33,1.71,4.27,1.96c-0.07,0.27-3.71-0.43-3.78-0.18
			c-0.05,0.18-0.22,0.33-0.34,0.48c-0.21-0.07-0.37-0.14-0.38-0.22c-0.02-0.25,0.71-0.59,0.69-0.86c-0.02-0.26-3.18-0.22-3.21-0.5
			c-0.02-0.26,3.23-0.83,3.21-1.11c-0.03-0.26-1.26-0.4-1.29-0.67c-0.03-0.26,1.87-0.72,1.84-0.99c-0.03-0.26-1.38-0.38-1.41-0.65
			c-0.03-0.26-0.27-0.5-0.3-0.76c-0.03-0.26,2.29-0.79,2.25-1.06c-0.03-0.26-3.32-0.14-3.35-0.41c-0.03-0.26-1.06-0.4-1.09-0.67
			c-0.03-0.26,1.48-0.71,1.44-0.97c-0.03-0.26-1.8-0.3-1.84-0.57c-0.03-0.26,0.94-0.65,0.9-0.91c-0.03-0.26,2.57-0.88,2.54-1.14
			c-0.04-0.26,1.86-0.8,1.82-1.06c-0.04-0.26-2.94-0.13-2.98-0.39c-0.04-0.26-1.98-0.24-2.02-0.51c-0.04-0.26,3.38-1.04,3.34-1.3
			c-0.04-0.26-3.24-0.04-3.29-0.31c-0.04-0.26,1.73-0.8,1.68-1.07c-0.04-0.26,1.95-0.86,1.91-1.12c-0.04-0.26-4.9,0.27-4.94,0.01
			c-0.04-0.26,3.97-1.21,3.93-1.47c-0.04-0.26-0.75-0.42-0.8-0.68c-0.05-0.26-1.42-0.29-1.47-0.55c-0.05-0.26,3.23-1.15,3.19-1.41
			c-0.05-0.26-3.07,0.03-3.12-0.23c-0.05-0.26,1.85-0.91,1.8-1.17c-0.05-0.26-1.54-0.24-1.59-0.5c-0.05-0.26,1.69-0.91,1.63-1.17
			c-0.06-0.26-2.55-0.01-2.61-0.27c-0.06-0.26,0.36-0.63,0.3-0.89c-0.06-0.26,0.5-0.67,0.44-0.93c-0.06-0.26-1.44-0.21-1.5-0.47
			c-0.06-0.26-1.09-0.28-1.16-0.53c-0.07-0.26-1.33-0.19-1.4-0.45c-0.07-0.26,1.4-0.91,1.33-1.17c-0.07-0.26,1.87-1.07,1.8-1.33
			c-0.07-0.26,1.14-0.9,1.07-1.16c-0.07-0.26-1.08-0.26-1.16-0.51c-0.07-0.23-2.39,0.25-3.03,0.21c-1.2,0.29-4.88,0.71-4.87,0.94
			c0.01,0.27-0.14,0.52-0.13,0.79c0.01,0.27,3.09,0.43,3.09,0.7c0.01,0.27,0.92,0.53,0.93,0.8c0,0.27,0.59,0.55,0.59,0.82
			c0,0.27-3.17,0.55-3.17,0.82c0,0.27,0.22,0.53,0.22,0.8c0,0.27,2.29,0.58,2.28,0.85c-0.01,0.27-0.81,0.53-0.82,0.79
			c-0.01,0.27,2.02,0.63,2.01,0.9c-0.01,0.27-0.77,0.52-0.78,0.79c-0.01,0.27-4.67,0.27-4.69,0.54c-0.02,0.27,3.21,0.74,3.19,1.01
			c-0.02,0.27-2.53,0.34-2.55,0.61c-0.02,0.27-0.62,0.47-0.64,0.73c-0.02,0.27,3.92,0.9,3.89,1.17c-0.03,0.27-1.32,0.41-1.35,0.68
			c-0.03,0.27,2.94,0.88,2.91,1.15c-0.03,0.27-1.48,0.39-1.51,0.65c-0.03,0.27,0.17,0.58,0.14,0.84c-0.04,0.27-2.66,0.18-2.7,0.44
			c-0.04,0.27,2.77,0.96,2.73,1.22c-0.04,0.27-2.28,0.2-2.33,0.46c-0.04,0.27,1.07,0.73,1.03,0.99c-0.04,0.27,0.84,0.71,0.79,0.97
			c-0.05,0.27-4.45-0.27-4.5-0.01c-0.05,0.27,5.16,1.54,5.11,1.8c-0.05,0.27-5.34-0.52-5.39-0.26c-0.05,0.27-0.01,0.53-0.06,0.79
			c-0.06,0.27,1.72,0.92,1.66,1.17c-0.06,0.27,2.61,1.16,2.55,1.41c-0.06,0.27-0.6,0.43-0.66,0.69c-0.06,0.27,1.09,0.85,1.03,1.11
			c-0.07,0.27-3.39-0.29-3.46-0.03c-0.07,0.26,1.11,0.86,1.04,1.11c-0.07,0.27-3.77-0.48-3.84-0.22c-0.07,0.26-0.19,0.49-0.26,0.74
			c-0.08,0.26,1.24,0.91,1.17,1.16c-0.08,0.27,2.53,1.34,2.45,1.58c-0.08,0.27-3.37-0.49-3.45-0.24c-0.09,0.27-1.16,0.17-1.24,0.41
			c-0.09,0.27,0.22,0.62,0.14,0.86c-0.09,0.28,0.75,0.83,0.67,1.05c-0.11,0.29,0.92,0.94,0.84,1.15c-0.18,0.48,1.06,2.71,0.68,2.81
			c-0.38,0.11-0.94-3.13-1.34-3.13c-0.4,0-0.4,2.36-0.8,2.36c-0.4,0-0.4,0.95-0.8,0.95s-0.4-2.2-0.8-2.2c-0.4,0-0.4,2.56-0.8,2.56
			c-0.4,0-0.4-0.68-0.8-0.68c-0.4,0-0.4-4.55-0.8-4.55c-0.4,0-0.4,4.43-0.8,4.43c-0.4,0-0.4,0.22-0.8,0.22c-0.4,0-0.4-1.01-0.8-1.01
			c-0.4,0-0.4-2.01-0.8-2.01c-0.4,0-0.4,3.74-0.8,3.74c-0.4,0-0.4-3.26-0.8-3.26c-0.4,0-0.4,2.25-0.8,2.25c-0.4,0-0.4-0.24-0.8-0.24
			c-0.4,0-0.4-3.64-0.8-3.64c-0.4,0-0.4,5.09-0.8,5.09c-0.4,0-0.4,0.09-0.8,0.09c-0.4,0-0.4,0.12-0.8,0.12c-0.4,0-0.4-5.42-0.8-5.42
			c-0.4,0-0.4,4.92-0.8,4.92c-0.4,0-0.4-1.1-0.8-1.1c-0.4,0-0.4,0.38-0.8,0.38c-0.4,0-0.4-1.56-0.8-1.56c-0.4,0-0.4,2.38-0.8,2.38
			c-0.4,0-0.4-0.32-0.8-0.32c-0.4,0-0.4,0.43-0.8,0.43c-0.4,0-0.4-2.01-0.8-2.01c-0.4,0-0.4-0.32-0.8-0.32c-0.4,0-0.4-1.45-0.8-1.45
			c-0.4,0-0.4,0.45-0.8,0.45c-0.4,0-0.4,1.1-0.8,1.1c-0.4,0-0.4,0.27-0.8,0.27c-0.4,0-0.4,1.42-0.8,1.42c-0.4,0-0.4-2.15-0.8-2.15
			s-0.4-0.62-0.8-0.62c-0.4,0-0.4,2.65-0.8,2.65c-0.4,0-0.4-3.45-0.8-3.45s-0.4,0.12-0.8,0.12c-0.4,0-0.4,1.2-0.8,1.2
			s-0.4-2.62-0.8-2.62c-0.4,0-0.4,1.59-0.8,1.59c-0.4,0-0.4,0.42-0.8,0.42c-0.4,0-0.4,1.4-0.8,1.4c-0.4,0-0.4,0.54-0.8,0.54
			c-0.4,0-0.4-1.05-0.8-1.05c-0.4,0-0.4-1.57-0.8-1.57c-0.4,0-0.4,4.22-0.8,4.22c-0.4,0-0.4-3.81-0.8-3.81c-0.4,0-0.4-0.25-0.8-0.25
			c-0.4,0-0.4,0.94-0.8,0.94s-0.4-0.19-0.8-0.19c-0.4,0-0.4,0.29-0.8,0.29c-0.4,0-0.4,0.73-0.8,0.73c-0.4,0-0.4-1.79-0.8-1.79
			c-0.4,0-0.4-1.31-0.8-1.31c-0.4,0-0.4,1.05-0.8,1.05c-0.4,0-0.4,0.21-0.8,0.21c-0.4,0-0.4-1.16-0.8-1.16c-0.4,0-0.4-0.35-0.8-0.35
			c-0.4,0-0.4,0.8-0.8,0.8c-0.4,0-0.4,4.32-0.8,4.32s-0.4-4.43-0.8-4.43c-0.4,0-0.4,1.69-0.8,1.69c-0.4,0-0.4,0.66-0.8,0.66
			c-0.4,0-0.4-1.94-0.8-1.94c-0.4,0-0.4,0.49-0.8,0.49s-0.4,3.53-0.8,3.53c-0.4,0-0.4-1.39-0.8-1.39c-0.4,0-0.4-2.19-0.8-2.19
			c-0.4,0-0.4,3.36-0.8,3.36s-0.4-3.86-0.8-3.86c-0.4,0-0.4,3.13-0.8,3.13c-0.4,0-0.4-0.89-0.8-0.89c-0.4,0-0.4-2.15-0.8-2.15
			s-0.4,3.07-0.8,3.07c-0.4,0-0.4-3.31-0.8-3.31c-0.4,0-0.4,4.33-0.8,4.33c-0.4,0-0.4-2.63-0.8-2.63c-0.4,0-0.4,1.04-0.8,1.04
			c-0.4,0-0.4-0.02-0.8-0.02c-0.4,0-0.4-0.28-0.8-0.28c-0.4,0-0.4-0.3-0.8-0.3c-0.4,0-0.4-1.94-0.8-1.94c-0.4,0-0.4,3.97-0.8,3.97
			c-0.4,0-0.4-1.53-0.8-1.53c-0.4,0-0.4,1.62-0.8,1.62s-0.4-3.59-0.8-3.59s-0.4,1.19-0.8,1.19c-0.4,0-0.4,0.63-0.8,0.63
			c-0.4,0-0.4-2.15-0.8-2.15c-0.4,0-0.4,0.31-0.8,0.31c-0.4,0-0.4,0.83-0.8,0.83c-0.4,0-0.4-1.03-0.8-1.03c-0.4,0-0.4,3.67-0.8,3.67
			c-0.4,0-0.4-0.3-0.8-0.3c-0.4,0-0.4-0.83-0.8-0.83c-0.4,0-0.4-0.88-0.8-0.88c-0.4,0-0.4-1.55-0.8-1.55c-0.4,0-0.4,3.33-0.8,3.33
			c-0.4,0-0.4,0.45-0.8,0.45s-0.4-2.51-0.8-2.51c-0.4,0-0.4,2.77-0.8,2.77c-0.4,0-0.4-3.09-0.8-3.09s-0.4-2.37-0.8-2.37
			c-0.4,0-0.4,2.83-0.8,2.83c-0.4,0-0.4,0.54-0.8,0.54c-0.4,0-0.4-1.47-0.8-1.47c-0.4,0-0.4,1.99-0.8,1.99c-0.4,0-0.4,1.77-0.8,1.77
			c-0.4,0-0.4-0.62-0.8-0.62c-0.4,0-0.4,0.47-0.8,0.47c-0.4,0-0.4,0.29-0.8,0.29c-0.4,0-0.4-2.79-0.8-2.79
			c-0.4,0-0.4,2.58-0.79,2.58c-0.4,0-0.4-5.6-0.8-5.6c-0.4,0-0.4,2.42-0.79,2.42c-0.4,0-0.4,1.58-0.8,1.58c-0.4,0-0.4,0.1-0.79,0.1
			c-0.4,0-0.4-1.13-0.79-1.13c-0.4,0-0.4,2.68-0.8,2.68c-0.4,0-0.4-3.61-0.79-3.61c-0.4,0-0.4-0.37-0.8-0.37
			c-0.4,0-0.4,1.74-0.79,1.74c-0.4,0-0.4-0.83-0.79-0.83c-0.4,0-0.4-0.5-0.79-0.5c-0.4,0-0.4,0.89-0.79,0.89
			c-0.4,0-0.4,2.22-0.79,2.22c-0.4,0-0.4-0.64-0.79-0.64c-0.4,0-0.4-1.68-0.79-1.68c-0.4,0-0.4,2.19-0.79,2.19
			c-0.4,0-0.4-2.72-0.79-2.72c-0.4,0-0.4,1.97-0.79,1.97c-0.4,0-0.4-4.62-0.79-4.62c-0.4,0-0.4,4.44-0.79,4.44
			c-0.4,0-0.4-1.94-0.79-1.94c-0.4,0-0.4,0.47-0.79,0.47c-0.4,0-0.4-1.43-0.79-1.43c-0.4,0-0.4,2.51-0.79,2.51
			c-0.4,0-0.4,1.55-0.79,1.55c-0.4,0-0.4-1.57-0.8-1.57c-0.4,0-0.4-1.39-0.8-1.39c-0.4,0-0.4,3.44-0.79,3.44
			c-0.4,0-0.4-3.15-0.8-3.15c-0.4,0-0.4,1.83-0.79,1.83c-0.4,0-0.4,0.99-0.8,0.99c-0.4,0-0.4-0.44-0.8-0.44
			c-0.4,0-0.4-0.71-0.8-0.71c-0.4,0-0.4-3.24-0.8-3.24c-0.4,0-0.4,0.19-0.8,0.19c-0.4,0-0.4,3.99-0.8,3.99c-0.4,0-0.4,0.24-0.8,0.24
			c-0.4,0-0.4-4.66-0.8-4.66c-0.4,0-0.4,0.71-0.8,0.71c-0.4,0-0.4,2.43-0.8,2.43c-0.4,0-0.4-1.22-0.8-1.22s-0.4-2.49-0.8-2.49
			c-0.4,0-0.4,3.57-0.8,3.57c-0.4,0-0.4-3.37-0.8-3.37c-0.4,0-0.4,3.23-0.8,3.23c-0.4,0-0.4,0.91-0.8,0.91c-0.4,0-0.4,0.97-0.8,0.97
			c-0.4,0-0.4-0.24-0.8-0.24c-0.4,0-0.4-4.55-0.8-4.55c-0.4,0-0.4-0.73-0.8-0.73c-0.4,0-0.4,2.88-0.8,2.88c-0.4,0-0.4-1.73-0.8-1.73
			c-0.4,0-0.4-0.47-0.8-0.47c-0.4,0-0.4,2.62-0.8,2.62c-0.4,0-0.4,2.23-0.8,2.23c-0.4,0-0.4,0.12-0.8,0.12c-0.4,0-0.4-5.79-0.8-5.79
			c-0.4,0-0.4,1.24-0.8,1.24s-0.4,1.41-0.8,1.41s-0.4-1.57-0.8-1.57c-0.4,0-0.4,2.31-0.8,2.31c-0.4,0-0.4-0.75-0.8-0.75
			c-0.4,0-0.4,0.54-0.8,0.54s-0.4,1.47-0.8,1.47c-0.4,0-0.4-2.28-0.8-2.28s-0.4,2.81-0.8,2.81c-0.4,0-0.4-3.95-0.8-3.95
			s-0.4,1.25-0.8,1.25c-0.4,0-0.4,0.06-0.8,0.06s-0.4,2.23-0.8,2.23c-0.4,0-0.4-4.86-0.8-4.86c-0.4,0-0.4,0.69-0.8,0.69
			c-0.4,0-0.4,4.02-0.8,4.02c-0.4,0-0.4-0.09-0.8-0.09c-0.4,0-0.4-4.27-0.8-4.27c-0.4,0-0.4,2.6-0.8,2.6c-0.4,0-0.4,2.07-0.8,2.07
			c-0.4,0-0.4-0.37-0.8-0.37s-0.4-0.77-0.8-0.77c-0.4,0-0.4,0.04-0.8,0.04c-0.4,0-0.4,1-0.8,1c-0.4,0-0.4-3.04-0.8-3.04
			c-0.4,0-0.4-0.3-0.8-0.3c-0.4,0-0.4,1.17-0.8,1.17c-0.4,0-0.4,0.5-0.8,0.5c-0.4,0-0.4-2.59-0.8-2.59c-0.4,0-0.4,4.26-0.8,4.26
			c-0.4,0-0.4-1.79-0.8-1.79c-0.4,0-0.4,1.08-0.8,1.08c-0.4,0-0.4-2.93-0.8-2.93c-0.4,0-0.4,3.6-0.8,3.6c-0.4,0-0.4,0.33-0.8,0.33
			c-0.4,0-0.4-2.72-0.8-2.72c-0.4,0-0.4,1.9-0.8,1.9c-0.4,0-0.4-3.09-0.8-3.09s-0.4,2.93-0.8,2.93c-0.4,0-0.4-1.39-0.8-1.39
			s-0.4,1.59-0.8,1.59c-0.4,0-0.4-3.71-0.8-3.71c-0.4,0-0.4,0.69-0.8,0.69s-0.4,3.31-0.8,3.31c-0.4,0-0.4-0.73-0.8-0.73
			s-0.4-2.45-0.8-2.45c-0.4,0-0.4,3.49-0.8,3.49c-0.4,0-0.4-1.62-0.8-1.62c-0.4,0-0.4,0.32-0.8,0.32c-0.4,0-0.4-3.16-0.8-3.16
			c-0.4,0-0.4,1.91-0.8,1.91c-0.4,0-0.4,3.54-0.8,3.54c-0.4,0-0.4-0.16-0.8-0.16s-0.4-3.13-0.8-3.13c-0.4,0-0.4,1.91-0.8,1.91
			c-0.4,0-0.4-2.27-0.8-2.27c-0.4,0-0.4,1.95-0.8,1.95c-0.4,0-0.4-4.32-0.8-4.32c-0.4,0-0.4,1.47-0.8,1.47c-0.4,0-0.4-0.64-0.8-0.64
			c-0.4,0-0.4,5.17-0.8,5.17c-0.4,0-0.4-5.68-0.8-5.68c-0.4,0-0.4,3.94-0.8,3.94c-0.4,0-0.4-3.49-0.8-3.49c-0.4,0-0.4-0.4-0.8-0.4
			c-0.4,0-0.4,4.01-0.8,4.01c-0.4,0-0.4-3.5-0.8-3.5c-0.4,0-0.4,4.69-0.8,4.69c-0.4,0-0.4-3.3-0.8-3.3s-0.4,2.74-0.8,2.74
			c-0.4,0-0.4,0.86-0.8,0.86c-0.4,0-0.4-2.25-0.8-2.25c-0.4,0-0.4,1.2-0.8,1.2c-0.4,0-0.4,1.1-0.8,1.1c-0.4,0-0.4-5.12-0.8-5.12
			c-0.4,0-0.4,1.82-0.8,1.82c-0.4,0-0.4,1.78-0.8,1.78c-0.4,0-0.4,0.3-0.8,0.3c-0.4,0-0.4-2.47-0.8-2.47s-0.4-0.91-0.8-0.91
			c-0.4,0-0.4,1.23-0.8,1.23c-0.4,0-0.4,2.25-0.8,2.25c-0.4,0-0.4-1.47-0.8-1.47c-0.4,0-0.4-0.75-0.8-0.75c-0.4,0-0.4,2-0.8,2
			c-0.4,0-0.4-3.13-0.8-3.13c-0.4,0-0.4,0.35-0.8,0.35c-0.4,0-0.4-0.41-0.8-0.41c-0.4,0-0.4-1.23-0.8-1.23c-0.4,0-0.4-0.1-0.8-0.1
			c-0.4,0-0.4,2.18-0.8,2.18c-0.4,0-0.4-0.08-0.8-0.08c-0.4,0-0.4-0.88-0.8-0.88c-0.4,0-0.4,4.56-0.8,4.56c-0.4,0-0.4-4.1-0.8-4.1
			c-0.4,0-0.4,3.53-0.8,3.53c-0.4,0-0.4,0.1-0.8,0.1c-0.4,0-0.4-5.48-0.8-5.48c-0.4,0-0.4,1.34-0.8,1.34c-0.4,0-0.4,3.43-0.8,3.43
			c-0.4,0-0.4-2.38-0.8-2.38c-0.4,0-0.4-0.99-0.8-0.99c-0.4,0-0.4,0.69-0.8,0.69c-0.4,0-0.4,2.54-0.8,2.54c-0.4,0-0.4-0.33-0.8-0.33
			c-0.4,0-0.4-2.46-0.8-2.46c-0.4,0-0.4,3.44-0.8,3.44c-0.4,0-0.4-0.98-0.8-0.98c-0.4,0-0.4-3.5-0.8-3.5c-0.4,0-0.4,1.15-0.8,1.15
			c-0.4,0-0.4,2.73-0.8,2.73c-0.4,0-0.4-2.1-0.8-2.1c-0.4,0-0.4,1.27-0.8,1.27c-0.4,0-0.4,0.36-0.8,0.36c-0.4,0-0.4-1.23-0.8-1.23
			c-0.4,0-0.4-1.36-0.8-1.36c-0.4,0-0.4,2.68-0.8,2.68c-0.4,0-0.4,1.45-0.8,1.45c-0.4,0-0.4-1.13-0.81-1.13
			c-0.4,0-0.4,1.22-0.8,1.22c-0.4,0-0.4-1.02-0.8-1.02c-0.4,0-0.4-4.07-0.8-4.07c-0.4,0-0.4,2.45-0.8,2.45c-0.4,0-0.4-0.96-0.8-0.96
			c-0.4,0-0.4-1.94-0.81-1.94c-0.4,0-0.4,4.55-0.81,4.55c-0.4,0-0.4-1.75-0.81-1.75c-0.4,0-0.4,1.13-0.8,1.13
			c-0.4,0-0.4-1.64-0.8-1.64c-0.4,0-0.4,3.33-0.81,3.33c-0.4,0-0.4-5.51-0.81-5.51c-0.4,0-0.4,2.53-0.8,2.53
			c-0.4,0-0.4,2.42-0.8,2.42c-0.4,0-0.4-3.19-0.81-3.19c-0.4,0-0.4,3.99-0.8,3.99c-0.4,0-0.4-5.16-0.8-5.16
			c-0.4,0-0.4,3.54-0.8,3.54c-0.4,0-0.4-3.41-0.81-3.41c-0.4,0-0.4-1.12-0.81-1.12c-0.4,0-0.4,3.72-0.81,3.72
			c-0.41,0-0.41-2.78-0.81-2.78c-0.4,0-0.4,3.3-0.81,3.3s-0.4-1.97-0.81-1.97c-0.4,0-0.4-1.88-0.81-1.88c-0.4,0-0.4,1.36-0.81,1.36
			c-0.35,0-0.4,2.62-0.66,3.35c0.59,0.08,1.06,0.17,1.06,0.32c0,0.39-3.52,0.39-3.52,0.79c0,0.39-2.09,0.39-2.09,0.79
			c0,0.4,3.67,0.4,3.67,0.79c0,0.39-2.43,0.39-2.43,0.79s-1.01,0.39-1.01,0.79c0,0.4,4.58,0.4,4.58,0.79c0,0.39,0.18,0.39,0.18,0.79
			c0,0.39,0.38,0.39,0.38,0.79c0,0.39-1.57,0.39-1.57,0.79c0,0.4-3.54,0.4-3.54,0.79c0,0.4,2.23,0.4,2.23,0.79
			c0,0.4,1.19,0.4,1.19,0.79c0,0.4-2.05,1.39-1.76,1.67c0.28,0.28,1.27,1.55,1.67,1.55c0.4,0,0.4-0.29,0.8-0.29
			c0.4,0,0.4-2.26,0.8-2.26s0.4,0.95,0.8,0.95c0.4,0,0.4-3.12,0.8-3.12c0.4,0,0.4,3.85,0.8,3.85c0.4,0,0.4,0.73,0.8,0.73
			c0.4,0,0.4,0.72,0.8,0.72c0.4,0,0.4-1.49,0.8-1.49c0.4,0,0.4-2.97,0.8-2.97s0.4,4.36,0.8,4.36c0.4,0,0.4-2.31,0.8-2.31
			c0.4,0,0.4,1.42,0.8,1.42c0.4,0,0.4-4.83,0.8-4.83c0.4,0,0.4,2.59,0.8,2.59c0.4,0,0.4,1.08,0.8,1.08c0.4,0,0.4-3.77,0.8-3.77
			c0.4,0,0.4,1.56,0.8,1.56c0.4,0,0.4,3.03,0.8,3.03c0.4,0,0.4-3.17,0.8-3.17c0.4,0,0.4,0.61,0.8,0.61c0.4,0,0.4,1.05,0.8,1.05
			c0.4,0,0.4,2.49,0.8,2.49c0.4,0,0.4-1.25,0.8-1.25c0.4,0,0.4,1.17,0.8,1.17c0.4,0,0.4-2.75,0.8-2.75c0.4,0,0.4-0.19,0.8-0.19
			c0.4,0,0.4,2.41,0.8,2.41s0.4-5.01,0.8-5.01c0.4,0,0.4,0.67,0.8,0.67c0.4,0,0.4,0.48,0.8,0.48c0.4,0,0.4,3.06,0.8,3.06
			c0.4,0,0.4-1.52,0.8-1.52c0.4,0,0.4-0.47,0.8-0.47c0.4,0,0.4-1.72,0.8-1.72c0.4,0,0.4,4.5,0.8,4.5c0.4,0,0.4-3.41,0.8-3.41
			c0.4,0,0.4,0.53,0.8,0.53c0.4,0,0.4-0.28,0.8-0.28c0.4,0,0.4,0.85,0.8,0.85c0.4,0,0.4,3.19,0.8,3.19c0.4,0,0.4-1.79,0.8-1.79
			c0.4,0,0.4-3.88,0.8-3.88c0.4,0,0.4,0.12,0.8,0.12c0.4,0,0.4,1.5,0.8,1.5c0.4,0,0.4,3.52,0.8,3.52c0.4,0,0.4-1.46,0.8-1.46
			c0.4,0,0.4-2.41,0.8-2.41c0.4,0,0.4,3.42,0.8,3.42c0.4,0,0.4-3.78,0.8-3.78c0.4,0,0.4,3.41,0.8,3.41c0.4,0,0.4-1.27,0.8-1.27
			c0.4,0,0.4-3.4,0.8-3.4c0.4,0,0.4,6.05,0.8,6.05c0.4,0,0.4-2.18,0.8-2.18c0.4,0,0.4-0.35,0.8-0.35c0.4,0,0.4-0.41,0.8-0.41
			c0.4,0,0.4,1.96,0.8,1.96s0.4-4.06,0.8-4.06c0.4,0,0.4-0.02,0.8-0.02c0.4,0,0.4,0.18,0.8,0.18s0.4,4.23,0.8,4.23
			c0.4,0,0.4-0.8,0.8-0.8c0.4,0,0.4-0.26,0.8-0.26c0.4,0,0.4-2.89,0.8-2.89c0.4,0,0.4,0.06,0.8,0.06c0.4,0,0.4,1.49,0.8,1.49
			s0.4-0.85,0.8-0.85c0.4,0,0.4,0.66,0.8,0.66c0.4,0,0.4,3.28,0.8,3.28s0.4-6.08,0.8-6.08c0.4,0,0.4,2.52,0.8,2.52
			c0.4,0,0.4,2.25,0.8,2.25c0.4,0,0.4-0.63,0.8-0.63c0.4,0,0.4-2.47,0.8-2.47c0.4,0,0.4,1.96,0.8,1.96c0.4,0,0.4-2.83,0.8-2.83
			s0.4,5.28,0.8,5.28c0.4,0,0.4-1.85,0.8-1.85c0.4,0,0.4-2.4,0.8-2.4s0.4,2.54,0.8,2.54c0.4,0,0.4-2.48,0.8-2.48
			c0.4,0,0.4,3.65,0.8,3.65s0.4-0.84,0.8-0.84c0.4,0,0.4,0.14,0.8,0.14c0.4,0,0.4-0.05,0.8-0.05c0.4,0,0.4-1.46,0.8-1.46
			c0.4,0,0.4-2.44,0.8-2.44c0.4,0,0.4-0.29,0.8-0.29c0.4,0,0.4,4.19,0.8,4.19c0.4,0,0.4-2.16,0.8-2.16s0.4-0.14,0.8-0.14
			c0.4,0,0.4-2.31,0.8-2.31c0.4,0,0.4,1.87,0.8,1.87s0.4-0.13,0.8-0.13c0.4,0,0.4-1.4,0.8-1.4c0.4,0,0.4,2.41,0.8,2.41
			c0.4,0,0.4-0.54,0.8-0.54c0.4,0,0.4,2.71,0.8,2.71c0.4,0,0.4-0.07,0.8-0.07c0.4,0,0.4-0.56,0.8-0.56c0.4,0,0.4-1.97,0.8-1.97
			c0.4,0,0.4,1.57,0.8,1.57s0.4-0.02,0.8-0.02c0.4,0,0.4-2.63,0.8-2.63s0.4,0.43,0.8,0.43c0.4,0,0.4,1.79,0.8,1.79
			s0.4-3.19,0.8-3.19c0.4,0,0.4,2.96,0.8,2.96c0.4,0,0.4-2.64,0.8-2.64c0.4,0,0.4,2.08,0.8,2.08s0.4,1.75,0.8,1.75
			c0.4,0,0.4-2.22,0.8-2.22c0.4,0,0.4,0.95,0.8,0.95s0.4,1.02,0.8,1.02c0.4,0,0.4,1.15,0.8,1.15s0.4,0.46,0.8,0.46
			c0.4,0,0.4-3.15,0.8-3.15c0.4,0,0.4,0.09,0.8,0.09c0.4,0,0.4-0.49,0.8-0.49c0.4,0,0.4,2.03,0.8,2.03c0.4,0,0.4,1.15,0.8,1.15
			c0.4,0,0.4-5.53,0.8-5.53c0.4,0,0.4,2.19,0.8,2.19c0.4,0,0.4,0.89,0.8,0.89c0.4,0,0.4,0.18,0.8,0.18s0.4-1.1,0.8-1.1
			c0.4,0,0.4,0.67,0.8,0.67c0.4,0,0.4-1.14,0.8-1.14c0.4,0,0.4,2.87,0.8,2.87s0.4,1.15,0.8,1.15c0.4,0,0.4-2.08,0.8-2.08
			c0.4,0,0.4-0.46,0.8-0.46c0.4,0,0.4,2.35,0.8,2.35c0.4,0,0.4-4.7,0.8-4.7c0.4,0,0.4,0.62,0.8,0.62c0.4,0,0.4,0.26,0.8,0.26
			c0.4,0,0.4,2.06,0.8,2.06c0.4,0,0.4-0.18,0.8-0.18c0.4,0,0.4-2.43,0.8-2.43c0.4,0,0.4,0.14,0.8,0.14s0.4,2.18,0.8,2.18
			c0.4,0,0.4,2.47,0.8,2.47c0.4,0,0.4-0.92,0.8-0.92s0.4-2.83,0.8-2.83c0.4,0,0.4,2.72,0.8,2.72c0.4,0,0.4-3.34,0.8-3.34
			c0.4,0,0.4,2.36,0.8,2.36c0.4,0,0.4-3.21,0.8-3.21c0.4,0,0.4-0.73,0.8-0.73c0.4,0,0.4,1.77,0.8,1.77c0.4,0,0.4,0.9,0.8,0.9
			c0.4,0,0.4-1.42,0.8-1.42c0.4,0,0.4,3.17,0.8,3.17c0.4,0,0.4-2.79,0.8-2.79c0.4,0,0.4,1.7,0.8,1.7c0.4,0,0.4,2.26,0.8,2.26
			c0.4,0,0.4,0.31,0.8,0.31c0.4,0,0.4-3.43,0.8-3.43c0.4,0,0.4,1.54,0.8,1.54c0.4,0,0.4-0.46,0.8-0.46c0.4,0,0.4-2.37,0.8-2.37
			c0.4,0,0.4-0.12,0.8-0.12c0.4,0,0.4,3.49,0.8,3.49c0.4,0,0.4-0.94,0.8-0.94c0.4,0,0.4-2.49,0.8-2.49s0.4,1.09,0.8,1.09
			c0.4,0,0.4,0.27,0.8,0.27c0.4,0,0.4,1.79,0.8,1.79c0.4,0,0.4-0.47,0.8-0.47c0.4,0,0.4-1.27,0.8-1.27s0.4-0.64,0.8-0.64
			c0.4,0,0.4-1.39,0.8-1.39c0.4,0,0.4-0.35,0.8-0.35s0.4,1.54,0.8,1.54c0.4,0,0.4,4.14,0.8,4.14c0.4,0,0.4-5.9,0.8-5.9
			s0.4,6.04,0.8,6.04c0.4,0,0.4-4.42,0.8-4.42c0.4,0,0.4,1.18,0.8,1.18c0.4,0,0.4-1.56,0.8-1.56c0.4,0,0.4,4.32,0.8,4.32
			c0.4,0,0.4,0.58,0.8,0.58c0.4,0,0.4-2.07,0.8-2.07c0.4,0,0.4-2.42,0.8-2.42c0.4,0,0.4,2.83,0.8,2.83c0.4,0,0.4-3.41,0.8-3.41
			c0.4,0,0.4,0.11,0.8,0.11c0.4,0,0.4,4.35,0.8,4.35c0.4,0,0.4-1.98,0.8-1.98c0.4,0,0.4-3,0.79-3c0.4,0,0.4,3.79,0.8,3.79
			c0.4,0,0.4-3.35,0.8-3.35c0.4,0,0.4,2.78,0.8,2.78c0.4,0,0.4-0.34,0.8-0.34c0.4,0,0.4-3.1,0.79-3.1c0.4,0,0.4-0.04,0.8-0.04
			c0.4,0,0.4,2.65,0.8,2.65c0.4,0,0.4-0.69,0.8-0.69c0.4,0,0.4,1.66,0.8,1.66c0.4,0,0.4-3.34,0.79-3.34c0.4,0,0.4,1.26,0.8,1.26
			c0.4,0,0.4,3.35,0.8,3.35c0.4,0,0.4-1.91,0.8-1.91c0.4,0,0.4-0.26,0.8-0.26c0.4,0,0.4,1.38,0.8,1.38c0.4,0,0.4-0.84,0.8-0.84
			c0.4,0,0.4,1.32,0.8,1.32c0.4,0,0.4-1.86,0.8-1.86c0.4,0,0.4,2.52,0.8,2.52c0.4,0,0.4,0.46,0.8,0.46c0.4,0,0.4-3.2,0.8-3.2
			c0.4,0,0.4,0.04,0.8,0.04c0.4,0,0.4-2.48,0.8-2.48c0.4,0,0.4,3.54,0.8,3.54c0.4,0,0.4-0.07,0.8-0.07c0.4,0,0.4-1.21,0.8-1.21
			c0.4,0,0.4-0.34,0.8-0.34c0.4,0,0.4-0.65,0.8-0.65c0.4,0,0.4-0.13,0.8-0.13c0.4,0,0.4,1.21,0.8,1.21c0.4,0,0.4,2.21,0.8,2.21
			c0.4,0,0.4-4.15,0.8-4.15c0.4,0,0.4,4.57,0.8,4.57s0.4-1.37,0.8-1.37c0.4,0,0.4,1.04,0.8,1.04c0.4,0,0.4-1.08,0.8-1.08
			c0.4,0,0.4-3.73,0.8-3.73c0.4,0,0.4,1.89,0.8,1.89c0.4,0,0.4,0.57,0.8,0.57c0.4,0,0.4-1.07,0.8-1.07c0.4,0,0.4,2.16,0.8,2.16
			c0.4,0,0.4,2.01,0.8,2.01c0.4,0,0.4-2.11,0.8-2.11c0.4,0,0.4-2.38,0.8-2.38c0.4,0,0.4,2.79,0.8,2.79c0.4,0,0.4-3.57,0.8-3.57
			c0.4,0,0.4,1.18,0.8,1.18s0.4-0.91,0.8-0.91c0.4,0,0.4,0.54,0.8,0.54c0.4,0,0.4,4.21,0.8,4.21c0.4,0,0.4-3.12,0.8-3.12
			c0.4,0,0.4-0.69,0.8-0.69c0.4,0,0.4,1.55,0.8,1.55s0.4,0.07,0.8,0.07c0.4,0,0.4,2.24,0.8,2.24c0.4,0,0.4-3.17,0.8-3.17
			c0.4,0,0.4-1.54,0.8-1.54s0.4-0.38,0.8-0.38c0.4,0,0.4,0.12,0.8,0.12c0.4,0,0.4,3.72,0.8,3.72c0.4,0,0.4-1.95,0.8-1.95
			c0.4,0,0.4,3.09,0.8,3.09c0.4,0,0.4-2.18,0.8-2.18c0.4,0,0.4-1.23,0.8-1.23c0.4,0,0.4,1.81,0.8,1.81s0.4-0.78,0.8-0.78
			c0.4,0,0.4,0.61,0.8,0.61c0.4,0,0.4-0.03,0.8-0.03c0.4,0,0.4,1.95,0.8,1.95c0.4,0,0.4-4.02,0.8-4.02c0.4,0,0.4-0.41,0.8-0.41
			s0.4,0.4,0.8,0.4c0.4,0,0.4-0.12,0.8-0.12c0.4,0,0.4,1.74,0.8,1.74c0.4,0,0.4-0.64,0.8-0.64c0.4,0,0.4,0.26,0.8,0.26
			c0.4,0,0.4-1.45,0.8-1.45c0.4,0,0.4,3.95,0.8,3.95c0.4,0,0.4-0.17,0.8-0.17c0.4,0,0.4-3.41,0.8-3.41c0.4,0,0.4,0.12,0.8,0.12
			c0.4,0,0.4-1.27,0.8-1.27c0.4,0,0.4,0.82,0.8,0.82c0.4,0,0.4,2.55,0.8,2.55c0.4,0,0.4-2.39,0.8-2.39c0.4,0,0.4,0.88,0.8,0.88
			c0.4,0,0.4-0.63,0.8-0.63s0.4,1.39,0.8,1.39c0.4,0,0.4-1.81,0.8-1.81s0.4,1.36,0.8,1.36c0.4,0,0.4-0.9,0.8-0.9s0.4-0.54,0.8-0.54
			c0.4,0,0.4-1.33,0.8-1.33c0.4,0,0.4,5.59,0.8,5.59c0.4,0,0.4-4.73,0.8-4.73c0.4,0,0.4,2.97,0.8,2.97c0.4,0,0.4,0.4,0.8,0.4
			c0.4,0,0.4-3.96,0.8-3.96c0.4,0,0.4,4.31,0.8,4.31c0.4,0,0.4-3.4,0.8-3.4s0.4,2.68,0.8,2.68c0.4,0,0.4,1.97,0.8,1.97
			c0.4,0,0.4-3.57,0.8-3.57c0.4,0,0.4,1.88,0.8,1.88c0.4,0,0.4-0.1,0.8-0.1c0.4,0,0.4-4.04,0.8-4.04c0.4,0,0.4,4.04,0.8,4.04
			c0.4,0,0.4-3.23,0.8-3.23c0.4,0,0.4,2.12,0.8,2.12c0.4,0,0.4-1.8,0.8-1.8s0.4-1.11,0.8-1.11c0.4,0,0.4,3.11,0.8,3.11
			c0.4,0,0.4-0.86,0.8-0.86c0.4,0,0.4,2.87,0.8,2.87c0.4,0,0.4-4.09,0.8-4.09s0.4-0.29,0.8-0.29c0.4,0,0.4,5.03,0.8,5.03
			s0.4-3.68,0.8-3.68c0.4,0,0.4,1.47,0.8,1.47c0.4,0,0.4-1.25,0.8-1.25c0.4,0,0.4-1.58,0.8-1.58c0.4,0,0.4,2.97,0.8,2.97
			c0.4,0,0.4-1.55,0.8-1.55c0.4,0,0.4-1.29,0.8-1.29c0.4,0,0.4,0.32,0.8,0.32c0.4,0,0.4,1.98,0.8,1.98c0.4,0,0.4-0.39,0.8-0.39
			c0.4,0,0.4,3.29,0.8,3.29c0.4,0,0.4-0.18,0.8-0.18c0.4,0,0.4-3.24,0.8-3.24c0.4,0,0.4,3.36,0.8,3.36s0.4-1.17,0.8-1.17
			c0.4,0,0.4,0.35,0.8,0.35c0.4,0,0.4,0.19,0.8,0.19c0.4,0,0.4-5.24,0.8-5.24c0.4,0,0.4,5.38,0.8,5.38c0.4,0,0.4-4.29,0.8-4.29
			c0.4,0,0.4,1.04,0.8,1.04c0.4,0,0.4-1.29,0.8-1.29c0.4,0,0.4,1.22,0.8,1.22s0.4,0.15,0.8,0.15c0.4,0,0.4,2.19,0.8,2.19
			c0.4,0,0.4,0.68,0.8,0.68s0.4-3.09,0.8-3.09c0.4,0,0.4,3.64,0.8,3.64c0.4,0,0.4-1.59,0.8-1.59c0.4,0,0.4,1.55,0.8,1.55
			s0.4-3.41,0.8-3.41c0.4,0,0.4,1.36,0.8,1.36s0.4-3.54,0.8-3.54c0.4,0,0.4,3.34,0.8,3.34c0.4,0,0.4-0.96,0.8-0.96
			s0.4-0.81,0.8-0.81c0.4,0,0.4,1.11,0.8,1.11c0.4,0,0.4,0.78,0.81,0.78c0.4,0,0.4-1.05,0.81-1.05c0.4,0,0.4,2.38,0.8,2.38
			c0.4,0,0.4-4.44,0.8-4.44c0.4,0,0.4,4.26,0.8,4.26c0.4,0,0.4-1.53,0.8-1.53s0.4,0.3,0.8,0.3c0.4,0,0.4,0.53,0.8,0.53
			c0.4,0,0.4-4.08,0.8-4.08c0.4,0,0.4,2.03,0.8,2.03c0.4,0,0.4,3.82,0.81,3.82s0.4-0.45,0.81-0.45c0.4,0,0.4-0.96,0.81-0.96
			c0.4,0,0.4-1.78,0.8-1.78c0.4,0,0.4,0.11,0.8,0.11c0.4,0,0.4,0.1,0.8,0.1c0.4,0,0.4,1.82,0.81,1.82c0.4,0,0.4,0.66,0.81,0.66
			s0.4-1.43,0.81-1.43c0.4,0,0.4-0.47,0.81-0.47c0.4,0,0.4,2.12,0.8,2.12c0.4,0,0.4-2.8,0.81-2.8c0.4,0,0.4,1.9,0.81,1.9
			c0.4,0,0.4-4.29,0.81-4.29c0.4,0,0.4,0.86,0.8,0.86c0.4,0,0.4,2.82,0.8,2.82c0.4,0,0.4,2.01,0.81,2.01c0.4,0,0.4-3.3,0.81-3.3
			c0.4,0,0.4,0.53,0.8,0.53c0.4,0,0.4-2.31,0.81-2.31c0.4,0,0.4,1.35,0.81,1.35c0.4,0,0.4,2.48,0.81,2.48c0.4,0,0.4-2.88,0.81-2.88
			c0.41,0,0.41,1.5,0.81,1.5c0.4,0,0.4-1.17,0.81-1.17c0.4,0,0.4-0.29,0.81-0.29c0.4,0,0.4,3.45,0.81,3.45
			c0.41,0,0.41-2.73,0.81-2.73c0.41,0,0.41,2.87,0.81,2.87c0.41,0,0.41-1.98,0.81-1.98c0.41,0,0.54-0.23,0.83-0.52
			c0.28-0.27-0.78-0.41-0.78-0.8c0-0.39-2.03-0.39-2.03-0.79c0-0.39,0.48-0.39,0.48-0.79c0-0.39,2.13-0.39,2.13-0.79
			c0-0.39,2.51-0.39,2.51-0.79c0-0.4-4.22-0.4-4.22-0.79c0-0.39,4.86-0.39,4.86-0.79s-4.49-0.39-4.49-0.79
			C332.88,254.51,337.42,254.51,337.42,254.11z M298.07,248.23c-0.15,0.5-1.52,1.9-1.91,1.83c-0.39-0.07-1.01-1.67-1.04-2.19
			c-0.02-0.22-1.23-0.39-1.26-0.69c-0.01-0.17,1.44-0.46,2.32-0.72c0.93,0.4,1.87,0.8,1.84,0.92
			C297.93,247.67,298.13,248.02,298.07,248.23z M314.41,239.91c0-0.17,2.69-0.42,4.48-0.64c0.15,0.3,1.09,0.84,1.01,1.06
			c-0.09,0.25-1.14,0.12-1.23,0.37c-0.09,0.25,1.73,1.2,1.64,1.44c-0.1,0.25-0.42,0.4-0.51,0.64c-0.1,0.25-1.81-0.21-1.91,0.03
			c-0.11,0.25-0.54,0.3-0.65,0.53c-0.05,0.11,0.62,0.54,1.4,1.02c-0.93-0.17-2.28-0.35-2.28-0.54c0-0.25,1.12-0.52,1.12-0.79
			c0-0.26-1.85-0.51-1.85-0.78c0-0.26-0.31-0.51-0.31-0.78c0-0.26,2.44-0.56,2.44-0.83C317.74,240.37,314.42,240.18,314.41,239.91z
			 M317.77,247.93c0.25,0.09,0.73,0.22,0.74-0.11c0.01-0.22-1.8-0.54-1.79-0.84c0.01-0.24-1.93-0.53-1.92-0.82
			c0-0.17,1.86-0.31,3.1-0.47c0.51,0.44,1.16,0.94,1.09,1.07c-0.13,0.25,0.13,0.72,0.01,0.92c-0.15,0.27,1.14,1.4,1.03,1.59
			C319.78,249.67,318.24,248.2,317.77,247.93z M318.99,245.43c0,0,0.01-0.01,0.01-0.01c0-0.19,0.28-0.38,0.42-0.58
			c0.84,0.51,1.58,0.99,1.54,1.09C320.89,246.05,319.92,245.73,318.99,245.43z M318.82,238.36c-0.03,0.09-0.02,0.2,0,0.3
			c-1.06-0.12-2.24-0.23-2.25-0.38c-0.01-0.25,3.25-0.61,3.65-0.87c0.66,0.4,2.13,1.03,2.08,1.22
			C322.22,238.89,318.89,238.11,318.82,238.36z"/>
		<path d="M325.85,205.69c-0.14-0.22-2.87-0.73-3.02-0.96c0.04,0.26-1.6,2.42-1.56,2.68c0.02,0.14,1.3,0.1,2.55,0.06
			C324.84,206.67,325.92,205.81,325.85,205.69z"/>
		<path d="M326.93,206.98c-0.04-0.08-0.58,0.15-1.28,0.48c0.29,0.01,0.48,0.04,0.49,0.09c0.04,0.26-2.2,0.84-2.17,1.1
			c0.01,0.12,0.27,0.2,0.55,0.29C325.7,208.06,327.01,207.11,326.93,206.98z"/>
		<path d="M325.33,209.29c-0.02-0.15-0.43-0.25-0.8-0.36c-0.95,0.71-1.81,1.35-1.75,1.46c0.13,0.23,0.16,0.47,0.29,0.71
			c0.04,0.08,0.65-0.16,1.45-0.5c-0.08-0.12-0.15-0.25-0.16-0.38C324.32,209.94,325.36,209.55,325.33,209.29z"/>
		<path d="M323.81,207.48c-0.92,0.74-1.8,1.44-1.73,1.55c0.09,0.15,2.17-0.91,3.57-1.57C325.21,207.44,324.52,207.46,323.81,207.48z
			"/>
		<path d="M327.09,216.55c-0.01-0.26,0.29-0.57,0.28-0.84c0-0.01-0.02-0.02-0.04-0.03c-0.15,0.12-0.23,0.21-0.21,0.26
			c0.1,0.23-0.38,0.68-0.35,0.94C326.95,216.77,327.09,216.66,327.09,216.55z"/>
		<path d="M329.6,213.97c-0.11-0.24-3.42,0.98-3.53,0.74c-0.11-0.24,3.78-2.38,3.66-2.62c-0.12-0.24-5.06,1.88-5.18,1.65
			c-0.01-0.02-0.01-0.04-0.02-0.06c-1.27,0.25-3.06,0.52-3.05,0.69c0.01,0.27,0.84,0.47,0.85,0.73c0.01,0.26,4.6,0.34,4.99,0.58
			C327.95,215.17,329.69,214.17,329.6,213.97z"/>
		<path d="M328.59,208.93c-0.09-0.16-2.46,0.97-4.07,1.66c0.08,0.13,0.16,0.26,0.17,0.39c0.01,0.11,0.41,0.18,0.88,0.25
			C326.64,210.43,328.68,209.1,328.59,208.93z"/>
		<path d="M325.44,212.53c-0.02-0.26,1.66-0.69,1.64-0.95c-0.01-0.16-0.84-0.24-1.52-0.34c-0.4,0.3-0.67,0.53-0.64,0.59
			c0.12,0.23-0.65,0.91-0.53,1.14c0.11,0.22,0.06,0.48,0.14,0.71c0.71-0.14,1.26-0.27,1.26-0.36
			C325.78,213.05,325.46,212.79,325.44,212.53z"/>
	</g>
	<g>
		<path d="M246.44,240.66c7.46,0,13.51-6.05,13.51-13.51s-6.05-13.51-13.51-13.51c-3.11,0-5.96,1.06-8.24,2.82h-9.09v-9h5
			c3.31,0,6-2.69,6-6v-7.67c0-3.31-2.69-6-6-6h-34.33c-0.05,0-0.1,0.01-0.16,0.01c-2.25-5.61-5.69-12.94-10.7-20.68
			c-9.25-14.3-24.02-30.09-46.48-38.47c-0.65,2.46-2.21,4.55-4.31,5.9c21.75,7.52,35.91,22.51,44.91,36.38
			c4.99,7.69,8.34,15.01,10.43,20.38c0.16,0.4,0.3,0.79,0.45,1.17c-0.09,0.42-0.15,0.86-0.15,1.32v7.67c0,3.31,2.69,6,6,6h5v9h-3.93
			c-2.71-5.8-8.58-9.82-15.4-9.82c-9.39,0-17.01,7.61-17.01,17.01c0,9.39,7.61,17.01,17.01,17.01c8.37,0,15.31-6.05,16.73-14.02
			h30.79c-0.01,0.17-0.03,0.34-0.03,0.51C232.94,234.61,238.99,240.66,246.44,240.66z M185.44,234.1c-5.77,0-10.44-4.67-10.44-10.44
			c0-5.77,4.67-10.44,10.44-10.44c5.77,0,10.44,4.67,10.44,10.44C195.89,229.42,191.21,234.1,185.44,234.1z M246.44,218.86
			c4.58,0,8.29,3.71,8.29,8.29c0,4.58-3.71,8.29-8.29,8.29c-4.58,0-8.29-3.71-8.29-8.29C238.15,222.58,241.87,218.86,246.44,218.86z
			"/>
		<path d="M125.92,51.32c2.82-12.1-4.71-24.19-16.81-27.01c-12.1-2.82-24.19,4.71-27.01,16.81c-2.82,12.1,4.71,24.19,16.81,27.01
			C111,70.95,123.1,63.42,125.92,51.32z"/>
		<path d="M56.1,232.66c13.77-13.21,22.16-27.24,26.94-40.04c0.65-1.74,1.24-3.46,1.76-5.15c0.28,2.25,0.44,4.66,0.44,7.23
			c0,7.84-1.46,17.31-5.57,28.71c-2.34,6.49,1.03,13.66,7.52,16c1.4,0.5,2.83,0.74,4.24,0.74c5.12,0,9.93-3.17,11.76-8.27
			c4.97-13.78,7.05-26.2,7.05-37.19c0.04-19.55-6.69-34.27-13.56-43.66c-0.29-0.39-0.57-0.77-0.86-1.14
			c0.07-1.43,0.05-3.05-0.06-4.91c-0.89-6.63-0.71-13.69,0-20.66c-4.37-3.58-8.21-7.91-11.44-12.97
			c-6.56-10.31-8.71-20.18-9.33-23.94l-0.02-0.14c-0.79-5.55,3.02-10.63,8.48-11.4c0.47-0.07,0.95-0.1,1.42-0.1
			c4.94,0,9.19,3.7,9.89,8.6l0.02,0.11l0.07,0.39c0.07,0.36,0.22,1.11,0.49,2.15c0.44,1.74,1.26,4.45,2.61,7.51
			c0.57,1.3,1.27,2.73,2.11,4.2c0.35-1.73,0.69-3.41,1-5c2.87-9.95-0.88-21.87-9.42-23.99c-8.54-2.13-20.91,2.51-25.95,17.15
			c-6.81,20.17-8.27,33.31-5.68,55.52c0.76,3.9,1.98,6.94,3.52,9.32c0.25,1.62,0.56,4.39,0.55,7.98c0,6.14-0.9,14.63-4.46,24.14
			c-3.58,9.52-9.77,20.12-20.85,30.78c-4.98,4.78-5.14,12.69-0.35,17.67C43.21,237.29,51.12,237.44,56.1,232.66z"/>
		<path d="M86.01,110.28c2.54,3.97,5.84,8.02,10.02,11.64c1.96,1.7,4.09,3.31,6.46,4.76c7.4,4.55,16.88,7.49,28.23,7.49
			c0.03,0,0.07,0,0.1,0c0.74,0,1.46-0.01,2.18-0.03c0.86-0.02,1.68-0.19,2.44-0.46c2.54-0.9,4.48-3.04,5.11-5.68
			c0.16-0.67,0.24-1.36,0.22-2.08c-0.12-4.42-3.8-7.89-8.22-7.77c-0.61,0.02-1.19,0.03-1.73,0.03c-8.72-0.02-15.02-2.12-19.98-5.14
			c-4.95-3.01-8.65-7.16-11.37-11.42c-1.35-2.11-2.46-4.24-3.35-6.29c-1.35-3.06-2.21-5.85-2.71-7.82
			c-0.25-0.98-0.42-1.76-0.51-2.26c-0.05-0.25-0.08-0.43-0.1-0.54c0-0.03-0.01-0.05-0.01-0.07c-0.62-4.38-4.67-7.42-9.05-6.8
			c-4.37,0.62-7.42,4.67-6.79,9.05h0C77.06,87.54,78.57,98.58,86.01,110.28z"/>
	</g>
</g>
</svg>
