<?xml version="1.0" encoding="utf-8"?>
<!-- Generator: Adobe Illustrator 25.2.3, SVG Export Plug-In . SVG Version: 6.00 Build 0)  -->
<svg version="1.1" id="Layer_1" xmlns="http://www.w3.org/2000/svg" xmlns:xlink="http://www.w3.org/1999/xlink" x="0px" y="0px"
	 viewBox="0 0 432 432" style="enable-background:new 0 0 432 432;" xml:space="preserve">
<style type="text/css">
	.st0{fill-rule:evenodd;clip-rule:evenodd;}
</style>
<path class="st0" d="M210.84,142.51l47.32,64.03l14.22-19.6c16.61-22.21,11.6-19.93,25.82,5.48l48.91,87.49
	c19.45,34.87,25.48,31.11-12.97,31.11H109.37c-47.55,0-40.84,4.67-13.88-36.12c28.67-43.52,57.22-86.93,85.89-130.34
	C198.32,118.81,192.63,118.24,210.84,142.51L210.84,142.51z M293.31,200.84l27.53,53.31l-25.14-16.63l-0.11-0.11l-0.23,0.11
	l-17.63,15.84l5.01-21.19l0.11-0.34h-0.34l-9.21,1.71l0.23-5.24v-0.23h-0.23l-23.55,7.52l27.64-38.4
	C287.85,182.61,284.78,184.09,293.31,200.84L293.31,200.84z M183.76,159.71l-37.2,56.39l32.87-16.98l0.23-0.11l0.11,0.11
	l19.68,21.53l-3.42-26.55l-0.11-0.45l0.45,0.11l11.03,3.31l0.46-6.38v-0.34h0.22l28.67,4.22c-10.01-13.32-20.02-26.77-30.03-40.1
	C193.2,136.24,197.3,139.32,183.76,159.71L183.76,159.71z"/>
</svg>
