<svg enable-background="new 0 0 432 432" viewBox="0 0 432 432" xmlns="http://www.w3.org/2000/svg"><path d="m218.42 97.47c1.69.42 3.42.72 5.05 1.29 9.74 3.45 15.56 12.79 14.99 22.58-.58 10.08-8.02 19.12-18.98 20.91-9.27 1.51-18.63-3.09-23.21-11.39-4.55-8.25-3.47-18.54 2.71-25.6 3.75-4.29 8.46-6.83 14.11-7.59.18-.02.36-.13.54-.2z"/><path d="m276.75 208.93c3.18.65 4.47 1.77 4.76 4.1.27 2.18-.76 3.79-3.31 4.99.32 2.03.69 4.1.97 6.18.33 2.36.84 4.74.82 7.11-.03 2.94-1.7 5.11-4.32 6.41-.82.41-.95.79-.82 1.63 2.23 14.11 4.41 28.23 6.61 42.35s4.41 28.23 6.61 42.35c.23 1.49.46 2.99.71 4.62 1.07-.14 2.08-.27 3.19-.42.18 1.1.35 2.15.55 3.33-3.27.51-6.45 1.01-9.78 1.53-.18-1.13-.34-2.16-.52-3.33 1.02-.18 1.99-.36 3.14-.57-.21-1.45-.39-2.9-.62-4.33-2.76-17.67-5.53-35.33-8.29-52.99-1.69-10.8-3.37-21.61-5.03-32.42-.1-.66-.3-.91-.98-1.05-3.43-.75-5.71-3.21-6.29-6.71-.62-3.74-1.24-7.48-1.87-11.3-1.57.02-3.11-.17-4.1-1.47-.56-.73-1.03-1.66-1.16-2.55-.35-2.42.87-4 3.77-5.13-.65-4.03-1.3-8.08-1.96-12.13-.52-3.19-1.04-6.38-1.59-9.56-.06-.37-.18-.81-.43-1.07-4.45-4.64-8.92-9.26-13.39-13.88-.04-.05-.13-.05-.37-.13v1.42 86.63c0 6.38-3.8 11.28-9.77 12.65-7.57 1.74-14.97-4.1-14.99-11.87-.02-9.87-.01-19.69-.01-29.56 0-.52 0-1.03 0-1.65-1.55 0-3.03 0-4.63 0v1.56 88.48c0 5.71-3.74 10.58-9.2 11.99-5.46 1.42-11.15-.99-13.94-5.91-1.13-1.99-1.6-4.14-1.6-6.43.01-28.25.01-56.51.01-84.76 0-20.42 0-40.84 0-61.26 0-.43 0-.85 0-1.24-1.38 1.31-2.77 2.54-4.07 3.87-3.21 3.28-6.4 6.59-9.56 9.93-.35.37-.57.95-.66 1.47-1.17 7.01-5.54 33.9-5.82 35.57-.35 2.13-.67 4.26-1.02 6.38-.59 3.62-2.98 5.95-7.16 6.88l-3.39-.37c-.28-.15-.54-.3-.82-.43-3.26-1.57-5.04-4.89-4.49-8.48.57-3.74 6.13-37.63 7.45-45.7.27-1.68 1.04-3.09 2.21-4.3 7.23-7.5 14.47-15 21.71-22.5 1.61-1.67 3.33-3.24 4.79-5.03 2.28-2.77 5.17-3.74 8.66-3.72 12.82.06 25.65.06 38.47 0 3.5-.02 6.22 1.15 8.66 3.74 8.69 9.21 17.52 18.28 26.34 27.36 2.03 2.09 2.38 4.69 2.81 7.34 1.18 7.29 2.37 14.57 3.56 21.86.07.16.12.35.16.52zm-15.53 8.44c5.6-.83 10.8-1.59 16.01-2.37.89-.13 1.38-.75 1.24-1.6-.15-.97-.87-1.39-1.86-1.25-2.72.39-5.45.78-8.17 1.18-2.37.35-4.73.7-7.09 1.07-.93.15-1.51.77-1.24 1.68.17.56.82.97 1.11 1.29z"/></svg>