<?xml version="1.0" encoding="utf-8"?>
<!-- Generator: Adobe Illustrator 25.2.3, SVG Export Plug-In . SVG Version: 6.00 Build 0)  -->
<svg version="1.1" id="Layer_1" xmlns="http://www.w3.org/2000/svg" xmlns:xlink="http://www.w3.org/1999/xlink" x="0px" y="0px"
	 viewBox="0 0 432 432" style="enable-background:new 0 0 432 432;" xml:space="preserve">
<g>
	<path d="M219.94,133.01c12.33-2.01,20.71-12.19,21.36-23.53c0.64-11.02-5.91-21.53-16.87-25.41c-1.83-0.64-3.78-0.98-5.68-1.45
		c-1.8,0-3.6,0-5.39,0c-0.2,0.08-0.41,0.2-0.61,0.23c-6.36,0.86-11.66,3.71-15.88,8.54c-6.95,7.94-8.17,19.52-3.05,28.81
		C198.97,129.53,209.51,134.71,219.94,133.01z"/>
	<path d="M228.96,349.28c2.44,0,4.76,0,7.16,0c0-21.17,0-42.18,0-63.11c-2.46,0-4.82,0-7.16,0
		C228.96,307.23,228.96,328.24,228.96,349.28z"/>
	<path d="M287.89,231.03c-0.64-4.21-6.9-42.35-8.38-51.43c-0.3-1.89-1.17-3.48-2.49-4.84c-8.14-8.44-16.28-16.88-24.43-25.32
		c-1.81-1.88-3.75-3.65-5.39-5.66c-2.52-3.06-5.7-4.16-9.53-4.18c-0.01,0-0.01-0.01-0.02-0.01c-0.06,0-0.12,0-0.19,0
		c0,0-0.01,0-0.01,0c0,0,0,0-0.01,0c-14.29,0.07-28.6,0.07-42.89,0c0,0,0,0-0.01,0c0,0-0.01,0-0.01,0c-0.06,0-0.12,0-0.18,0
		c-0.01,0-0.01,0.01-0.02,0.01c-3.83,0.02-7.02,1.12-9.53,4.18c-1.64,2.01-3.58,3.78-5.39,5.66c-8.15,8.44-16.29,16.88-24.43,25.32
		c-1.32,1.36-2.18,2.95-2.49,4.84c-1.49,9.08-7.74,47.22-8.38,51.43c-0.62,4.04,1.38,7.78,5.05,9.54c0.32,0.15,0.61,0.32,0.92,0.48
		l3.81,0.42c4.7-1.05,7.39-3.67,8.06-7.74c0.39-2.39,0.75-4.78,1.15-7.18c0.32-1.88,5.23-32.14,6.55-40.03
		c0.1-0.59,0.35-1.24,0.74-1.65c3.56-3.76,7.15-7.48,10.76-11.17c1.46-1.5,3.03-2.88,4.58-4.35c0,0.44,0,0.91,0,1.4
		c0,3.65-0.19,58.05-0.19,68.94c0,31.79,0,63.59-0.01,95.38c0,2.58,0.53,5,1.8,7.24c3.14,5.54,9.54,8.25,15.69,6.65
		c6.14-1.59,10.35-7.07,10.35-13.49c0-33.2,0-66.38,0-99.57c0-0.57,0-1.15,0-1.76c1.8,0,3.47,0,5.21,0c0,0.7,0,1.27,0,1.86
		c0,11.11-0.01,22.21,0.01,33.32c0.02,8.74,8.35,15.32,16.87,13.36c6.72-1.54,10.99-7.06,10.99-14.24c0-17.88-0.2-94.04-0.2-97.69
		c0-0.48,0-0.96,0-1.4c1.55,1.47,3.12,2.86,4.58,4.35c3.61,3.69,7.2,7.42,10.76,11.17c0.39,0.42,0.64,1.07,0.74,1.65
		c1.32,7.89,6.23,38.15,6.55,40.03c0.39,2.4,0.75,4.79,1.15,7.18c0.66,4.07,3.35,6.7,8.06,7.74l3.81-0.42
		c0.32-0.17,0.61-0.34,0.92-0.48C286.5,238.81,288.51,235.07,287.89,231.03z"/>
</g>
</svg>
