<?xml version="1.0" encoding="utf-8"?>
<!-- Generator: Adobe Illustrator 25.2.3, SVG Export Plug-In . SVG Version: 6.00 Build 0)  -->
<svg version="1.1" id="Layer_1" xmlns="http://www.w3.org/2000/svg" xmlns:xlink="http://www.w3.org/1999/xlink" x="0px" y="0px"
	 viewBox="0 0 432 432" style="enable-background:new 0 0 432 432;" xml:space="preserve">
<path id="path5907" d="M228.4,319.55c-1.22-1.05-1.05,0.94-2.43-29c-1.68-36.22-3.49-72.62-3.62-72.75
	c-0.18-0.18-34.53,14.55-47.19,20.23c-5.27,2.36-10.21,4.58-10.97,4.92l-1.39,0.62l-2.76,16.88c-1.62,9.89-3,17.25-3.34,17.77
	c-0.85,1.33-10.6,5.89-12.72,5.96c-2.89,0.09-2.98-0.12-7.08-16.89c-2-8.18-3.96-16.26-4.35-17.94c-0.48-2.08-1.08-3.56-1.88-4.6
	c-0.65-0.85-5.32-6.8-10.39-13.23c-11.87-15.07-12.1-15.4-12.1-17.11c0-0.84,0.28-1.67,0.71-2.1c1.1-1.1,11.28-5.71,12.61-5.71
	c1.34,0,3.41,1.04,19.64,9.85l11.6,6.31l8.91-4.57c14.3-7.34,46.75-24.97,47.68-25.91c0.52-0.52,0.87-0.21-35.71-31.89
	c-34.94-30.27-39.13-34.02-39.63-35.45c-0.52-1.51-0.06-2.73,1.44-3.79c2.59-1.84,17.59-9.23,18.75-9.23
	c0.83,0,16.83,8.19,52.86,27.06l51.68,27.06l3.26-1.52c1.8-0.84,8.95-4.3,15.91-7.7c18.37-8.98,19.59-9.42,28.15-10.39
	c7.92-0.9,14.57,1.3,16.82,5.55c2.5,4.73,1.42,10.22-3.17,16.1c-4.42,5.66-8.57,8.3-30.29,19.22c-9.07,4.56-16.52,8.32-16.57,8.36
	c-0.05,0.04-4.84,25.59-10.66,56.79c-5.82,31.2-10.77,57.21-11,57.81c-0.36,0.93-1.67,1.7-8.7,5.12
	C230.93,320.99,230.29,321.18,228.4,319.55L228.4,319.55z"/>
</svg>
