<?xml version="1.0" encoding="utf-8"?>
<!-- Generator: Adobe Illustrator 25.2.3, SVG Export Plug-In . SVG Version: 6.00 Build 0)  -->
<svg version="1.1" id="Layer_1"
  xmlns="http://www.w3.org/2000/svg"
  xmlns:xlink="http://www.w3.org/1999/xlink" x="0px" y="0px" viewBox="0 0 432 432" style="enable-background:new 0 0 432 432;" xml:space="preserve">
  <style type="text/css">
	.st0{fill:#FFFFFF00;}
  </style>
  <g>
    <path class="st0" d="M324,101.27c0,102.08,0,204.15,0,306.23c-72,0-144,0-216,0c0-127.67,0-255.33,0-383c36.97,0,73.93,0,110.9,0
		c0.06,2.36,0.15,4.72,0.18,7.08c0.11,9.02,0.2,18.05,0.29,27.07c0.1,10.42,0.19,20.85,0.29,31.27c0.08,8.01,0.02,16.03,0.32,24.03
		c0.54,14.31,1.28,28.62,2,42.93c0.63,12.67,1.35,25.34,2.03,38c0.67,12.52,1.35,25.05,2.02,37.57c0.55,10.36,1.08,20.71,1.63,31.07
		c0.74,13.87,1.5,27.74,2.26,41.61c0.17,3.16,0.37,6.32,0.57,9.62c4.6,0,9.02,0,13.49,0c0,3.27,0,6.38,0,9.67c-0.6,0-1.12,0-1.63,0
		c-2.99,0-5.98-0.03-8.97,0.02c-0.69,0.01-1.44,0.18-2.06,0.48c-19.3,9.33-38.62,18.63-57.86,28.08c-3.67,1.8-7.27,3.17-11.43,2.68
		c-1.28-0.15-2.6,0.08-3.9,0.14c-8.94,0.45-17.75,1.6-26.28,4.49c-8.45,2.86-15.29,7.62-19.31,15.91c-4.65,9.6-6.31,19.2-0.67,29.02
		c0.54,0.94,1.07,1.38,2.22,1.38c15.44,0.04,30.88,0.14,46.31,0.2c11.48,0.04,22.97,0.03,34.45,0.06
		c10.37,0.03,20.75,0.12,31.12,0.11c25.67-0.02,51.34-0.06,77.01-0.14c2.98-0.01,5.96-0.35,8.94-0.55c2.48-0.17,3.93-1.99,5.31-3.68
		c0.56-0.68,0.52-1.99,0.48-3c-0.37-8.62-0.58-17.26-1.28-25.86c-0.79-9.73-2.67-19.29-5.76-28.57
		c-2.37-7.12-5.18-14.02-10.37-19.68c-0.77-0.84-1.52-1.13-2.61-1.12c-4.68,0.05-9.36,0.02-14.04,0.02c-0.52,0-1.03,0-1.62,0
		c0-3.42,0-6.68,0-10.19c1.75,0,3.44,0.09,5.11-0.02c3.45-0.23,6.95-0.31,10.34-0.92c3.75-0.67,5.33-2.98,5.37-6.78
		c0.07-5.69,0.14-11.39,0.23-17.08c0.22-13.56,0.8-27.11,2.38-40.58c1.64-14.03,3.53-28.04,5.65-42.01
		c2.7-17.83,5.85-35.59,8.57-53.41c2.23-14.6,3.37-29.32,3.96-44.08C323.75,106.66,323.88,103.97,324,101.27z"/>
    <path d="M324,101.27c-0.12,2.69-0.25,5.38-0.36,8.08c-0.6,14.76-1.73,29.48-3.96,44.08c-2.73,17.82-5.88,35.58-8.57,53.41
		c-2.11,13.97-4.01,27.97-5.65,42.01c-1.57,13.47-2.16,27.02-2.38,40.58c-0.09,5.69-0.17,11.39-0.23,17.08
		c-0.04,3.8-1.62,6.11-5.37,6.78c-3.39,0.61-6.89,0.69-10.34,0.92c-1.67,0.11-3.35,0.02-5.11,0.02c0,3.51,0,6.77,0,10.19
		c0.59,0,1.11,0,1.62,0c4.68,0,9.36,0.03,14.04-0.02c1.09-0.01,1.84,0.28,2.61,1.12c5.19,5.66,8,12.56,10.37,19.68
		c3.09,9.28,4.98,18.85,5.76,28.57c0.69,8.6,0.91,17.24,1.28,25.86c0.04,1.01,0.08,2.32-0.48,3c-1.38,1.69-2.83,3.51-5.31,3.68
		c-2.98,0.2-5.96,0.54-8.94,0.55c-25.67,0.08-51.34,0.12-77.01,0.14c-10.37,0.01-20.75-0.08-31.12-0.11
		c-11.48-0.03-22.97-0.02-34.45-0.06c-15.44-0.06-30.88-0.17-46.31-0.2c-1.15,0-1.68-0.44-2.22-1.38
		c-5.64-9.82-3.98-19.42,0.67-29.02c4.02-8.29,10.86-13.05,19.31-15.91c8.52-2.88,17.34-4.04,26.28-4.49
		c1.3-0.06,2.62-0.29,3.9-0.14c4.16,0.48,7.76-0.88,11.43-2.68c19.25-9.45,38.56-18.75,57.86-28.08c0.62-0.3,1.37-0.47,2.06-0.48
		c2.99-0.05,5.98-0.02,8.97-0.02c0.52,0,1.03,0,1.63,0c0-3.29,0-6.4,0-9.67c-4.47,0-8.89,0-13.49,0c-0.19-3.3-0.39-6.46-0.57-9.62
		c-0.76-13.87-1.51-27.74-2.26-41.61c-0.55-10.36-1.08-20.71-1.63-31.07c-0.67-12.52-1.35-25.05-2.02-37.57
		c-0.68-12.67-1.4-25.33-2.03-38c-0.72-14.31-1.46-28.62-2-42.93c-0.3-8-0.24-16.02-0.32-24.03c-0.11-10.42-0.19-20.85-0.29-31.27
		c-0.09-9.02-0.18-18.05-0.29-27.07c-0.03-2.36-0.12-4.72-0.18-7.08c7.24,0,14.48,0,21.72,0c2.32,5.3,4.65,10.59,6.93,15.9
		c0.34,0.79,0.83,0.9,1.56,0.89c3.67-0.02,7.34,0.07,11-0.03c4.79-0.13,9.41,0.72,13.91,2.26c12.44,4.25,23.21,11.28,32.77,20.16
		C314.67,71,321.75,78.93,324,89.97C324,93.74,324,97.51,324,101.27z M238.89,193.16c1.71-0.62,3.57-2.49,4.78-4.89
		c2.81-5.56,7.32-8.92,13.25-10.59c1.52-0.43,3.02-1.02,4.4-1.78c3.76-2.05,7.5-3.56,12.01-3.42c5.23,0.16,9.78-2.37,13.96-5.32
		c5.59-3.95,11.08-8.05,16.58-12.13c0.39-0.29,0.63-0.94,0.72-1.45c0.32-1.9,0.56-3.82,0.8-5.73c0.28-2.23,0.52-4.46,0.8-6.89
		c-3.42,1.17-6.28,2.81-8.91,4.88c-4.08,3.2-8.6,5.57-13.7,6.54c-3.25,0.62-6.6,0.77-9.9,1.17c-7.82,0.94-14.96,3.86-21.89,7.47
		c-3.05,1.59-6.33,2.76-9.49,4.11c-0.3-0.41-0.45-0.6-0.57-0.8c-0.13-0.24-0.23-0.49-0.36-0.76c3.38-3.28,6.58-6.6,10.75-8.82
		c5.66-3.02,11.19-6.25,16.81-9.34c7.28-4,14.74-7.48,22.93-9.36c4.86-1.12,9.53-3.03,14.29-4.57c0.77-0.25,1.13-0.68,1.19-1.55
		c0.32-4.96,0.7-9.91,1.03-14.87c0.06-0.92,0.01-1.85,0.01-2.95c-4.6,2.76-8.71,5.84-12.56,9.29c-1.5,1.35-3.03,2.7-4.68,3.85
		c-3.63,2.52-7.78,2.74-12.05,2.73c-8-0.02-15.39,2.18-22.09,6.65c-2.6,1.73-5.33,3.29-8.07,4.79c-2.9,1.58-5.39,3.58-7.13,6.39
		c-1.25,2.02-2.52,3.91-5.26,3.84C237.33,164.25,238.1,178.64,238.89,193.16z M303.59,81.27c-16.62,13.08-33.86,24.28-53.13,32.64
		c-1.18-9.03-4.25-17.31-6.9-25.72c-1.03-3.28-2.62-6.23-5-8.7c-1.17-1.22-2.52-2.27-3.93-3.53c0,7.04-0.01,13.7,0.02,20.36
		c0,0.49,0.21,1.06,0.5,1.46c2.38,3.34,4.62,6.79,7.26,9.9c1.67,1.96,1.43,4.11,1.95,6.24c-4.85-0.33-6.47-4.64-9.7-7.44
		c0.19,7.27,0.37,14.2,0.55,21.16c2.79,0.4,5.18-0.2,7.49-1.01c10.96-3.81,21.88-7.73,32.84-11.55c5.09-1.77,10.18-3.59,15.37-4.98
		c3.66-0.98,7.07-2.25,9.89-4.8c2.57-2.33,5.05-4.77,7.56-7.17c0.23-0.22,0.55-0.54,0.54-0.8c-0.11-2.87,0.75-5.87-0.68-8.56
		C306.89,86.24,305.22,83.88,303.59,81.27z M291.33,238.72c0.57-4.34,1.11-8.45,1.65-12.55c0.04-0.29,0.13-0.59,0.07-0.86
		c-0.08-0.33-0.2-0.79-0.45-0.92c-2.9-1.5-5.85-2.36-8.84-0.2c-0.82,0.59-1.67,1.16-2.42,1.83c-2.33,2.08-5.07,3.01-8.14,3.33
		c-4.23,0.43-8.15,1.8-11,5.13c-1.33,1.55-2.4,3.37-3.32,5.21c-2.2,4.36-4.7,5.26-9.01,2.93c-3.06-1.66-5.57-3.96-7.6-6.79
		c-0.28-0.39-0.58-0.77-0.87-1.16c0.07,6.27,0.38,12.38,0.72,18.5c0.02,0.34,0.24,0.73,0.48,0.99c2.8,2.94,6.14,5.03,10.1,5.88
		c5.98,1.28,12,2.33,18,3.51c5.82,1.14,11.67,2.24,16.55,6c0.4,0.31,0.86,0.54,1.36,0.86c0.11-0.34,0.2-0.52,0.21-0.7
		c0.2-3.13,0.41-6.26,0.57-9.39c0.02-0.33-0.16-0.8-0.41-1c-1.94-1.57-3.79-3.31-5.94-4.53c-1.27-0.72-3.02-0.72-4.56-0.8
		c-2.2-0.12-4.43,0.14-6.62-0.07c-2.48-0.23-4.83-1.06-7.08-2.34C270.59,240.85,279.91,237.71,291.33,238.72z M300.35,78.26
		c-0.44-0.46-0.76-0.82-1.1-1.16c-4.91-4.89-10.35-9.12-16.21-12.8c-0.68-0.43-1.6-0.69-2.41-0.68c-5.01,0.04-9.72-1.12-13.33-4.62
		c-2.61-2.53-5.44-3.06-8.76-2.84c-2.11,0.14-4.24,0.02-6.37,0.03c-0.46,0-0.92,0.04-1.39,0.06c-0.06,0.12-0.11,0.24-0.17,0.35
		c7.57,5.44,15.15,10.89,22.72,16.33c-0.06,0.12-0.11,0.24-0.17,0.36c-4.44-0.86-8.9-1.6-13.31-2.59
		c-8.28-1.86-15.25-5.76-20.2-12.94c-1.42-2.06-3.39-3.75-5.4-5.92c0,3.4,0.04,6.32-0.02,9.25c-0.02,0.94,0.37,1.43,1.05,2.01
		c2.73,2.36,5.6,4.62,7.98,7.31c2.46,2.79,5.14,5.18,8.27,7.15c1.96,1.23,3.85,2.57,5.74,3.9c3.41,2.41,5.53,5.6,5.84,9.85
		c0.03,0.41,0.12,0.82,0.19,1.33c0.33-0.11,0.55-0.17,0.76-0.27c5.91-2.82,11.78-5.74,17.75-8.45c3.41-1.55,6.91-2.93,10.48-4.07
		C294.84,79.06,297.55,78.79,300.35,78.26z M303.21,163.2c-0.1-0.08-0.2-0.16-0.31-0.24c-1.34,0.93-2.73,1.78-3.99,2.8
		c-2.91,2.36-5.5,5.07-6.87,8.61c-2.09,5.37-4.78,7.55-10.43,7.63c-4.41,0.06-7.54,1.9-9.47,5.88c-0.87,1.81-2.28,3.16-4.26,3.66
		c-3.88,0.99-7.19,2.99-9.58,6.12c-2.91,3.82-5.46,7.92-8.14,11.91c-0.88,1.32-1.59,2.77-2.54,4.03c-1.3,1.7-2.85,1.86-4.51,0.54
		c-0.82-0.66-1.52-1.48-2.21-2.28c-0.26-0.3-0.34-0.76-0.5-1.14c-0.18,0.16-0.36,0.32-0.54,0.48c0.13,2.26,0.24,4.51,0.4,6.77
		c0.02,0.36,0.16,0.76,0.38,1.04c2.44,3.17,4.87,6.35,7.39,9.46c0.92,1.13,2.07,2.07,3.42,3.39c1.21-1.93,2.78-3.46,3.18-5.25
		c1.25-5.57,4.42-9.68,8.84-12.96c2.97-2.2,5.24-4.94,6.98-8.18c1.6-2.99,3.84-5.35,6.73-7.2c6.48-4.18,12.82-8.57,19.31-12.73
		c2.57-1.65,4.26-3.6,4.19-6.79c-0.01-0.66,0.24-1.32,0.34-1.99C301.75,172.23,302.48,167.72,303.21,163.2z M242.65,261.39
		c0,0.77-0.02,1.24,0,1.71c0.26,4.81,0.56,9.62,0.77,14.44c0.04,0.97,0.38,1.41,1.26,1.76c4.45,1.75,9.11,2.37,13.82,2.79
		c6.96,0.61,13.91,1.34,20.67,3.23c2.99,0.83,5.91,1.94,9.23,3.05c0-3.4,0.03-6.72-0.04-10.03c-0.01-0.45-0.41-1.08-0.8-1.3
		c-1.86-1.01-3.74-1.98-5.68-2.83c-6.67-2.9-13.81-4.12-20.82-5.81C254.74,266.85,248.12,266.02,242.65,261.39z M284.71,299.46
		c0.02-0.16,0.03-0.32,0.05-0.49c-3.9-3.83-8.52-6.35-14-6.74c-5.09-0.36-10.21-0.22-15.32-0.29c-0.09,0-0.18,0.13-0.38,0.29
		c3.9,2.39,7.71,4.75,11.54,7.05c0.37,0.22,0.92,0.22,1.39,0.22c3.71,0,7.42-0.03,11.14-0.04
		C280.99,299.45,282.85,299.46,284.71,299.46z M278.29,217.18c0.67-0.16,1.12-0.25,1.57-0.38c3.51-1.02,7.03-2.04,10.54-3.07
		c1.48-0.43,3.4-0.46,4.3-1.44c0.88-0.96,0.72-2.89,1.02-4.39c0.03-0.14,0.07-0.28,0.09-0.42c0.36-2.25,0.72-4.5,1.15-7.2
		c-4.39,2.65-8.48,4.9-12.32,7.52C281.44,209.96,279.55,213.24,278.29,217.18z M266.86,314.54c-2.39,0-4.59-0.04-6.8,0.04
		c-0.37,0.01-1.04,0.5-1.05,0.79c-0.08,2.97-0.05,5.94-0.05,8.95c2.73,0,5.3,0,7.9,0C266.86,321.04,266.86,317.88,266.86,314.54z
		 M244.3,294.03c0.13,2.03,0.25,3.78,0.36,5.56c3.74,0,7.34,0,11.25,0C252.37,296.75,248.52,295.34,244.3,294.03z M290.54,246.45
		c-2.33,0.16-4.01,1.24-4.03,2.45c-0.02,1.41,1.5,2.77,3.54,3.1C290.21,250.18,290.37,248.38,290.54,246.45z"/>
    <path class="st0" d="M324,89.97c-2.25-11.05-9.33-18.97-17.21-26.29c-9.56-8.89-20.34-15.92-32.77-20.16
		c-4.5-1.54-9.12-2.39-13.91-2.26c-3.66,0.1-7.33,0.01-11,0.03c-0.73,0-1.22-0.1-1.56-0.89c-2.28-5.31-4.61-10.6-6.93-15.9
		c27.8,0,55.59,0,83.39,0C324,46.32,324,68.15,324,89.97z"/>
    <path class="st0" d="M238.89,193.16c-0.79-14.52-1.56-28.91-2.35-43.49c2.74,0.06,4.01-1.83,5.26-3.84
		c1.74-2.81,4.23-4.81,7.13-6.39c2.75-1.5,5.47-3.05,8.07-4.79c6.7-4.47,14.09-6.67,22.09-6.65c4.27,0.01,8.42-0.21,12.05-2.73
		c1.66-1.15,3.18-2.5,4.68-3.85c3.85-3.45,7.96-6.54,12.56-9.29c0,1.1,0.05,2.03-0.01,2.95c-0.34,4.96-0.72,9.91-1.03,14.87
		c-0.05,0.86-0.42,1.3-1.19,1.55c-4.76,1.54-9.44,3.45-14.29,4.57c-8.19,1.88-15.65,5.37-22.93,9.36
		c-5.62,3.08-11.16,6.32-16.81,9.34c-4.17,2.22-7.37,5.54-10.75,8.82c0.12,0.27,0.22,0.52,0.36,0.76c0.12,0.2,0.27,0.39,0.57,0.8
		c3.17-1.36,6.44-2.53,9.49-4.11c6.93-3.61,14.07-6.53,21.89-7.47c3.3-0.4,6.64-0.54,9.9-1.17c5.1-0.97,9.62-3.34,13.7-6.54
		c2.63-2.06,5.49-3.7,8.91-4.88c-0.28,2.43-0.52,4.66-0.8,6.89c-0.24,1.91-0.48,3.83-0.8,5.73c-0.09,0.52-0.33,1.16-0.72,1.45
		c-5.5,4.08-10.99,8.18-16.58,12.13c-4.18,2.96-8.74,5.49-13.96,5.32c-4.51-0.14-8.25,1.37-12.01,3.42
		c-1.38,0.75-2.89,1.35-4.4,1.78c-5.93,1.66-10.44,5.02-13.25,10.59C242.46,190.67,240.6,192.53,238.89,193.16z"/>
    <path class="st0" d="M303.59,81.27c1.63,2.61,3.3,4.97,4.65,7.5c1.44,2.69,0.57,5.69,0.68,8.56c0.01,0.26-0.3,0.58-0.54,0.8
		c-2.51,2.4-4.99,4.84-7.56,7.17c-2.82,2.55-6.22,3.82-9.89,4.8c-5.2,1.39-10.28,3.21-15.37,4.98
		c-10.96,3.81-21.88,7.74-32.84,11.55c-2.31,0.8-4.71,1.4-7.49,1.01c-0.18-6.96-0.36-13.88-0.55-21.16c3.23,2.8,4.85,7.1,9.7,7.44
		c-0.52-2.13-0.28-4.28-1.95-6.24c-2.65-3.11-4.89-6.57-7.26-9.9c-0.29-0.41-0.5-0.97-0.5-1.46c-0.03-6.66-0.02-13.32-0.02-20.36
		c1.41,1.26,2.75,2.31,3.93,3.53c2.38,2.47,3.97,5.41,5,8.7c2.65,8.4,5.72,16.69,6.9,25.72C269.73,105.55,286.96,94.35,303.59,81.27
		z"/>
    <path class="st0" d="M291.33,238.72c-11.42-1.01-20.73,2.14-26.55,12.84c2.25,1.28,4.6,2.11,7.08,2.34
		c2.19,0.2,4.42-0.06,6.62,0.07c1.54,0.09,3.29,0.08,4.56,0.8c2.15,1.22,4,2.96,5.94,4.53c0.25,0.2,0.42,0.67,0.41,1
		c-0.16,3.13-0.36,6.26-0.57,9.39c-0.01,0.18-0.11,0.36-0.21,0.7c-0.5-0.31-0.96-0.55-1.36-0.86c-4.88-3.75-10.73-4.85-16.55-6
		c-6-1.18-12.02-2.23-18-3.51c-3.96-0.85-7.31-2.94-10.1-5.88c-0.24-0.26-0.46-0.65-0.48-0.99c-0.34-6.11-0.65-12.23-0.72-18.5
		c0.29,0.39,0.59,0.76,0.87,1.16c2.03,2.83,4.53,5.13,7.6,6.79c4.3,2.32,6.8,1.43,9.01-2.93c0.92-1.83,2-3.66,3.32-5.21
		c2.85-3.33,6.77-4.7,11-5.13c3.07-0.31,5.81-1.25,8.14-3.33c0.75-0.67,1.6-1.23,2.42-1.83c2.99-2.16,5.94-1.3,8.84,0.2
		c0.25,0.13,0.37,0.59,0.45,0.92c0.06,0.27-0.03,0.57-0.07,0.86C292.44,230.27,291.9,234.37,291.33,238.72z"/>
    <path class="st0" d="M300.35,78.26c-2.8,0.54-5.51,0.81-8.06,1.61c-3.57,1.13-7.07,2.52-10.48,4.07
		c-5.96,2.71-11.83,5.62-17.75,8.45c-0.21,0.1-0.44,0.15-0.76,0.27c-0.08-0.51-0.16-0.92-0.19-1.33c-0.31-4.26-2.43-7.45-5.84-9.85
		c-1.89-1.33-3.79-2.67-5.74-3.9c-3.13-1.97-5.81-4.36-8.27-7.15c-2.38-2.69-5.25-4.95-7.98-7.31c-0.67-0.58-1.07-1.07-1.05-2.01
		c0.07-2.92,0.02-5.85,0.02-9.25c2.01,2.17,3.97,3.85,5.4,5.92c4.95,7.18,11.93,11.08,20.2,12.94c4.41,0.99,8.87,1.74,13.31,2.59
		c0.06-0.12,0.11-0.24,0.17-0.36c-7.57-5.44-15.15-10.89-22.72-16.33c0.06-0.12,0.11-0.24,0.17-0.35c0.46-0.02,0.92-0.06,1.39-0.06
		c2.12-0.01,4.25,0.11,6.37-0.03c3.33-0.21,6.15,0.32,8.76,2.84c3.62,3.5,8.33,4.66,13.33,4.62c0.81-0.01,1.73,0.25,2.41,0.68
		c5.86,3.68,11.3,7.91,16.21,12.8C299.59,77.44,299.91,77.79,300.35,78.26z"/>
    <path class="st0" d="M303.21,163.2c-0.73,4.51-1.46,9.03-2.19,13.54c-0.11,0.67-0.36,1.33-0.34,1.99c0.07,3.19-1.62,5.14-4.19,6.79
		c-6.49,4.16-12.83,8.56-19.31,12.73c-2.88,1.86-5.12,4.21-6.73,7.2c-1.74,3.23-4,5.98-6.98,8.18c-4.43,3.28-7.59,7.39-8.84,12.96
		c-0.4,1.79-1.97,3.32-3.18,5.25c-1.34-1.32-2.5-2.26-3.42-3.39c-2.52-3.11-4.95-6.29-7.39-9.46c-0.22-0.28-0.35-0.69-0.38-1.04
		c-0.16-2.25-0.27-4.51-0.4-6.77c0.18-0.16,0.36-0.32,0.54-0.48c0.16,0.38,0.25,0.84,0.5,1.14c0.69,0.8,1.39,1.62,2.21,2.28
		c1.65,1.32,3.21,1.17,4.51-0.54c0.96-1.26,1.66-2.71,2.54-4.03c2.68-4,5.23-8.09,8.14-11.91c2.39-3.13,5.7-5.13,9.58-6.12
		c1.98-0.51,3.38-1.85,4.26-3.66c1.92-3.98,5.06-5.82,9.47-5.88c5.66-0.08,8.34-2.26,10.43-7.63c1.38-3.54,3.96-6.25,6.87-8.61
		c1.26-1.02,2.66-1.87,3.99-2.8C303,163.04,303.1,163.12,303.21,163.2z"/>
    <path class="st0" d="M242.65,261.39c5.47,4.64,12.09,5.47,18.41,7c7.01,1.7,14.15,2.92,20.82,5.81c1.94,0.84,3.82,1.82,5.68,2.83
		c0.4,0.22,0.79,0.85,0.8,1.3c0.07,3.32,0.04,6.64,0.04,10.03c-3.32-1.11-6.24-2.22-9.23-3.05c-6.76-1.88-13.71-2.61-20.67-3.23
		c-4.71-0.42-9.37-1.04-13.82-2.79c-0.89-0.35-1.22-0.79-1.26-1.76c-0.21-4.81-0.51-9.62-0.77-14.44
		C242.63,262.63,242.65,262.15,242.65,261.39z"/>
    <path class="st0" d="M284.71,299.46c-1.86,0-3.72-0.01-5.58,0c-3.71,0.01-7.42,0.04-11.14,0.04c-0.47,0-1.01,0-1.39-0.22
		c-3.83-2.31-7.64-4.66-11.54-7.05c0.2-0.15,0.29-0.29,0.38-0.29c5.11,0.07,10.23-0.07,15.32,0.29c5.48,0.39,10.1,2.9,14,6.74
		C284.74,299.13,284.73,299.3,284.71,299.46z"/>
    <path class="st0" d="M278.29,217.18c1.26-3.93,3.15-7.22,6.36-9.39c3.85-2.61,7.94-4.87,12.32-7.52c-0.43,2.7-0.79,4.95-1.15,7.2
		c-0.02,0.14-0.06,0.28-0.09,0.42c-0.3,1.5-0.14,3.42-1.02,4.39c-0.89,0.97-2.82,1.01-4.3,1.44c-3.51,1.03-7.03,2.05-10.54,3.07
		C279.41,216.92,278.95,217.01,278.29,217.18z"/>
    <path class="st0" d="M266.86,314.54c0,3.35,0,6.5,0,9.77c-2.6,0-5.16,0-7.9,0c0-3.01-0.03-5.98,0.05-8.95
		c0.01-0.28,0.68-0.78,1.05-0.79C262.27,314.5,264.48,314.54,266.86,314.54z"/>
    <path class="st0" d="M244.3,294.03c4.22,1.31,8.07,2.72,11.61,5.56c-3.91,0-7.51,0-11.25,0
		C244.55,297.81,244.44,296.05,244.3,294.03z"/>
    <path class="st0" d="M290.54,246.45c-0.17,1.93-0.33,3.73-0.49,5.55c-2.04-0.33-3.56-1.69-3.54-3.1
		C286.52,247.69,288.2,246.62,290.54,246.45z"/>
  </g>
</svg>
