<?xml version="1.0" encoding="utf-8"?>
<!-- Generator: Adobe Illustrator 25.2.3, SVG Export Plug-In . SVG Version: 6.00 Build 0)  -->
<svg version="1.1" id="Layer_1" xmlns="http://www.w3.org/2000/svg" xmlns:xlink="http://www.w3.org/1999/xlink" x="0px" y="0px"
	 viewBox="0 0 432 432" style="enable-background:new 0 0 432 432;" xml:space="preserve">
<path d="M319.47,249.95c-0.91-0.28-1.83-0.58-2.77-0.74c-4.96-0.85-9.93-1.67-14.9-2.49c-4.28-0.71-8.55-1.41-12.83-2.13
	c-1.59-0.27-3.06-0.8-4.44-1.66c-1.84-1.15-3.75-2.19-5.61-3.29c-13.53-7.97-26.72-16.48-39.18-26.06
	c-7.54-5.79-14.92-11.78-22.37-17.7c-1.37-1.09-2.74-2.2-4.03-3.38c-2.25-2.06-3.9-4.54-5.03-7.37c-0.96-2.38-1.54-4.86-1.89-7.39
	c-0.44-3.16-2.73-5.41-5.87-5.76c-0.25-0.03-0.5-0.08-0.74-0.11c-0.04-0.12-0.08-0.21-0.1-0.3c-0.05-0.22-0.09-0.44-0.13-0.66
	c-0.85-5.66-2.99-10.79-6.35-15.42c-1.77-2.44-9.84-13.47-27.05-13.47s-23.37,6.61-23.93,7.08c-6.86,5.79-11.03,13.1-12.41,21.99
	c-0.04,0.27-0.13,0.53-0.21,0.84c-0.65,0-1.22-0.03-1.79,0c-3.78,0.2-6.36,2.95-6.4,6.73c-0.03,2.62-0.07,5.23-0.18,7.84
	c-0.18,4.21-0.71,8.39-1.45,12.54c-1.1,6.17-2.82,12.17-4.77,18.11c-1.56,4.75-3.14,9.5-4.58,14.3c-1.46,4.87-2.34,9.86-2.45,14.97
	c-0.08,3.67,0.06,7.33,0.59,10.98c0.65,4.47,1.76,8.81,3.66,12.93c2.29,4.99,5.5,9.26,10.04,12.43c4.97,3.47,10.57,4.99,16.57,5.09
	c3.73,0.07,7.46,0.06,11.2,0.02c5.08-0.05,10.11-0.61,15.09-1.63c5.93-1.22,11.58-3.28,17.1-5.73c2.97-1.32,5.95-2.64,8.96-3.84
	c3.04-1.21,6.22-1.96,9.51-1.91c4.63,0.07,9.23,0.54,13.8,1.3c6.5,1.07,12.82,2.8,19.01,5.03c4.83,1.74,9.62,3.58,14.44,5.32
	c4.14,1.5,8.37,2.7,12.75,3.27c0.59,0.08,1.18,0.19,1.78,0.29c2.94,0,5.87,0,8.8,0c0.41-0.05,0.82-0.13,1.23-0.16
	c3.53-0.29,7.06-0.5,10.58-0.87c5.99-0.63,11.95-1.52,17.88-2.63c1.59-0.3,3.24-0.52,4.73-1.11c7.36-2.91,12.61-8.06,15.72-15.34
	c1.87-4.38,2.54-8.98,2.54-13.73C324,253.46,322.18,250.77,319.47,249.95z M148.6,161c4.05-4.26,9.03-6.64,14.89-6.94
	c13.12-0.67,21.62,9.35,22.92,17.8c-14.44,0-28.87,0-43.44,0C143.84,167.64,145.71,164.05,148.6,161z M310.36,261.69
	c-0.97,4.13-3.04,7.53-6.57,9.99c-1.58,1.1-3.35,1.48-5.18,1.8c-5.59,0.99-11.2,1.85-16.84,2.47c-5.2,0.57-10.41,0.96-15.65,1
	c-3.88,0.03-7.61-0.77-11.24-2.02c-4.58-1.58-9.11-3.3-13.65-4.98c-6.82-2.52-13.75-4.7-20.9-6.11c-4.44-0.88-8.92-1.52-13.44-1.84
	c-1.49-0.11-2.99-0.2-4.49-0.28c-4.84-0.26-9.52,0.6-14.1,2.11c-3.67,1.21-7.17,2.85-10.68,4.43c-4.48,2.01-9.05,3.8-13.85,4.91
	c-4.78,1.1-9.62,1.6-14.51,1.66c-3.25,0.04-6.51,0.02-9.76-0.01c-2.28-0.02-4.51-0.34-6.66-1.15c-2.83-1.08-5.05-2.93-6.77-5.41
	c-1.94-2.79-3.11-5.92-3.85-9.21c-1.77-7.88-1.58-15.72,0.69-23.46c1.4-4.8,3-9.55,4.56-14.3c2.12-6.46,3.98-12.98,5.18-19.68
	c0.82-4.56,1.39-9.14,1.65-13.76c0.05-0.89,0.12-1.78,0.19-2.77c20.06,0,40.01,0,60.02,0c0.09,0.24,0.19,0.47,0.25,0.7
	c1.96,7.21,5.72,13.29,11.55,17.97c10.97,8.8,21.8,17.78,33.24,25.98c12.4,8.89,25.34,16.93,38.53,24.59
	c2.64,1.53,5.41,2.56,8.38,3.09c4.64,0.82,9.3,1.57,13.95,2.32c3.02,0.49,6.05,0.93,9.07,1.39c0.28,0.04,0.55,0.12,0.86,0.19
	C310.35,261.45,310.39,261.58,310.36,261.69z"/>
</svg>
