<?xml version="1.0" encoding="utf-8"?>
<!-- Generator: Adobe Illustrator 25.2.3, SVG Export Plug-In . SVG Version: 6.00 Build 0)  -->
<svg version="1.1" id="Layer_1" xmlns="http://www.w3.org/2000/svg" xmlns:xlink="http://www.w3.org/1999/xlink" x="0px" y="0px"
	 viewBox="0 0 432 432" style="enable-background:new 0 0 432 432;" xml:space="preserve">
<g>
	<path d="M272,400.98c-0.5-0.08-1-0.18-1.5-0.24c-3.71-0.49-7.28-1.5-10.79-2.77c-4.08-1.47-8.14-3.03-12.22-4.5
		c-5.23-1.89-10.59-3.35-16.08-4.26c-3.86-0.64-7.75-1.04-11.67-1.1c-2.79-0.04-5.47,0.59-8.04,1.61c-2.55,1.02-5.07,2.13-7.58,3.25
		c-4.67,2.07-9.45,3.81-14.46,4.85c-4.21,0.87-8.47,1.34-12.77,1.38c-3.16,0.03-6.31,0.04-9.47-0.02
		c-5.08-0.09-9.81-1.37-14.01-4.31c-3.84-2.68-6.55-6.29-8.49-10.52c-1.6-3.48-2.55-7.15-3.09-10.94c-0.44-3.08-0.57-6.18-0.5-9.28
		c0.1-4.32,0.84-8.54,2.07-12.66c1.21-4.05,2.55-8.07,3.87-12.09c1.65-5.03,3.11-10.1,4.04-15.32c0.62-3.51,1.07-7.04,1.22-10.6
		c0.09-2.21,0.13-4.42,0.15-6.64c0.03-3.2,2.22-5.52,5.42-5.7c0.48-0.03,0.97,0,1.52,0c0.07-0.26,0.14-0.49,0.18-0.71
		c1.16-7.52,4.69-13.71,10.5-18.6c0.48-0.4,0.68-0.79,0.68-1.42c-0.02-21.22-0.01-42.43-0.01-63.65c0-0.29,0-0.59,0-0.95
		c-0.28-0.02-0.52-0.06-0.75-0.06c-1.24-0.01-2.48-0.04-3.72,0c-3.26,0.12-5.73-2.61-5.72-5.72c0.04-23.75,0.02-47.51,0.02-71.26
		c0-0.35,0-0.7,0-1.05c-0.26-0.16-0.48-0.31-0.71-0.45c-9.59-5.98-16.6-14.17-20.93-24.62c-10.15-24.52-20.28-49.04-30.41-73.57
		c-0.26-0.62-0.48-1.25-0.73-1.87c0-0.43,0-0.86,0-1.3c0.11-0.27,0.25-0.53,0.33-0.81c0.68-2.39,2.77-4.01,5.25-4.07
		c0.22,0,0.43,0,0.65,0c33.38,0,66.75,0,100.13,0c0.54,0,1.09-0.01,1.61,0.1c2.07,0.42,3.43,1.67,4.23,3.61
		c2.85,6.93,5.72,13.86,8.58,20.79c2.5,6.06,5.05,12.1,7.49,18.18c2.65,6.6,3.88,13.48,3.61,20.58
		c-0.51,13.35-5.36,24.93-14.5,34.68c-2.09,2.23-4.39,4.24-6.88,6.01c-0.52,0.37-0.7,0.77-0.7,1.4c0.02,24.35,0.01,48.7,0.01,73.05
		c0,0.72-0.02,1.47-0.18,2.17c-0.58,2.42-2.66,4.08-5.15,4.14c-1.38,0.03-2.75,0.01-4.13,0.01c-0.18,0-0.37,0.02-0.6,0.04
		c-0.04,0.2-0.08,0.38-0.09,0.56c-0.02,0.24,0,0.49,0,0.73c0,21,0,42,0,63.01c0,0.16,0.02,0.33,0,0.49
		c-0.06,0.5,0.13,0.84,0.54,1.17c1.98,1.6,3.72,3.44,5.22,5.51c2.84,3.91,4.65,8.25,5.37,13.04c0.03,0.19,0.07,0.37,0.11,0.56
		c0.02,0.08,0.05,0.15,0.09,0.25c0.21,0.03,0.41,0.07,0.63,0.1c2.66,0.29,4.59,2.19,4.97,4.87c0.3,2.14,0.79,4.24,1.6,6.25
		c0.96,2.39,2.36,4.49,4.26,6.23c1.09,1,2.25,1.94,3.41,2.86c6.3,5,12.54,10.07,18.92,14.97c10.54,8.1,21.69,15.3,33.13,22.04
		c1.58,0.93,3.19,1.81,4.75,2.78c1.17,0.73,2.42,1.18,3.76,1.41c3.62,0.61,7.23,1.2,10.85,1.8c4.2,0.7,8.4,1.39,12.6,2.11
		c0.79,0.14,1.57,0.4,2.34,0.63c2.3,0.69,3.83,2.97,3.83,5.24c0,4.02-0.56,7.91-2.14,11.61c-2.63,6.16-7.07,10.51-13.3,12.97
		c-1.26,0.5-2.65,0.69-4,0.94c-5.01,0.94-10.05,1.69-15.12,2.22c-2.98,0.31-5.97,0.49-8.95,0.73c-0.35,0.03-0.69,0.09-1.04,0.14
		C276.96,400.98,274.48,400.98,272,400.98z M211.26,42.11c-29.79,0-59.49,0-89.27,0c0.11,0.31,0.18,0.56,0.28,0.8
		c9.05,21.88,18.07,43.77,27.15,65.64c7.79,18.77,27.89,29.07,47.65,24.37c17.98-4.27,30.29-19.43,31.65-37.2
		c0.48-6.28-0.46-12.39-2.86-18.23c-4.33-10.55-8.7-21.09-13.06-31.63C212.3,44.62,211.79,43.37,211.26,42.11z M163.7,312.24
		c-0.06,0.84-0.12,1.59-0.16,2.34c-0.22,3.91-0.7,7.79-1.39,11.64c-1.02,5.67-2.59,11.18-4.38,16.65c-1.32,4.02-2.67,8.04-3.85,12.1
		c-1.92,6.55-2.08,13.18-0.58,19.85c0.63,2.78,1.62,5.43,3.26,7.79c1.45,2.09,3.33,3.66,5.73,4.57c1.81,0.69,3.7,0.96,5.63,0.98
		c2.75,0.03,5.5,0.04,8.25,0.01c4.14-0.05,8.23-0.47,12.27-1.41c4.07-0.94,7.92-2.45,11.72-4.15c2.98-1.34,5.93-2.72,9.04-3.74
		c3.87-1.28,7.83-2,11.93-1.78c1.27,0.07,2.53,0.15,3.79,0.24c3.82,0.27,7.61,0.81,11.37,1.56c6.05,1.2,11.9,3.03,17.67,5.17
		c3.84,1.42,7.67,2.87,11.55,4.21c3.07,1.06,6.23,1.73,9.51,1.71c4.43-0.03,8.84-0.36,13.24-0.85c4.77-0.52,9.51-1.25,14.24-2.09
		c1.55-0.27,3.05-0.6,4.38-1.53c2.99-2.08,4.74-4.95,5.56-8.45c0.02-0.09-0.01-0.2-0.02-0.33c-0.26-0.06-0.49-0.13-0.73-0.16
		c-2.56-0.39-5.12-0.77-7.67-1.18c-3.94-0.64-7.88-1.27-11.8-1.96c-2.51-0.44-4.85-1.31-7.08-2.61
		c-11.16-6.48-22.1-13.28-32.59-20.8c-9.68-6.94-18.84-14.53-28.12-21.98c-4.93-3.96-8.11-9.1-9.77-15.2
		c-0.05-0.2-0.14-0.39-0.21-0.6C197.55,312.24,180.67,312.24,163.7,312.24z M206.61,204.65c0.18-0.55,0.23-62.06,0.05-63.14
		c-11.45,4.39-23.05,4.76-34.79,1.18c0,20.72,0,41.32,0,61.96C183.48,204.65,195.05,204.65,206.61,204.65z M196.53,275.83
		c0-20.06,0-40.04,0-60.01c-1.1-0.16-13.92-0.12-14.5,0.05c0,19.96,0,39.92,0,59.97C186.88,274.63,191.69,274.63,196.53,275.83z
		 M170.89,301.07c12.32,0,24.53,0,36.74,0c-1.1-7.14-8.29-15.62-19.39-15.05c-4.96,0.25-9.17,2.27-12.59,5.87
		C173.2,294.47,171.62,297.5,170.89,301.07z"/>
</g>
</svg>
