<svg enable-background="new 0 0 432 432" viewBox="0 0 432 432" xmlns="http://www.w3.org/2000/svg"><path d="m260.19 141.58c-1.78 0-3.22-1.44-3.22-3.22v-43.26c0-3.84-3.12-6.96-6.96-6.96h-128.62c-1.78 0-3.22-1.44-3.22-3.22s1.44-3.22 3.22-3.22h128.63c7.38 0 13.39 6.01 13.39 13.39v43.26c0 1.79-1.44 3.23-3.22 3.23z"/><path d="m131.56 221.37c-1.78 0-3.22-1.44-3.22-3.22v-104.31l-17.11.09c-.82.06-1.68-.33-2.28-.94-.61-.6-.95-1.42-.95-2.28v-15.61c0-7.38 6.01-13.39 13.39-13.39s13.39 6.01 13.39 13.39v123.05c-.01 1.78-1.45 3.22-3.22 3.22zm-10.17-133.22c-3.84 0-6.96 3.12-6.96 6.96v12.38l13.91-.08v-12.31c0-3.83-3.12-6.95-6.95-6.95z"/><path d="m183.02 192.53h-19.83c-4.23 0-7.66-3.1-7.66-6.9v-38.24c0-3.81 3.44-6.9 7.66-6.9h19.83c4.23 0 7.66 3.1 7.66 6.9v38.24c0 3.8-3.43 6.9-7.66 6.9zm-19.83-45.62c-.74 0-1.18.36-1.24.51v38.21c.05.11.49.47 1.23.47h19.83c.74 0 1.18-.36 1.24-.5v-38.21c-.05-.11-.49-.47-1.23-.47h-19.83z"/><path d="m209.97 193.7c-5.73 0-11.03-.58-14.18-1.72-1.18-.43-2.13-.94-2.87-1.55l-5.9.1c-1.8 0-3.24-1.38-3.27-3.16s1.38-3.24 3.16-3.27l7.41-.13c1.19.03 2.26.6 2.84 1.6 3.27 2.34 24.63 2.5 32.01-1.25 1.63-.83 2.56-1.76 2.77-2.75.3-1.44-.81-3.22-1.22-3.73-1.04-1.28-.96-3.16.2-4.32 3.93-3.93.8-8.83.43-9.38-.77-1.14-.75-2.67.09-3.77 3.82-5.02.39-9.25-.01-9.72-.83-.96-1.04-2.35-.5-3.5 1.42-3.02 1.81-5.42 1.11-6.77-.56-1.07-1.83-1.33-1.84-1.33-.53.02-17.01.24-17.01.24-.02 0-.03 0-.04 0-1.29 0-2.46-.77-2.96-1.97-.51-1.21-.24-2.6.69-3.52 3.43-3.43 8-11.56 7.29-15.75-.15-.89-.52-1.41-1.28-1.77-1.54-.73-4.06 4.03-6.08 7.88-2.53 4.84-5.4 10.32-9.76 13.02-7.42 4.6-10.6 11.47-10.63 11.54-.73 1.62-2.64 2.33-4.26 1.6s-2.33-2.64-1.6-4.26c.16-.35 4.04-8.74 13.11-14.35 2.87-1.77 5.3-6.43 7.45-10.53 3.3-6.3 7.4-14.14 14.56-10.69 2.66 1.28 4.32 3.52 4.83 6.49.84 4.95-1.79 11.12-4.76 15.8 4.71-.06 10.27-.14 10.73-.14 1.11 0 4.76.76 6.9 4.13 1.88 2.96 1.92 6.77.14 11.34 1.98 3.23 3.52 8.67.25 14.34 1.63 3.43 2.66 8.79-.61 13.6.85 1.68 1.64 4.11 1.1 6.78-.42 2.08-1.83 5.01-6.16 7.22-4.85 2.45-13.92 3.65-22.13 3.65z"/><path d="m310.61 350.28h-128.63c-7.38 0-13.39-6-13.39-13.39v-43.26c0-1.78 1.44-3.22 3.22-3.22s3.22 1.44 3.22 3.22v43.26c0 3.83 3.12 6.96 6.96 6.96h128.63c1.78 0 3.22 1.44 3.22 3.22-.01 1.77-1.45 3.21-3.23 3.21z"/><path d="m310.61 350.28c-7.38 0-13.39-6-13.39-13.39v-117.88c0-1.78 1.44-3.22 3.22-3.22s3.22 1.44 3.22 3.22v99.15l17.11-.09c1.01.02 1.68.33 2.28.94.61.6.95 1.42.95 2.28v15.61c0 7.38-6.01 13.38-13.39 13.38zm-6.95-25.69v12.31c0 3.83 3.12 6.96 6.96 6.96s6.96-3.12 6.96-6.96v-12.38z"/><path d="m268.81 291.52h-19.83c-4.23 0-7.66-3.1-7.66-6.91v-38.24c0-3.81 3.44-6.9 7.66-6.9h19.83c4.23 0 7.66 3.1 7.66 6.9v38.24c0 3.81-3.43 6.91-7.66 6.91zm-19.83-45.62c-.73 0-1.18.36-1.24.51v38.2c.05.11.49.47 1.23.47h19.83c.74 0 1.18-.36 1.24-.51v-38.21c-.05-.11-.5-.47-1.23-.47h-19.83z"/><path d="m215.72 322.36c-1.05 0-2.17-.26-3.38-.84-2.66-1.28-4.32-3.52-4.83-6.49-.84-4.95 1.79-11.12 4.76-15.8-4.71.06-10.27.14-10.73.14-1.11 0-4.76-.76-6.9-4.14-1.88-2.96-1.92-6.77-.14-11.34-1.98-3.23-3.52-8.66-.25-14.34-1.63-3.43-2.66-8.79.61-13.59-.85-1.68-1.64-4.11-1.1-6.78.42-2.08 1.83-5.01 6.16-7.22 8.19-4.17 28.62-4.71 36.3-1.93 1.18.43 2.13.94 2.86 1.55l5.9-.11h.06c1.75 0 3.18 1.4 3.21 3.16.03 1.77-1.38 3.24-3.16 3.27l-7.41.13c-1.18-.03-2.26-.6-2.84-1.6-3.27-2.34-24.64-2.5-32.01 1.25-1.64.84-2.57 1.77-2.78 2.77-.3 1.49.9 3.32 1.21 3.69 1.07 1.28.99 3.16-.19 4.34-4.06 4.06-.59 9.14-.44 9.35.8 1.15.77 2.68-.08 3.79-3.96 5.2-.17 9.52-.01 9.7.87.96 1.07 2.35.52 3.52-1.42 3.02-1.81 5.42-1.11 6.77.56 1.07 1.83 1.33 1.84 1.33.53-.02 17-.24 17-.24 1.38.02 2.5.76 3.01 1.97s.24 2.6-.69 3.52c-3.43 3.43-8 11.56-7.29 15.75.15.89.52 1.41 1.28 1.77 1.57.74 4.06-4.03 6.08-7.88 2.53-4.84 5.4-10.32 9.76-13.02 7.42-4.59 10.6-11.47 10.63-11.54.73-1.62 2.63-2.34 4.25-1.6 1.62.73 2.33 2.64 1.6 4.26-.16.35-4.04 8.74-13.1 14.35-2.87 1.77-5.3 6.43-7.45 10.53-2.71 5.25-6 11.55-11.15 11.55z"/><path d="m127.33 257.46c-1.28 0-2.48-.76-2.98-2.02-.66-1.65.14-3.52 1.78-4.18l172.97-69.62c1.65-.67 3.52.14 4.18 1.78.66 1.65-.14 3.52-1.78 4.18l-172.97 69.62c-.39.17-.8.24-1.2.24z"/></svg>