<?xml version="1.0" encoding="utf-8"?>
<!-- Generator: Adobe Illustrator 25.2.3, SVG Export Plug-In . SVG Version: 6.00 Build 0)  -->
<svg version="1.1" id="Layer_1" xmlns="http://www.w3.org/2000/svg" xmlns:xlink="http://www.w3.org/1999/xlink" x="0px" y="0px"
	 viewBox="0 0 936 144" style="enable-background:new 0 0 936 144;" xml:space="preserve">
<style type="text/css">
	.st0{fill:#44546A;}
	.st1{fill:#FFFFFF;}
</style>
<g>
	<g>
		<path class="st0" d="M728,144c-36.26,0-65.75-32.3-65.75-72c0-25.56-17.16-46.36-38.25-46.36c-21.09,0-38.25,20.8-38.25,46.36
			c0,39.7-29.5,72-65.75,72c-36.25,0-65.74-32.3-65.74-72c0-25.56-17.16-46.36-38.25-46.36c-21.1,0-38.26,20.8-38.26,46.36
			c0,39.7-29.49,72-65.74,72s-65.74-32.3-65.74-72c0-25.56-17.16-46.36-38.26-46.36c-21.09,0-38.25,20.8-38.25,46.36
			c0,39.7-29.49,72-65.74,72H0v-25.64h104c21.09,0,38.25-20.8,38.25-46.36c0-39.7,29.49-72,65.74-72c36.26,0,65.75,32.3,65.75,72
			c0,25.56,17.16,46.36,38.25,46.36s38.25-20.8,38.25-46.36c0-39.7,29.5-72,65.75-72c36.25,0,65.74,32.3,65.74,72
			c0,25.56,17.16,46.36,38.25,46.36c21.1,0,38.26-20.8,38.26-46.36c0-39.7,29.49-72,65.74-72c36.25,0,65.74,32.3,65.74,72
			c0,25.56,17.16,46.36,38.26,46.36c21.09,0,38.25-20.8,38.25-46.36c0-39.7,29.49-72,65.74-72h104v25.64H832
			c-21.09,0-38.25,20.8-38.25,46.36C793.75,111.7,764.26,144,728,144z"/>
	</g>
	<g>
		<path class="st1" d="M520,132.44c-4.9,0-9.76-0.74-14.45-2.21l1.23-3.41c4.7,1.47,9.61,2.15,14.51,2.01l0.12,3.6
			C520.94,132.43,520.47,132.44,520,132.44z M312,132.44c-0.5,0-1.01-0.01-1.51-0.02l0.13-3.6c4.89,0.15,9.81-0.51,14.51-1.98
			l1.22,3.41C321.7,131.7,316.87,132.44,312,132.44z M103.62,132.44H88.18v-3.6h15.44V132.44z M76.59,132.44H61.15v-3.6h15.44
			V132.44z M49.57,132.44H34.12v-3.6h15.44V132.44z M22.54,132.44H7.09v-3.6h15.44V132.44z M728.3,132.44l-0.03-3.6
			c4.91-0.03,9.77-0.88,14.42-2.52l1.36,3.37C738.98,131.48,733.67,132.4,728.3,132.44z M115.56,131.03l-0.99-3.48
			c4.68-1.16,9.18-3.08,13.39-5.72l2.15,2.99C125.55,127.69,120.66,129.77,115.56,131.03z M716.34,131.01
			c-5.09-1.27-9.98-3.36-14.54-6.23l2.16-2.98c4.2,2.65,8.71,4.58,13.38,5.74L716.34,131.01z M533.3,130.57l-1.13-3.44
			c4.62-1.32,9.05-3.4,13.16-6.18l2.26,2.92C543.13,126.87,538.32,129.13,533.3,130.57z M298.61,130.54
			c-5.02-1.45-9.82-3.72-14.28-6.73l2.27-2.91c4.11,2.78,8.54,4.87,13.15,6.2L298.61,130.54z M337.2,125.39l-2.09-3.03
			c4.06-2.43,7.82-5.49,11.17-9.11l2.92,2.35C345.61,119.48,341.57,122.77,337.2,125.39z M494.73,125.34
			c-4.36-2.62-8.4-5.92-11.98-9.8l2.92-2.35c3.35,3.62,7.1,6.69,11.15,9.12L494.73,125.34z M754.69,124.46l-2.2-2.96
			c3.97-2.56,7.63-5.74,10.86-9.44l2.99,2.27C762.88,118.3,758.96,121.7,754.69,124.46z M139.25,117.6l-2.79-2.48
			c3.35-3.28,6.32-7.06,8.82-11.22l3.37,1.76C145.99,110.09,142.83,114.11,139.25,117.6z M692.68,117.54
			c-3.57-3.5-6.73-7.53-9.38-11.96l3.37-1.75c2.49,4.17,5.45,7.94,8.8,11.23L692.68,117.54z M556.47,116.38l-2.87-2.4
			c3.25-3.38,6.11-7.23,8.48-11.45l3.42,1.67C562.97,108.68,559.94,112.78,556.47,116.38z M275.47,116.31
			c-3.46-3.61-6.49-7.71-9.01-12.19l3.42-1.67c2.37,4.22,5.22,8.08,8.47,11.46L275.47,116.31z M356.11,106.54l-3.34-1.81
			c2.47-3.96,4.49-8.27,6-12.8l3.69,1.07C360.85,97.79,358.72,102.35,356.11,106.54z M475.85,106.47c-2.61-4.2-4.74-8.75-6.33-13.54
			l3.69-1.07c1.51,4.53,3.52,8.84,5.98,12.8L475.85,106.47z M772.98,105.1l-3.39-1.73c2.36-4.03,4.26-8.38,5.66-12.94l3.71,0.99
			C777.49,96.24,775.48,100.84,772.98,105.1z M153.55,95.55l-3.64-1.2c1.65-4.35,2.83-8.93,3.5-13.61l3.83,0.47
			C156.53,86.15,155.29,90.97,153.55,95.55z M678.42,95.47c-1.74-4.58-2.97-9.41-3.67-14.34l3.83-0.47
			c0.66,4.69,1.84,9.27,3.48,13.62L678.42,95.47z M570.13,93.99l-3.67-1.12c1.54-4.39,2.61-8.99,3.16-13.69l3.84,0.39
			C572.87,84.51,571.75,89.36,570.13,93.99z M261.85,93.9c-1.62-4.62-2.73-9.48-3.31-14.42l3.84-0.39c0.55,4.69,1.61,9.3,3.14,13.69
			L261.85,93.9z M365.08,82.21l-3.82-0.52c0.53-3.37,0.8-6.84,0.8-10.29c0-1.29,0.04-2.6,0.11-3.9l3.86,0.19
			c-0.07,1.23-0.1,2.48-0.1,3.71C365.93,75.03,365.64,78.67,365.08,82.21z M466.9,82.13c-0.55-3.52-0.83-7.13-0.83-10.73
			c0-1.26-0.04-2.54-0.11-3.79l3.86-0.19c0.08,1.32,0.11,2.66,0.11,3.98c0,3.43,0.27,6.86,0.79,10.21L466.9,82.13z M781.33,80.58
			l-3.83-0.44c0.38-2.87,0.58-5.81,0.58-8.73c0-1.86,0.07-3.72,0.22-5.55l3.85,0.27c-0.14,1.74-0.21,3.52-0.21,5.28
			C781.93,74.47,781.73,77.56,781.33,80.58z M157.94,70.23l-3.86-0.06c0.09-4.96,0.7-9.88,1.83-14.64l3.77,0.78
			C158.61,60.83,158.02,65.52,157.94,70.23z M674.05,70.15c-0.09-4.72-0.68-9.4-1.75-13.92l3.77-0.78
			c1.13,4.75,1.75,9.67,1.84,14.64L674.05,70.15z M573.99,68.66l-3.86-0.14c0.2-4.96,0.94-9.87,2.18-14.6l3.75,0.86
			C574.88,59.28,574.18,63.94,573.99,68.66z M258.01,68.57c-0.2-4.72-0.9-9.38-2.09-13.87l3.75-0.86c1.25,4.73,1.99,9.64,2.2,14.59
			L258.01,68.57z M367.46,57.26l-3.78-0.73c1.08-4.89,2.7-9.62,4.81-14.06l3.53,1.46C370.02,48.14,368.48,52.62,367.46,57.26z
			 M464.52,57.18c-1.03-4.63-2.57-9.11-4.58-13.32l3.53-1.46c2.12,4.44,3.75,9.17,4.83,14.05L464.52,57.18z M783.82,55.72
			l-3.76-0.81c1.2-4.87,2.94-9.56,5.18-13.95l3.49,1.54C786.61,46.66,784.96,51.11,783.82,55.72z M162.97,46.27l-3.59-1.33
			c1.99-4.68,4.51-9.06,7.48-13.03l3.16,2.06C167.22,37.72,164.85,41.85,162.97,46.27z M669,46.2c-1.88-4.42-4.27-8.55-7.08-12.29
			l3.16-2.07c2.98,3.97,5.51,8.35,7.5,13.02L669,46.2z M579.61,44.82l-3.55-1.41c2.12-4.64,4.76-8.96,7.85-12.85l3.1,2.14
			C584.1,36.37,581.61,40.44,579.61,44.82z M252.36,44.74c-2-4.37-4.5-8.45-7.42-12.1l3.1-2.15c3.1,3.88,5.75,8.2,7.87,12.84
			L252.36,44.74z M377.44,34.76l-3.2-2.01c3.05-4.22,6.59-7.97,10.52-11.13l2.52,2.73C383.62,27.3,380.31,30.81,377.44,34.76z
			 M454.51,34.7c-2.87-3.96-6.19-7.45-9.86-10.4l2.52-2.73c3.93,3.15,7.48,6.89,10.54,11.11L454.51,34.7z M794.4,33.48l-3.14-2.09
			c3.18-4.15,6.84-7.79,10.88-10.83l2.43,2.8C800.8,26.19,797.38,29.6,794.4,33.48z M177.29,26.05l-2.67-2.6
			c3.98-3.55,8.36-6.44,13.04-8.59l1.71,3.23C185.05,20.07,180.98,22.75,177.29,26.05z M654.65,25.99
			c-3.7-3.29-7.77-5.96-12.09-7.95l1.7-3.23c4.68,2.14,9.07,5.03,13.05,8.57L654.65,25.99z M594.51,24.99l-2.58-2.68
			c4.1-3.43,8.59-6.18,13.35-8.17l1.58,3.28C602.47,19.26,598.31,21.8,594.51,24.99z M237.42,24.93c-3.8-3.18-7.97-5.71-12.37-7.55
			l1.57-3.29c4.77,1.98,9.27,4.73,13.37,8.15L237.42,24.93z M396.46,18.51l-1.79-3.19c4.85-2.37,9.99-3.9,15.25-4.57l0.52,3.57
			C405.62,14.93,400.92,16.34,396.46,18.51z M435.46,18.47c-4.46-2.16-9.17-3.57-13.99-4.17l0.51-3.57
			c5.27,0.66,10.41,2.19,15.26,4.54L435.46,18.47z M813.94,17.82l-1.66-3.25c4.93-2.19,10.13-3.54,15.44-4.01l0.37,3.58
			C823.23,14.57,818.47,15.81,813.94,17.82z M199.81,14.73l-0.77-3.53c5.26-0.99,10.75-1.1,16.04-0.32l-0.61,3.56
			C209.64,13.72,204.61,13.82,199.81,14.73z M632.1,14.71c-2.66-0.5-5.38-0.75-8.09-0.75c0,0,0,0-0.01,0c-2.2,0-4.4,0.16-6.57,0.49
			l-0.62-3.55c2.36-0.36,4.78-0.54,7.18-0.54c0,0,0,0,0.01,0c2.97,0,5.95,0.28,8.85,0.82L632.1,14.71z M936,13.96h-15.44v-3.6H936
			V13.96z M908.97,13.96h-15.44v-3.6h15.44V13.96z M881.95,13.96H866.5v-3.6h15.44V13.96z M854.92,13.96h-15.44v-3.6h15.44V13.96z"
			/>
	</g>
</g>
</svg>
