<?xml version="1.0" encoding="utf-8"?>
<!-- Generator: Adobe Illustrator 25.2.3, SVG Export Plug-In . SVG Version: 6.00 Build 0)  -->
<svg version="1.1" id="Layer_1" xmlns="http://www.w3.org/2000/svg" xmlns:xlink="http://www.w3.org/1999/xlink" x="0px" y="0px"
	 viewBox="0 0 432 432" style="enable-background:new 0 0 432 432;" xml:space="preserve">
<g>
	<path d="M178.1,408.39c0.01-0.44,0.04-0.88,0.04-1.32c0-28.3,0-56.59,0-84.89c0-0.48,0-0.95,0-1.52c-31.25,0-62.43,0-93.77,0
		c0,0.51,0,1.02,0,1.52c0,28.22,0,56.43,0,84.65c0,0.52-0.03,1.04-0.04,1.56c-5.84,0-11.67,0-17.51,0c0-29.21,0-58.42,0-87.78
		c-4.63,0-9.2,0-13.83,0c0-5.92,0-11.7,0-17.55c51.34,0,102.68,0,154.09,0c1.21,5.78,2.43,11.58,3.66,17.49c-4.84,0-9.84,0-15.01,0
		c0,0.61,0,1.07,0,1.54c0,28.3,0,56.59,0,84.89c0,0.47,0.07,0.95,0.11,1.42C189.94,408.39,184.02,408.39,178.1,408.39z"/>
	<path d="M249.81,408.39c-0.72-4.05-1.45-8.09-2.15-12.14c-2.22-12.9-4.43-25.8-6.65-38.71c-0.88-5.15-1.77-10.31-2.65-15.46
		c-0.03-0.15,0-0.31,0-0.56c5.4,0.31,10.51-0.73,15.45-3.09c0.67,3.9,1.33,7.66,1.97,11.43c1.72,10.03,3.43,20.06,5.14,30.1
		c1.56,9.13,3.13,18.25,4.7,27.38c0.06,0.35,0.16,0.7,0.24,1.04C260.53,408.39,255.17,408.39,249.81,408.39z"/>
	<path d="M130.42,203.84c2.32,13.22,4.61,26.22,6.92,39.33c0.57,0,1.08,0,1.6,0c29.9,0,59.79,0,89.69,0c4.69,0,9.34,0.35,13.82,1.9
		c7.85,2.71,12.81,8.29,15.24,16.03c1.31,4.17,2.05,8.53,2.87,12.83c1.96,10.23,3.93,20.46,5.69,30.73
		c2.35,13.76-5.99,27.08-19.78,30.29c-14.99,3.5-29.1-6.15-31.89-21.59c-1.01-5.57-2.22-11.11-3.3-16.67
		c-0.13-0.69-0.4-0.98-1.09-0.92c-0.36,0.03-0.72,0.01-1.08,0.01c-27.18,0-54.36,0.01-81.54-0.01c-6.67,0-13.35,0.07-20.02-0.16
		c-7.29-0.25-14.25-1.87-20.35-6.15c-6.19-4.35-9.96-10.46-11.94-17.59c-1.44-5.18-2.4-10.5-3.36-15.79
		c-3.06-16.81-6.04-33.63-9.02-50.45c-2.46-13.91-4.86-27.84-7.34-41.75c-0.71-3.99-1.25-7.96-0.93-12.02
		c1.22-15.29,12.33-27.93,27.38-30.36c10.95-1.76,20.6,1.03,28.69,8.69c5.55,5.26,8.73,11.82,10.11,19.3
		c1.27,6.91,2.56,13.82,3.76,20.74c0.18,1.04,0.57,1.24,1.53,1.24c25.42-0.03,50.84-0.02,76.26-0.02c4.44,0,8.64,0.86,12.34,3.5
		c5.21,3.72,7.51,9.75,6.09,16.02c-1.5,6.66-6.1,11.3-12.51,12.31c-2.59,0.41-5.25,0.52-7.87,0.53
		c-22.78,0.04-45.56,0.02-68.35,0.02C131.56,203.84,131.08,203.84,130.42,203.84z"/>
	<path d="M89.48,27.31c24.2-0.4,43.43,18.87,43.78,41.89c0.37,24.42-19.21,43.27-41.83,43.77c-24.07,0.53-43.46-18.62-43.86-42.12
		C47.16,47.5,65.43,27.82,89.48,27.31z"/>
	<path d="M349.95,77.77c1.02,0.89,1.9,1.58,2.69,2.36c2.18,2.17,4.37,4.34,6.46,6.59c13.22,14.26,13.86,36.19,1.53,51.24
		c-0.83,1.02-1.67,2.03-2.42,2.95c-30.27-30.28-60.5-60.51-90.8-90.8c2.94-2.55,6.11-5.07,9.75-6.94c14.82-7.61,32.99-5,44.99,6.54
		c2.82,2.71,5.47,5.61,8.15,8.37c11.65-11.65,23.11-23.11,34.47-34.48c6.68,6.68,13.17,13.17,19.67,19.67
		C373.12,54.6,361.69,66.03,349.95,77.77z"/>
	<path d="M269.24,104.8c-0.02,3.63-3.05,6.57-6.71,6.53c-3.63-0.04-6.51-2.99-6.48-6.62c0.04-3.67,2.99-6.52,6.72-6.49
		C266.45,98.25,269.25,101.1,269.24,104.8z"/>
	<path d="M295.14,211.96c-0.01-3.68,2.94-6.68,6.57-6.68c3.59-0.01,6.57,2.96,6.58,6.55c0.01,3.69-2.93,6.64-6.6,6.64
		C298,218.46,295.15,215.64,295.14,211.96z"/>
	<path d="M213.57,135.9c-0.02-3.69,2.89-6.63,6.58-6.66c3.65-0.02,6.65,2.96,6.64,6.61c-0.02,3.55-3.01,6.5-6.62,6.54
		C216.52,142.43,213.59,139.54,213.57,135.9z"/>
	<path d="M272.43,194.73c-3.67-0.01-6.54-2.89-6.51-6.54c0.03-3.66,3.02-6.6,6.68-6.57c3.66,0.03,6.54,2.93,6.51,6.56
		C279.08,191.84,276.13,194.74,272.43,194.73z"/>
	<path d="M268.01,66.81c3.65-0.01,6.56,2.83,6.62,6.47c0.06,3.66-2.87,6.62-6.57,6.64c-3.69,0.02-6.64-2.92-6.62-6.59
		C261.47,69.68,264.35,66.82,268.01,66.81z"/>
	<path d="M220.21,102.1c-3.62-0.02-6.52-2.96-6.49-6.59c0.03-3.61,2.97-6.55,6.56-6.56c3.64-0.01,6.63,2.98,6.63,6.63
		C226.9,99.22,223.91,102.13,220.21,102.1z"/>
	<path d="M196.37,113.18c-3.68-0.02-6.52-2.87-6.51-6.54c0-3.71,2.96-6.63,6.64-6.56c3.67,0.07,6.54,2.94,6.55,6.57
		C203.06,110.31,200.11,113.19,196.37,113.18z"/>
	<path d="M282.24,132.6c-3.63,0.01-6.53-2.89-6.52-6.54c0-3.66,3-6.66,6.62-6.64c3.59,0.03,6.57,3.01,6.57,6.58
		C288.9,129.62,285.9,132.59,282.24,132.6z"/>
	<path d="M312.99,181.45c3.64,0.06,6.42,2.98,6.37,6.68c-0.05,3.54-3.11,6.54-6.65,6.51c-3.65-0.03-6.56-3.05-6.5-6.74
		C306.27,184.27,309.3,181.39,312.99,181.45z"/>
	<path d="M244.16,77.88c3.68-0.01,6.62,2.92,6.61,6.61c-0.01,3.59-2.95,6.52-6.58,6.54c-3.66,0.02-6.61-2.94-6.61-6.63
		C237.59,80.8,240.52,77.89,244.16,77.88z"/>
	<path d="M241.27,126.85c-3.62-0.03-6.5-2.99-6.44-6.62c0.06-3.69,2.99-6.53,6.72-6.49c3.61,0.04,6.51,2.99,6.47,6.61
		C247.98,123.97,244.95,126.88,241.27,126.85z"/>
	<path d="M328.44,140.28c0.01-3.69,2.92-6.57,6.63-6.56c3.64,0.01,6.52,2.94,6.48,6.58c-0.04,3.66-3.07,6.67-6.66,6.61
		C331.25,146.84,328.43,143.95,328.44,140.28z"/>
	<path d="M256.49,145.32c0-3.69,2.9-6.61,6.6-6.64c3.58-0.03,6.59,2.96,6.59,6.54c-0.01,3.61-3,6.6-6.66,6.64
		C259.41,151.9,256.49,148.98,256.49,145.32z"/>
	<path d="M288.05,160.36c3.65,0.01,6.62,2.93,6.61,6.49c-0.01,3.61-3.03,6.66-6.63,6.69c-3.62,0.03-6.58-2.97-6.56-6.66
		C281.49,163.27,284.43,160.35,288.05,160.36z"/>
	<path d="M323.78,170.7c-3.6-0.01-6.56-2.99-6.53-6.57c0.03-3.63,3.1-6.64,6.7-6.58c3.6,0.05,6.5,3.02,6.48,6.63
		C330.41,167.89,327.54,170.71,323.78,170.7z"/>
	<path d="M277.29,89.24c0-3.65,2.97-6.57,6.67-6.56c3.6,0.01,6.56,2.95,6.58,6.54c0.02,3.55-3.11,6.63-6.7,6.6
		C280.25,95.79,277.29,92.82,277.29,89.24z"/>
	<path d="M297.02,145.67c0.01-3.66,3-6.63,6.64-6.59c3.55,0.03,6.49,2.96,6.53,6.48c0.04,3.66-3,6.68-6.7,6.67
		C299.81,152.22,297,149.38,297.02,145.67z"/>
	<path d="M308.09,106.78c0,3.66-3,6.63-6.65,6.59c-3.54-0.03-6.47-2.97-6.5-6.51c-0.03-3.66,2.95-6.65,6.61-6.64
		C305.19,100.24,308.09,103.15,308.09,106.78z"/>
	<path d="M325.64,124.36c0,3.7-2.89,6.64-6.55,6.64c-3.62,0.01-6.55-2.9-6.56-6.51c-0.01-3.68,2.9-6.6,6.58-6.6
		C322.82,117.89,325.64,120.68,325.64,124.36z"/>
	<path d="M243.9,157.95c3.64,0,6.58,2.91,6.58,6.49c0,3.59-3.06,6.62-6.67,6.61c-3.65-0.01-6.5-2.88-6.5-6.55
		C237.3,160.78,240.15,157.95,243.9,157.95z"/>
</g>
</svg>
