<?xml version="1.0" encoding="utf-8"?>
<!-- Generator: Adobe Illustrator 25.2.3, SVG Export Plug-In . SVG Version: 6.00 Build 0)  -->
<svg version="1.1" id="Layer_1" xmlns="http://www.w3.org/2000/svg" xmlns:xlink="http://www.w3.org/1999/xlink" x="0px" y="0px"
	 viewBox="0 0 432 432" style="enable-background:new 0 0 432 432;" xml:space="preserve">
<style type="text/css">
	.st0{fill:#0B8459;}
	.st1{fill:#F6F6F6;}
</style>
<g>
	<path class="st0" d="M348.89,255.36H83.11c-6.14,0-11.11-4.97-11.11-11.11V107.79c0-6.14,4.97-11.11,11.11-11.11h265.78
		c6.14,0,11.11,4.97,11.11,11.11v136.47C360,250.39,355.03,255.36,348.89,255.36z"/>
	<g>
		<path class="st1" d="M344.01,249.79H87.99c-5.74,0-10.42-4.67-10.42-10.42v-126.7c0-5.74,4.67-10.42,10.42-10.42h256.02
			c5.74,0,10.42,4.67,10.42,10.42v126.7C354.42,245.12,349.75,249.79,344.01,249.79z M87.99,107.03c-3.11,0-5.64,2.53-5.64,5.64
			v126.7c0,3.11,2.53,5.64,5.64,5.64h256.02c3.11,0,5.64-2.53,5.64-5.64v-126.7c0-3.11-2.53-5.64-5.64-5.64H87.99z"/>
	</g>
</g>
<g>
	<rect x="114.82" y="255.36" width="7.83" height="79.96"/>
	<rect x="116.09" y="258.54" width="2.65" height="73.61"/>
</g>
<g>
	<rect x="309.35" y="255.36" width="7.83" height="79.96"/>
	<rect x="310.62" y="258.54" width="2.65" height="73.61"/>
</g>
</svg>
