<?xml version="1.0" encoding="utf-8"?>
<!-- Generator: Adobe Illustrator 25.2.3, SVG Export Plug-In . SVG Version: 6.00 Build 0)  -->
<svg version="1.1" id="Layer_1" xmlns="http://www.w3.org/2000/svg" xmlns:xlink="http://www.w3.org/1999/xlink" x="0px" y="0px"
	 viewBox="0 0 432 432" style="enable-background:new 0 0 432 432;" xml:space="preserve">
<style type="text/css">
	.st0{fill-rule:evenodd;clip-rule:evenodd;fill:#FDBF01;}
	.st1{fill:#1F1A17;}
</style>
<g id="HawWQz_1_">
	<path class="st0" d="M77.35,203.03L203.03,77.35c7.14-7.14,18.81-7.14,25.95,0l125.67,125.67c7.14,7.14,7.14,18.81,0,25.95
		L228.97,354.65c-7.14,7.14-18.81,7.14-25.95,0L77.35,228.98C70.22,221.84,70.22,210.16,77.35,203.03"/>
	<path class="st1" d="M102.82,195.87l93.05-93.05c5.55-5.55,12.84-8.32,20.13-8.32s14.58,2.77,20.13,8.32l93.05,93.05
		c5.55,5.55,8.32,12.84,8.32,20.13c0,7.28-2.77,14.58-8.32,20.13l-93.05,93.05c-5.55,5.55-12.84,8.32-20.13,8.32
		s-14.58-2.77-20.13-8.32l-93.05-93.05c-5.55-5.55-8.32-12.84-8.32-20.13C94.5,208.72,97.28,201.42,102.82,195.87"/>
	<path class="st0" d="M113.35,206.39l93.05-93.05c5.28-5.28,13.93-5.28,19.21,0l93.05,93.05c5.28,5.28,5.28,13.93,0,19.21
		l-93.05,93.05c-5.28,5.28-13.93,5.28-19.21,0l-93.05-93.05C108.06,220.32,108.06,211.68,113.35,206.39"/>
</g>
</svg>
