<?xml version="1.0" encoding="utf-8"?>
<!-- Generator: Adobe Illustrator 25.2.3, SVG Export Plug-In . SVG Version: 6.00 Build 0)  -->
<svg version="1.1" id="Layer_1" xmlns="http://www.w3.org/2000/svg" xmlns:xlink="http://www.w3.org/1999/xlink" x="0px" y="0px"
	 viewBox="0 0 432 432" style="enable-background:new 0 0 432 432;" xml:space="preserve">
<g>
	<g>
		<ellipse transform="matrix(0.946 -0.3242 0.3242 0.946 -22.3338 87.0051)" cx="249.93" cy="110.53" rx="27.73" ry="27.73"/>
		<path d="M193.06,230.77c-3.21,3.97-16.67,20.08-25.68,22.86c-10.29,3.18-48.12,9.4-54.48,13.82c-6.36,4.42-4.47,17.91,3.18,20.89
			c7.65,2.98,51.01-7.6,62.59-11.73c8.94-3.19,26.13-22.11,28.83-25.12C202.87,244.68,197.91,237.57,193.06,230.77z"/>
		<path d="M299.26,202.01c0,0-25.22-1.1-27.91-1.21c-2.52-0.11-14.04-31.76-15.47-35.74l-5.18,40.91
			c3.02,4.65,11.1,16.77,13.27,16.77c2.69,0,34.87-0.09,34.87-0.09c7.06,0.06,9.91-3.86,10.23-10.9
			C309.39,204.7,304.38,202.25,299.26,202.01z"/>
		<path d="M180.84,163.72c-4.16,1.81-24.35,20.47-24.35,20.47c-3.97,3.23-9.42,4.84-13.87-0.64c-4.45-5.48-5.05-10.34,0.27-14.99
			c0,0,24.9-24.18,28.25-26c3.36-1.82,30.01-7.68,36.81-7.71s12.86-0.3,22.83,1.47c9.97,1.77,19.91,14.04,17.5,25.83l-9.61,75.84
			c0,0,20.32,32.22,22.98,39.47c2.67,7.25,2.69,56.82-0.39,65c-2.89,7.69-17.06,8.39-21.03,1.74c-3.97-6.65-1.26-49.87-3.38-59.44
			c-2.12-9.57-39.39-61.46-39.39-61.46l9.01-60.43C206.47,162.89,185,161.91,180.84,163.72z"/>
	</g>
	<circle cx="304.02" cy="310.09" r="21.05"/>
</g>
</svg>
