<?xml version="1.0" encoding="utf-8"?>
<!-- Generator: Adobe Illustrator 25.2.3, SVG Export Plug-In . SVG Version: 6.00 Build 0)  -->
<svg version="1.1" id="Layer_1" xmlns="http://www.w3.org/2000/svg" xmlns:xlink="http://www.w3.org/1999/xlink" x="0px" y="0px"
	 viewBox="0 0 432 432" style="enable-background:new 0 0 432 432;" xml:space="preserve">
<path id="path5894" d="M140.57,119.67l-0.89,0.97c-0.85,0.85-0.97,1.21-0.97,4.47c0,5.12,0,5.08,8.11,5.51
	c6.02,0.32,6.45,0.41,8.78,1.56c2.68,1.32,8.1,6.2,10.27,9.23l1.27,1.71h-7.67c-4.23,0-12.2,0.17-17.71,0.3l-10.05,0.22l-2.01,2.08
	c-2.52,2.62-4.53,6.53-7.74,15.18c-11.25,30.26-13.29,42.77-13.32,82.1v17.94l1.04,3.57c1.23,4.11,2.63,7.02,5.28,11.02
	c3.19,4.79,6.39,7.7,10.35,9.3c1.82,0.74,1.99,0.84,1.19,1.04c-1.3,0.33-1.79,1.78-1.79,5.21v2.98h-6.55c-6.8,0-8.73,0.34-9.38,1.56
	c-0.21,0.39-0.37,4.05-0.37,8.26v7.52l1.04,0.82l0.97,0.74h57.16h57.24l6.62-2.23c17.79-6.05,31.55-7.85,76.74-10.05
	c6.76-0.33,12.92-0.77,13.7-0.97c2.32-0.6,2.53-1.3,2.53-7.29c0-4.38-0.08-5.38-0.6-5.95c-0.34-0.38-0.84-0.74-1.12-0.74
	c-0.79,0-0.62-0.43,0.52-1.34l1.04-0.82l0.07-13.92c0.13-16.25-0.18-22.17-1.27-23.22c-0.43-0.42-3.34-1.41-7.29-2.46
	c-11.87-3.13-18.15-5.4-27.54-9.9c-13.03-6.25-20.85-11.42-30.29-20.17c-9.49-8.8-14.07-14.11-19.87-22.92
	c-5.93-9-9.29-15.57-17.57-34.39c-3.16-7.19-4.94-10.31-6.55-11.61c-1.28-1.04-1.62-1.17-6.4-1.49c-2.79-0.19-8.96-0.39-13.7-0.52
	s-8.63-0.43-8.63-0.6c0-0.69,3.65-4.56,6.48-6.92c4.62-3.86,5.95-4.39,13.1-4.84c7.68-0.48,7.67-0.46,7.67-5.51
	c0-3.26-0.04-3.61-0.89-4.47l-0.97-0.97h-34.98L140.57,119.67L140.57,119.67z M172.28,130.68h3.5c1.89,0,3.42,0.1,3.42,0.22
	c0,0.13-0.52,0.8-1.12,1.56c-0.59,0.76-1.24,1.76-1.49,2.23c-0.61,1.16-0.92,1.11-1.79-0.52c-0.41-0.77-1.15-1.87-1.64-2.46
	L172.28,130.68L172.28,130.68z M136.11,159.79h31.56h31.48l0.97,1.27c1.33,1.74,3.26,6.55,5.36,13.32
	c1.68,5.42,3.94,14.16,3.94,15.18c0,0.39-5.5,0.44-28.21,0.37c-54.08-0.17-56.19-0.15-55.97-0.89c0.11-0.36,0.81-3.16,1.56-6.18
	c2.29-9.22,6-18.88,8.49-22.03L136.11,159.79z M229.44,207.05l3.8,4.17c2.11,2.3,4.04,4.27,4.24,4.39
	c0.41,0.25,0.46,19.42,0.07,22.25c-0.13,0.97-0.32,1.74-0.45,1.71c-0.13-0.02-1.66-0.82-3.42-1.79l-3.27-1.79l-0.22-4.54
	c-0.13-2.5-0.37-9.04-0.52-14.51L229.44,207.05L229.44,207.05z M251.03,227.44l3.42,2.38l3.42,2.38v5.36c0,2.94-0.09,6.88-0.22,8.78
	c-0.14,1.9-0.4,3.42-0.52,3.42c-0.13-0.01-1.51-0.66-3.13-1.49l-2.98-1.49v-9.68L251.03,227.44L251.03,227.44z M132.09,228.04
	c5.87,0,10.64,4.77,10.64,10.64c0,5.87-4.77,10.57-10.64,10.57s-10.64-4.7-10.64-10.57C121.44,232.81,126.21,228.04,132.09,228.04z
	 M198.4,228.04c5.87,0,10.64,4.77,10.64,10.64c0,5.87-4.77,10.57-10.64,10.57s-10.64-4.7-10.64-10.57
	C187.76,232.81,192.53,228.04,198.4,228.04z M270.01,239.2l2.9,1.56c1.61,0.87,2.98,1.66,3.05,1.71c0.08,0.06,0,3.12-0.15,6.77
	c-0.19,4.55-0.38,6.57-0.67,6.55c-0.23-0.02-1.53-0.38-2.83-0.82l-2.31-0.74v-7.52V239.2z M287.57,247.24l1.71,0.67l1.71,0.6
	l0.07,5.95c0.11,6.49,0.23,6.17-2.23,5.51l-1.34-0.37l-0.22-4.99c-0.12-2.74-0.14-5.52,0-6.18L287.57,247.24z M302.16,252.23
	c0.05,0,0.08-0.03,0.15,0c0.33,0.13,0.78,0.22,0.97,0.22c0.19,0,0.37,2.18,0.37,4.91v4.91h-0.97h-0.97v-5.14
	C301.72,253.17,301.8,252.27,302.16,252.23L302.16,252.23z M169.75,286.1c15.6,0,15.87,0.03,15.48,0.74
	c-0.21,0.4-0.37,2.24-0.37,4.02v3.2h-15.11h-15.11v-3.35c0-1.86-0.24-3.52-0.45-3.65C152.87,286.25,155.04,286.1,169.75,286.1z"/>
</svg>
