<?xml version="1.0" encoding="utf-8"?>
<!-- Generator: Adobe Illustrator 25.2.3, SVG Export Plug-In . SVG Version: 6.00 Build 0)  -->
<svg version="1.1" id="Layer_1" xmlns="http://www.w3.org/2000/svg" xmlns:xlink="http://www.w3.org/1999/xlink" x="0px" y="0px"
	 viewBox="0 0 432 432" style="enable-background:new 0 0 432 432;" xml:space="preserve">
<g>
	<path d="M184.04,233.71h5.13v22.61l27.37-20.02v-68.65c0.65,1.35,1.32,2.89,1.97,4.69c3.12,8.64,5.74,22.83,5.73,44.97
		c0,4.22-0.1,8.75-0.3,13.57c-0.04,1.03-0.09,2.07-0.14,3.13l-3.13,2.29l3.49,4.77c0.44,1.19,1.13,2.25,2.01,3.14
		c1.49,1.5,3.5,2.49,5.78,2.63c0.17,0.01,0.35,0.02,0.52,0.02c4.66,0,8.56-3.63,8.83-8.34c0.11-1.9,0.21-3.75,0.29-5.58
		c0.05-1.06,0.08-2.08,0.12-3.11l15.52-11.35l-4.25-5.81l-11.05,8.08c0.01-1.02,0.02-2.04,0.02-3.04c0-0.13,0-0.27,0-0.4
		c-0.04-33.4-5.38-51.89-12.66-63.01c-3.64-5.52-7.89-9.06-11.82-11.02c-3.77-1.9-7.09-2.33-9.08-2.36
		c-0.14-0.01-0.27-0.02-0.41-0.02h-42.76c-0.13,0-0.26,0.01-0.38,0.02c-1.99,0.02-5.32,0.45-9.11,2.36
		c-5.95,2.95-12.37,9.41-16.86,20.85c-4.54,11.49-7.59,28.1-7.61,53.17c0,6.48,0.21,13.53,0.66,21.2c0.28,4.7,4.18,8.33,8.83,8.34
		c0.18,0,0.35-0.01,0.53-0.02c4.88-0.29,8.61-4.48,8.32-9.36c-0.43-7.36-0.63-14.06-0.63-20.17c-0.04-26.8,3.87-41.86,7.71-49.72
		v112.49l27.37-20.02V233.71z"/>
	<path d="M156.67,333.62c0,7.56,6.13,13.68,13.68,13.68c7.56,0,13.68-6.12,13.68-13.68v-58.59l-27.37,20.02V333.62z"/>
	<path d="M189.17,333.62c0,7.56,6.13,13.68,13.68,13.68c7.56,0,13.68-6.12,13.68-13.68v-82.36l-27.37,20.02V333.62z"/>
	<circle cx="186.6" cy="109.7" r="24.9"/>
	<circle cx="241.34" cy="342.3" r="5.53"/>
	<circle cx="295.94" cy="342.3" r="5.53"/>
	<path d="M267.23,209.41c3.05-1.83,5.22-2.51,6.17-2.47c0.71,0.06,0.6,0.08,0.85,0.36c0.22,0.31,0.5,1.27,0.49,2.75
		c0.06,6.23-4.25,19.58-8.65,34.49c0,0,0,0.01,0,0.01h-11.46c-7.33,0-13.28,5.95-13.28,13.28v9.96h54.6v-9.96
		c0-7.33-5.94-13.28-13.28-13.28h-11.97c4.22-14.44,8.41-26.95,8.47-34.5c-0.02-1.9-0.25-3.6-1.16-5.1
		c-0.9-1.53-2.78-2.49-4.59-2.43c-2.46,0.03-5.05,1.11-8.43,3.09c-2.63,1.56-5.72,3.73-9.35,6.58l2.62,3.58
		C261.82,212.94,264.81,210.84,267.23,209.41z"/>
	<path d="M305.76,299.83c4.16,2.66,7.88,5.39,10.45,7.91c2.62,2.5,3.86,4.82,3.78,5.96c-0.02,0.64-0.17,1.11-0.96,1.86
		c-1.65,1.65-6.61,3.3-15.54,4.1v4.44c5.08-0.42,9.07-1.11,12.18-2.04c2.73-0.83,4.8-1.85,6.33-3.22c1.53-1.35,2.43-3.24,2.41-5.13
		c-0.17-4.53-3.74-8.14-8.36-11.99c-3.56-2.87-7.97-5.75-12.56-8.45v5.16C304.26,298.89,305.02,299.36,305.76,299.83z"/>
	<polygon points="141.1,309.69 138.11,305.6 222.23,244.07 217.98,238.27 133.86,299.79 130.87,295.7 128.37,297.53 138.6,311.52 	
		"/>
	<rect x="124.19" y="280.32" transform="matrix(0.8071 -0.5904 0.5904 0.8071 -157.3058 135.1763)" width="8.12" height="56.07"/>
	<path d="M301.29,334.18v-64.19h-65.3v64.19h13.65v2.21v0.55h38v-0.55v-2.21H301.29z M260.52,277.92h35.05v8.12h-35.05V277.92z"/>
	<rect x="272.05" y="280.32" width="20.75" height="3.32"/>
</g>
</svg>
