<?xml version="1.0" encoding="utf-8"?>
<!-- Generator: Adobe Illustrator 25.2.3, SVG Export Plug-In . SVG Version: 6.00 Build 0)  -->
<svg version="1.1" id="Layer_1" xmlns="http://www.w3.org/2000/svg" xmlns:xlink="http://www.w3.org/1999/xlink" x="0px" y="0px"
	 viewBox="0 0 432 432" style="enable-background:new 0 0 432 432;" xml:space="preserve">
<g>
	<path d="M237.83,42.11c1.81,0.36,3.64,0.65,5.44,1.08c15.26,3.62,25.67,17.53,25.17,33.63c-0.47,15.13-12.21,28.5-27.28,31.06
		c-20.52,3.48-39.03-12.3-38.8-33.07c0.19-16.65,12.99-30.64,29.61-32.38c0.32-0.03,0.63-0.21,0.94-0.31
		C234.54,42.11,236.19,42.11,237.83,42.11z"/>
	<path d="M108,387.08c2.68-4.24,5.4-8.46,8.04-12.73c10.47-16.93,20.92-33.88,31.38-50.82c0.24-0.4,0.52-0.77,0.75-1.12
		c2.51,1.92,4.99,3.82,7.61,5.82c-0.11,0.2-0.31,0.6-0.54,0.98c-11.69,18.94-23.39,37.87-35.04,56.82
		c-0.64,1.05-1.35,1.39-2.53,1.37c-3.22-0.06-6.44,0.01-9.66,0.03C108,387.31,108,387.19,108,387.08z"/>
	<path d="M215.37,333.09c-1.67-5.29-3.33-10.57-5-15.86c-2.68-8.49-5.35-16.98-8.06-25.45c-0.28-0.87-0.72-1.74-1.26-2.47
		c-15.15-20.3-30.24-40.64-45.54-60.82c-5.62-7.41-8.01-15.56-7.77-24.76c0.42-16.24,2.08-32.27,7.03-47.83
		c3.3-10.35,7.49-20.34,12.54-29.94c4.98-9.45,12.32-16.31,22.87-19.21c4.78-1.31,9.61-1.44,14.43-0.24
		c6.22,1.54,10.65,5.26,13.02,11.25c7.02,17.75,13.97,35.53,21,53.27c0.36,0.9,1.1,1.81,1.91,2.35
		c13.42,8.93,26.86,17.81,40.32,26.67c2.81,1.85,4.81,4.28,5.65,7.55c1.07,4.18,2.04,8.4,3.17,12.57c0.13,0.48,0.88,0.95,1.43,1.12
		c8.09,2.48,14.11,7.42,18.02,14.94c2.48,4.76,2.95,9.93,3.3,15.16c1.1,16.32,2.27,32.63,3.4,48.94c0.99,14.27,1.97,28.54,2.96,42.8
		c0.59,8.54,1.18,17.08,1.82,25.61c0.05,0.65,0.38,1.33,0.76,1.89c2.94,4.34,3.06,9.59,0.26,13.7c-2.86,4.19-7.86,6.1-12.79,4.89
		c-4.88-1.21-8.26-5.13-8.94-10.36c-0.77-6.03,3.82-12.01,9.91-12.89c0.92-0.13,1.86-0.19,3.12-0.31
		c-1.49-21.36-2.98-42.71-4.48-64.17c-26.63,0-53.1,0-79.83,0c-1.86,26.54-3.71,53.05-5.58,79.66c1.13,0.09,2.1,0.16,3.11,0.24
		c0,2.43,0,4.75,0,7.18c-4.33,0-8.59,0-12.98,0c0-2.36,0-4.67,0-7.13c0.74-0.1,1.52-0.21,2.42-0.34c0.38-5.23,0.76-10.43,1.13-15.62
		c1.03-14.62,2.06-29.23,3.08-43.85c0.99-14.21,1.95-28.42,2.95-42.63c0.78-11.17,1.3-22.37,2.51-33.49
		c1.11-10.14,6.69-17.57,15.81-22.21c0.56-0.28,1.52-0.11,2.16,0.17c0.95,0.42,1.86,1.03,2.64,1.72c0.88,0.8,1.59,1.78,2.53,2.86
		c-0.73,0.39-0.96,0.55-1.21,0.64c-9.17,3.46-14.14,10.13-14.86,19.84c-1.11,14.85-2.07,29.7-3.09,44.56c-0.01,0.17,0,0.35,0,0.7
		c26.16,0,52.32,0,78.66,0c-0.14-2.31-0.27-4.57-0.43-6.83c-0.92-13.27-1.82-26.55-2.8-39.82c-0.66-8.88-7.56-16.76-16.26-18.88
		c-1.02-0.25-1.58-0.01-2.27,0.69c-2.79,2.84-6.69,4.27-9.9,3.64c0.15-0.44,0.29-0.86,0.46-1.27c1.3-3.13,1.6-6.34,0.67-9.62
		c-0.9-3.15-1.76-6.32-2.73-9.45c-1.09-3.55-3.24-6.31-6.35-8.36c-12.44-8.17-24.87-16.35-37.27-24.59
		c-0.85-0.56-1.59-1.54-1.97-2.5c-6.62-16.58-13.15-33.21-19.75-49.8c-3.31-8.31-12.49-11.94-20.49-8.2
		c-7.24,3.38-10.44,11.73-7.4,19.49c4.06,10.36,8.18,20.69,12.28,31.03c2.74,6.91,5.5,13.82,8.18,20.75
		c0.31,0.81,0.35,1.84,0.18,2.7c-1.66,8.24-2.69,16.54-2.85,24.95c-0.03,1.75-0.38,3.5-0.39,5.26c0,0.9,0.17,1.98,0.68,2.67
		c6.86,9.29,13.81,18.52,20.66,27.81c0.56,0.76,0.9,1.92,0.84,2.85c-1.58,23.45-3.23,46.9-4.87,70.35c-0.15,2.1-0.27,4.21-0.41,6.31
		C215.58,333.01,215.47,333.05,215.37,333.09z M311.77,383.97c3.54,0,6.3-2.8,6.28-6.37c-0.03-3.4-2.86-6.25-6.25-6.29
		c-3.4-0.04-6.4,2.93-6.41,6.36C305.38,381.14,308.24,383.97,311.77,383.97z"/>
	<path d="M195.14,120.61c5-0.02,9.2,2.83,11.12,7.68c6.69,16.86,13.34,33.75,20.07,50.6c0.42,1.05,1.29,2.09,2.23,2.72
		c12.54,8.34,25.11,16.62,37.7,24.87c2.78,1.82,4.59,4.25,5.45,7.47c0.77,2.88,1.72,5.72,2.47,8.61c1.63,6.31-1.96,12.54-8.17,14.3
		c-6.21,1.76-12.79-1.62-14.36-7.92c-0.93-3.75-2.99-5.95-6.09-7.94c-11.59-7.42-23.04-15.07-34.54-22.64
		c-2.28-1.5-3.81-3.58-4.81-6.11c-7.24-18.35-14.5-36.69-21.76-55.03C181.23,129.09,186.66,120.65,195.14,120.61z"/>
	<path d="M231.84,304.65c4.13,0,8.22-0.06,12.31,0.08c0.47,0.02,1.12,1.02,1.33,1.68c4.03,12.65,8.01,25.32,12,37.99
		c1.97,6.25,3.97,12.49,5.91,18.75c3.88,12.48-5.04,24.56-18.09,24.17c-7.64-0.23-13.11-4.19-16.28-11.18
		c-1.55-3.41-1.97-6.96-1.66-10.76c1.04-12.73,1.84-25.47,2.73-38.21c0.5-7.13,0.98-14.26,1.48-21.39
		C231.59,305.44,231.72,305.11,231.84,304.65z"/>
	<path d="M158.3,237.55c1.14,1.53,2.29,3.06,3.43,4.59c11.33,15.15,22.64,30.32,34.04,45.43c1.15,1.52,1.37,2.6,0.33,4.29
		c-3.38,5.47-6.2,11.32-9.94,16.51c-3.08,4.28-7,8.01-10.85,11.67c-3.52,3.36-7.56,5.69-12.85,4.25
		c-5.77-1.57-10.15-4.79-12.61-10.28c-2.56-5.7-2.4-11.33,0.84-16.81c3.96-6.7,7.88-13.43,11.71-20.21
		c0.52-0.92,0.77-2.21,0.62-3.27c-1.62-12.01-3.34-24-5.04-36C158.08,237.67,158.19,237.61,158.3,237.55z"/>
	<path d="M240.59,290.63c-2.57,0-4.73,0-6.89,0c-0.28,0-0.57-0.04-1.04-0.07c0.42-6.04,0.83-12,1.25-17.96
		c0.14-0.03,0.29-0.06,0.43-0.09C237.12,278.21,238.3,284.47,240.59,290.63z"/>
	<path d="M311.77,383.97c-3.53,0-6.39-2.82-6.39-6.3c0.01-3.43,3.01-6.4,6.41-6.36c3.4,0.04,6.23,2.89,6.25,6.29
		C318.07,381.16,315.31,383.96,311.77,383.97z"/>
</g>
</svg>
