<?xml version="1.0" encoding="utf-8"?>
<!-- Generator: Adobe Illustrator 25.2.3, SVG Export Plug-In . SVG Version: 6.00 Build 0)  -->
<svg version="1.1" id="Layer_1" xmlns="http://www.w3.org/2000/svg" xmlns:xlink="http://www.w3.org/1999/xlink" x="0px" y="0px"
	 viewBox="0 0 432 432" style="enable-background:new 0 0 432 432;" xml:space="preserve">
<g>
	<path d="M362.51,149.45c11.71,0.1,22.51,1.48,33.92,6.94c-11.23-19.79-27.48-26.78-48.24-26.76c5.8-4.18,11.6-8.37,17.81-12.85
		c-13.62-4.55-25.86-1.39-34.87,8.18c-7.23,7.69-10.61,5.33-16.59-0.68c-12.75-12.82-20.38-13-34.04-1.79
		c8.49,3.12,16.06,7.12,22.57,13.81c-38.14,5.36-41.98,7.13-45.98,20.75c13.13-4.15,26.4-7.37,42.84-2.79
		c-14.72,7.32-23.65,15.95-26.81,31.9c9.91-7.93,19.54-11.89,28.93-16.45c12.39-6.02,18.93-2.48,19.18,11.59
		c0.65,36.24-7.5,70.71-20.64,104.22c-2.01,5.12-4.37,9.45-11.45,10.24c1.09-20.26-3.26-39.27-10.23-57.79
		c-1.19-3.16-3.39-7.87,0.3-9.1c2.2-0.73,6.26-4.93,10.4,0.36c2.06,2.64,8.38,4.26,13.7,3.32c-2.89-8.24-12.16-8.35-16.01-14.68
		c7.19-4.59,14.82-6.9,24.01-6.41c-8.34-11.11-19.59-5.66-29.06-6.73c-1.24-5.8,5.82-5.56,6.42-10.36
		c-7.13,1.48-15.03-1.14-19.91,6.62c-8.49,13.52-18.07-10.94-34.81-1.93c4.48,3.84,9.79,6.41,12.31,11.88
		c-15.8,5.21-23.1,13.24-23.47,25.55c9.02-3.35,14.99-14.75,27.59-11.19c-5.91,9.64-9.78,18.82-9.15,31.31
		c11.22-17.22,23.62-32.08,29.94-12.63c3.4,10.46,5.62,21.18,6.71,32.23c1,10.13,2.67,19.99-5.31,28.25
		c-3.52-1.62-5.85-5.98-10.67-4.8c-1.28,3.2,2.83,5.75,0.91,8.84c-2.68,0.2-4.2,0.37-5.72,1.31c-0.7-0.43-1.48-0.56-2.48-0.36
		c-19.19,3.83-46.7,0.81-52.73-15.25c-4.99-13.26,4.6-22.9,15.55-20.5c3.6,0.79,6.48,2.94,10.36,5.51
		c-4.2-30.08-50.06-34.49-68.28,0.18l-8.25,15.7c-7.5,14.28-26.21,4.33-31.19-8.91c-6.55-17.4,6.04-30.04,20.43-26.89
		c4.73,1.04,8.51,3.85,13.61,7.22c-5.52-39.46-65.78-45.25-89.71,0.24L36.43,319.9c57.79,0,102.45,0,164.32,0
		c14.4,0,123.22,0,137.66,0c-9-0.19-9.24-15.69-20.92-11.5c1.72-2.35,3.11-4.26,5.19-7.11c-4.19,1.15-7.35,2.02-10.1,2.78
		c-2-11.85,3.56-22.22,6.71-33.09c8.5-29.3,12.7-59.22,13.21-89.7c0.05-3.02-1.48-7.44,1.99-8.6c3.24-1.09,4.84,3.33,6.96,5.46
		c7.08,7.11,11.84,15.99,18.26,25.81c3-16.49-2.75-28.84-10.89-41.78c17.97,1.78,26.04,14.81,36.48,25.28
		C388.96,168.01,377.05,158.03,362.51,149.45z"/>
	<ellipse transform="matrix(0.2281 -0.9736 0.9736 0.2281 -44.8338 281.6041)" cx="155.19" cy="169.08" rx="31.23" ry="31.23"/>
</g>
</svg>
