<?xml version="1.0" encoding="utf-8"?>
<!-- Generator: Adobe Illustrator 25.2.3, SVG Export Plug-In . SVG Version: 6.00 Build 0)  -->
<svg version="1.1" id="Layer_1" xmlns="http://www.w3.org/2000/svg" xmlns:xlink="http://www.w3.org/1999/xlink" x="0px" y="0px"
	 viewBox="0 0 432 432" style="enable-background:new 0 0 432 432;" xml:space="preserve">
<g>
	<ellipse transform="matrix(0.9729 -0.2311 0.2311 0.9729 -18.6138 52.824)" cx="216.14" cy="105.85" rx="28.3" ry="28.3"/>
	<path d="M319.38,231.55h-1.1v-16.53c0-2.79-2.26-5.05-5.05-5.05c-2.79,0-5.05,2.26-5.05,5.05v-6.06c0-2.79-2.26-5.05-5.05-5.05
		c-2.79,0-5.05,2.26-5.05,5.05v-6.06c0-2.79-2.26-5.05-5.05-5.05c-2.79,0-5.05,2.26-5.05,5.05v28.65H276.7
		c-2.81-20.19-10.52-70.07-20.26-81.59c-12.18-14.41-40.54-13.54-40.54-13.54s-28.36-0.83-40.54,13.59
		c-9.75,11.53-17.46,61.36-20.27,81.55h-10.41v-28.65c0-2.79-2.26-5.05-5.05-5.05c-2.79,0-5.05,2.26-5.05,5.05v6.06
		c0-2.79-2.26-5.05-5.05-5.05c-2.79,0-5.05,2.26-5.05,5.05v6.06c0-2.79-2.26-5.05-5.05-5.05c-2.79,0-5.05,2.26-5.05,5.05v16.53
		h-0.92c-2.79,0-5.05,2.26-5.05,5.05s2.26,5.05,5.05,5.05h0.92v13.75c0,2.79,2.26,5.05,5.05,5.05c2.79,0,5.05-2.26,5.05-5.05v6.06
		c0,2.79,2.26,5.05,5.05,5.05c2.79,0,5.05-2.26,5.05-5.05v6.06c0,2.79,2.26,5.05,5.05,5.05c2.79,0,5.05-2.26,5.05-5.05v-25.86h9.42
		c0.51,2.02,2.48,5.3,7.13,6.18c5.85,1.12,9.93-3.09,10.47-5.4c0.03-0.13,0.12-0.78,0.24-0.78h13.78
		c-1.1,42.39-4.75,101.8-4.79,103.07c-0.06,2,1.31,9.14,11.35,9.14c10.04,0,12.66-5.46,12.84-7.34c0.17-1.88,9.16-84.69,9.16-84.69
		h3.27c0,0,9.06,83.43,9.23,85.31c0.17,1.88,2.72,7.94,12.76,7.94c10.04,0,11.41-7.71,11.35-9.71c-0.04-1.27-3.71-61.34-4.8-103.73
		h13.76c0.14,0,0.23,0.62,0.26,0.76c0.53,2.32,4.61,6.67,10.47,5.55c4.66-0.89,6.62-4.3,7.13-6.32H288v25.86
		c0,2.79,2.26,5.05,5.05,5.05c2.79,0,5.05-2.26,5.05-5.05v-6.06c0,2.79,2.26,5.05,5.05,5.05c2.79,0,5.05-2.26,5.05-5.05v-6.06
		c0,2.79,2.26,5.05,5.05,5.05c2.79,0,5.05-2.26,5.05-5.05v-13.75h1.1c2.79,0,5.05-2.26,5.05-5.05S322.17,231.55,319.38,231.55z
		 M187.92,189.38c0,0-1.57,21.98-1.99,42.17h-10.96C179.71,215.4,187.92,189.38,187.92,189.38z M245.86,231.55
		c-0.43-20.19-1.99-42.02-1.99-42.02s8.18,25.87,12.93,42.02H245.86z"/>
</g>
</svg>
