<?xml version="1.0" encoding="utf-8"?>
<!-- Generator: Adobe Illustrator 25.2.3, SVG Export Plug-In . SVG Version: 6.00 Build 0)  -->
<svg version="1.1" id="Layer_1" xmlns="http://www.w3.org/2000/svg" xmlns:xlink="http://www.w3.org/1999/xlink" x="0px" y="0px"
	 viewBox="0 0 432 432" style="enable-background:new 0 0 432 432;" xml:space="preserve">
<g>
	<path d="M240.49,339.07c-0.94-0.21-1.89-0.4-2.83-0.65c-8.44-2.2-13.8-10.93-11.95-19.43c1.93-8.81,10.25-14.46,19.01-12.91
		c0.41,0.07,0.83,0.12,1.34,0.19c0-6.67,0-13.3,0-20.1c-7.25,0-14.48,0-21.81,0c0-1.26,0-2.36,0-3.63c7.21,0,14.44,0,21.79,0
		c0-5.48,0-10.79,0-16.28c-0.51,0-1.01,0-1.51,0c-7.27,0-14.53-0.02-21.8,0.03c-1.05,0.01-1.55-0.27-1.91-1.3
		c-4.73-13.36-13.24-23.67-25.36-30.98c-1.09-0.66-1.78-1.42-2.26-2.64c-1.56-3.96-3.29-7.85-4.95-11.77
		c-0.18-0.42-0.31-0.85-0.52-1.45c9.86,0,19.56,0,29.25,0c9.65,0,19.3,0,29.18,0c0-1.59,0-3.12,0-4.65c0-1.31,0.02-2.63,0-3.94
		c-0.05-3.05-2.1-5.61-5.11-5.68c-6.93-0.16-13.86-0.05-21.1-0.05c0.37,3.9,0.74,7.69,1.12,11.69c-0.46,0-0.9,0-1.35,0
		c-10.64,0-21.28-0.01-31.92,0.02c-0.94,0-1.39-0.26-1.76-1.14c-1.94-4.71-3.96-9.39-6.04-14.31c0.69,0,1.22,0,1.76,0
		c19.27,0,38.53,0,57.8,0c6.54,0,10.29,3.7,10.36,10.25c0.03,2.44,0.01,4.88,0.01,7.31c0,29.58-0.02,59.16,0.02,88.74
		c0.01,4.61-0.62,8.95-3.46,12.76c-0.21,0.28-0.17,0.87-0.04,1.25c0.8,2.28,0.27,4.49-1.47,5.83c-1.71,1.32-4.18,1.37-5.9,0.12
		c-1.72-1.26-2.44-3.49-1.78-5.5c0.7-2.13,2.61-3.43,4.96-3.41c0.34,0,0.83-0.03,0.98-0.24c1.36-1.81,2.4-3.77,2.68-6.05
		c-3.55-1.71-8.75-0.73-11.96,2.21c-4.24,3.87-5.3,9.88-2.61,14.74c2.78,5.01,8.42,7.39,13.9,5.88c5.37-1.49,9.14-6.61,8.68-12.3
		c-0.15-1.93-1.16-3.79-1.78-5.69c-0.15-0.46-0.46-0.96-0.4-1.39c0.24-1.57,0.61-3.11,0.96-4.79c2.96,2.5,4.79,5.63,5.5,9.38
		c1.8,9.6-4.52,18.26-14.26,19.63c-0.22,0.03-0.42,0.16-0.63,0.24C242.36,339.07,241.43,339.07,240.49,339.07z"/>
	<path d="M162.29,339.07c-2.39-0.37-4.79-0.67-7.16-1.11c-21.51-3.97-39.1-21.56-43.16-43.14c-4.38-23.29,6.18-46.36,26.61-57.99
		c8.22-4.68,17.11-6.98,26.56-7.16c0.93-0.02,1.43,0.22,1.76,1.14c0.6,1.66,1.36,3.26,2.12,5.06c-14.1-0.59-26.25,3.64-36.95,13.37
		c1.41,1.25,2.71,2.39,4,3.54c0.24,0.21,0.49,0.41,0.77,0.64c8.89-7.98,19.23-11.74,31.23-11.24c0.03,0.68,0.05,1.22,0.09,1.77
		c0.03,0.56,0.08,1.11,0.13,1.8c-5.32-0.24-10.48,0.4-15.47,2.17c-5.01,1.77-9.43,4.47-13.41,8.1c7.04,6.87,14.01,13.67,21.12,20.61
		c0.55-0.23,1.58-0.8,2.69-1.1c1.11-0.3,2.3-0.32,3.68-0.49c1.98-7.21,4-14.59,6.03-21.98c2.26,0.98,2.26,0.98,1.67,3.13
		c-1.69,6.18-3.37,12.37-5.1,18.54c-0.23,0.81-0.06,1.14,0.62,1.68c1.54,1.22,2.89,2.68,4.59,4.3c8.9-2.34,18.3-4.8,27.92-7.33
		c-2.62-8.68-7.68-15.46-15.02-20.8c0.51-0.45,0.95-0.8,1.35-1.2c0.39-0.39,0.74-0.83,1.21-1.37c7.83,5.7,13.1,13.15,15.99,22.44
		c2-0.52,3.92-1.03,6.01-1.57c-0.17-0.6-0.29-1.13-0.46-1.64c-3.42-10.13-9.45-18.33-18.2-24.49c-0.88-0.62-1.1-1.18-0.78-2.17
		c0.48-1.51,0.83-3.06,1.27-4.71c0.3,0.13,0.6,0.2,0.85,0.37c13.94,9.13,22.47,21.87,24.8,38.39c3.31,23.46-7.99,45.24-28.94,56.3
		c-6.45,3.41-13.37,5.32-20.65,5.91c-0.35,0.03-0.69,0.17-1.03,0.26C166.79,339.07,164.54,339.07,162.29,339.07z M175.25,283.08
		c-0.69,2.53-1.29,4.75-1.99,7.34c6.65,6.47,13.66,13.29,20.73,20.17c8.77-9.88,11.99-21.5,9.33-34.88
		C193.7,278.23,184.26,280.71,175.25,283.08z M128.76,295.28c1.15,9.84,16.81,25.59,25.57,25.74c2.56-9.36,5.12-18.73,7.57-27.67
		c-1.86-1.89-3.49-3.55-5.29-5.38C147.56,290.34,138.15,292.81,128.76,295.28z M191.83,312.54c-7.01-6.89-13.95-13.71-20.71-20.35
		c-2.14,0.55-4.37,1.12-6.86,1.76c-2.47,9.03-5.04,18.43-7.61,27.82C167.31,324.9,182.25,322.03,191.83,312.54z M128.08,292.94
		c9.46-2.48,18.85-4.95,27.87-7.32c0.7-2.52,1.33-4.77,2.13-7.64c-6.54-6.42-13.49-13.23-20.43-20.04
		C129.58,264.36,124.58,282.52,128.08,292.94z M155.66,325.46c-0.31,1.09-0.58,2.03-0.84,2.98c-0.26,0.98-0.51,1.96-0.8,3.11
		c17.02,3.58,31.83-0.36,44.98-11.85c-1.67-1.44-3.22-2.78-4.83-4.17C183.25,325.16,170.34,328.49,155.66,325.46z M130.63,250.81
		c-12.94,13.25-15.73,31.95-12.06,44.62c1.92-0.51,3.84-1.02,5.85-1.55c-2.9-14.73,0.6-27.63,10.59-38.69
		C133.51,253.7,132.09,252.28,130.63,250.81z M153.28,324.83c-14.15-4.84-23.57-14.34-28.26-28.57c-1.99,0.53-3.92,1.04-5.98,1.58
		c2.84,9.61,8.01,17.57,15.66,23.89c5.01,4.14,10.61,7.2,16.96,9.06C152.23,328.66,152.75,326.78,153.28,324.83z M200.72,317.76
		c12.8-13.05,15.64-31.81,11.95-44.5c-1.76,0.46-3.52,0.92-5.27,1.39c-0.17,0.05-0.34,0.13-0.56,0.21
		c2.94,14.66-0.63,27.52-10.48,38.52C197.83,314.87,199.25,316.28,200.72,317.76z M171.33,284.3c-0.03-3.14-2.67-5.75-5.76-5.7
		c-3.13,0.05-5.7,2.67-5.67,5.8c0.03,3.15,2.62,5.7,5.76,5.68C168.79,290.05,171.36,287.43,171.33,284.3z"/>
	<path d="M108,186.04c3.19-0.9,6.37-1.82,9.57-2.69c3.74-1.03,7.44-2.36,11.25-2.96c6.04-0.96,12.39,2.57,14.86,8.18
		c5.45,12.38,10.7,24.85,16.1,37.42c-2.32,0.4-4.55,0.83-6.8,1.11c-0.27,0.03-0.76-0.69-0.95-1.15c-3.25-7.51-6.46-15.04-9.69-22.57
		c-1.55-3.61-3.09-7.23-4.65-10.83c-1.87-4.35-5.65-6.09-10.21-4.73c-5.42,1.62-10.85,3.25-16.27,4.86
		c-0.35,0.11-0.71,0.18-1.12,0.28c-0.7-2.05-1.39-4.07-2.08-6.08C108,186.6,108,186.32,108,186.04z"/>
	<path d="M174.46,193.73c2.52,5.93,4.96,11.7,7.41,17.47c2.92,6.89,5.85,13.78,8.78,20.67c0.93,2.19,1.11,4.42,0.47,6.73
		c-0.64,2.3-1.21,4.62-1.83,6.92c-1.39,5.12-6.29,8.07-11.38,6.87c-4.94-1.17-7.98-6.09-6.93-11.22c0.01-0.05,0.01-0.1,0.02-0.14
		c1.5-3.22,0.55-6.1-0.79-9.18c-5.54-12.69-10.87-25.47-16.29-38.22c-2.52-5.92-0.66-10.81,5.19-13.55
		c13.43-6.3,26.85-12.6,40.29-18.88c5.08-2.38,10.64-0.5,12.89,4.31c2.27,4.85,0.24,10.3-4.83,12.69
		c-10.36,4.9-20.75,9.75-31.13,14.61C175.76,193.08,175.18,193.38,174.46,193.73z"/>
	<path d="M200.65,120.36c-0.38-13.41,9.65-26.05,24.93-27.1c14.08-0.97,26.75,10.09,27.82,24.29c1.11,14.75-9.86,27.52-24.58,28.48
		C213.86,147,201.06,135.47,200.65,120.36z"/>
	<path d="M252.66,255.75c0-9.45,0-18.75,0-28.23c0.53,0,1.03,0,1.53,0c8.15,0,16.3-0.01,24.45,0c7.19,0.01,12.18,3.68,14.41,10.47
		c1.08,3.29,2.29,6.53,3.45,9.79c2.58,7.19-1.1,15.23-8.18,17.84c-7.4,2.73-15.57-0.85-18.2-8.13c-0.5-1.39-1.2-1.77-2.53-1.76
		c-4.45,0.05-8.9,0.02-13.35,0.02C253.74,255.75,253.23,255.75,252.66,255.75z"/>
	<path d="M177.88,194.97c3.01-1.42,5.97-2.8,8.92-4.19c7.37-3.46,14.76-6.88,22.1-10.39c4.84-2.31,7.45-7.2,6.8-12.45
		c-0.6-4.91-4.37-9-9.42-10.15c-2.59-0.59-5.12-0.3-7.54,0.83c-4.37,2.04-8.73,4.08-13.1,6.12c-0.45,0.21-0.9,0.4-1.64,0.72
		c1.39-2.96,3.05-5.37,5.09-7.5c5.44-5.66,11.96-8.93,19.95-8.81c8.41,0.13,14.74,5.96,15.7,14.31c0.55,4.82-0.3,9.53-1.13,14.22
		c-1.16,6.54-2.47,13.05-3.76,19.75c-0.3,0-0.86,0-1.41,0c-12.47,0-24.94,0-37.4,0C178.76,197.43,178.76,197.43,177.88,194.97z"/>
	<path d="M252.65,268.04c0-2.42,0-4.69,0-7.07c3.37,0,6.69-0.1,9.99,0.04c1.73,0.07,2.7,1.31,3.13,2.97
		c2.81,11.06,5.64,22.13,8.46,33.19c1.49,5.85,2.95,11.7,4.5,17.54c1.86,6.99,8.31,10.74,15.28,8.9c7.96-2.09,15.92-4.22,23.87-6.33
		c0.41-0.11,0.81-0.24,1.22-0.33c2.02-0.44,3.91,0.67,4.36,2.55c0.47,1.96-0.57,3.78-2.58,4.34c-3.56,0.99-7.14,1.91-10.71,2.85
		c-4.75,1.26-9.5,2.51-14.24,3.78c-10.92,2.93-21.43-3.29-24.21-14.28c-3.95-15.6-7.95-31.19-11.89-46.79
		c-0.27-1.06-0.7-1.44-1.8-1.38C256.27,268.11,254.49,268.04,252.65,268.04z"/>
	<path d="M304.34,316.58c-2.31,0.61-4.51,1.2-6.88,1.83c-4.01-15.97-7.99-31.82-11.96-47.61c2.25-0.74,4.4-1.46,6.77-2.24
		C296.26,284.41,300.27,300.38,304.34,316.58z"/>
	<path d="M171.33,284.3c0.03,3.13-2.55,5.76-5.67,5.77c-3.14,0.02-5.73-2.53-5.76-5.68c-0.03-3.12,2.53-5.75,5.67-5.8
		C168.66,278.55,171.31,281.16,171.33,284.3z"/>
</g>
</svg>
